<mxfile host="app.diagrams.net" agent="Mozilla/5.0 (Macintosh; Intel Mac OS X 10_15_7) AppleWebKit/605.1.15 (KHTML, like Gecko) Version/18.3 Safari/605.1.15" version="26.0.16">
  <diagram name="Page-1" id="C4qMsRZqFDdA0KFkcd8O">
    <mxGraphModel dx="3290" dy="1362" grid="1" gridSize="10" guides="1" tooltips="1" connect="1" arrows="1" fold="1" page="1" pageScale="1" pageWidth="850" pageHeight="1100" math="0" shadow="0">
      <root>
        <mxCell id="0" />
        <mxCell id="1" parent="0" />
        <UserObject label="" plantUmlData="{&quot;data&quot;:&quot;@startuml\nskinparam linetype ortho\nskinparam class {\n  Padding 30         &#39; Increased for more internal space within classes\n  Margin 40          &#39; Increased for more external space between classes\n  BackgroundColor&lt;&lt;UserManagement&gt;&gt; LightBlue\n  BackgroundColor&lt;&lt;Abonnement&gt;&gt; LightGreen\n  BackgroundColor&lt;&lt;ContentNotification&gt;&gt; LightYellow\n  BackgroundColor&lt;&lt;EventsMatches&gt;&gt; LightCoral\n  BackgroundColor&lt;&lt;Multimedia&gt;&gt; LightGray\n  BackgroundColor&lt;&lt;Community&gt;&gt; LightPink\n  BackgroundColor&lt;&lt;Partner&gt;&gt; LightCyan\n}\n\n&#39; Increase overall diagram width and height by adding spacing hints\nskinparam dpi 100    &#39; Adjust DPI for larger rendering\nskinparam nodesep 50 &#39; Increase horizontal separation between nodes\nskinparam ranksep 70 &#39; Increase vertical separation between ranks\n\n&#39; ========================== Microservice: User Management ==========================\nclass Utilisateur &lt;&lt;UserManagement&gt;&gt; {\n  - id: string\n  - email: string\n  - motDePasse: string\n  - equipes: string[] &#39; Max 3\n  - parametresNotification: { email: boolean, push: boolean }\n  - contenuPrefere: string[] &#39; e.g., [\&quot;actualités\&quot;, \&quot;statistiques\&quot;]\n  - dateCreation: Date\n}\n\nclass Equipe &lt;&lt;UserManagement&gt;&gt; {\n  - id: string\n  - nom: string\n  - categorieSport: string\n  - partenaireId: string &#39; Optional reference to Partner\n}\n\nUtilisateur \&quot;1\&quot; -- \&quot;1..3\&quot; Equipe : follows\n\n&#39; ========================== Microservice: Abonnement ==========================\nclass Payment &lt;&lt;Abonnement&gt;&gt; {\n  - id: string\n  - utilisateurId: string\n  - abonnementId: string\n  - montant: float &#39; Payment amount\n  - date: Date\n  - methode: &#39;Carte&#39; | &#39;Paypal&#39; | &#39;Virement&#39;\n}\n\nclass Abonnement &lt;&lt;Abonnement&gt;&gt; {\n  - id: string\n  - utilisateurId: string\n  - niveau: &#39;Basic&#39; | &#39;Premium&#39;\n  - dateDebut: Date\n  - dateFin: Date\n}\n\nclass Avantage &lt;&lt;Abonnement&gt;&gt; {\n  - id: string\n  - abonnementId: string\n  - type: &#39;EvenementVIP&#39; | &#39;AccesAnticipe&#39;\n  - description: string\n}\n\n&#39; Associations with cardinalities\nUtilisateur \&quot;1\&quot; -- \&quot;0..*\&quot; Payment : makes\nPayment \&quot;1\&quot; -- \&quot;1\&quot; Abonnement : paid by\nAbonnement \&quot;1\&quot; -- \&quot;0..*\&quot; Avantage : offers\n\n&#39; Positioning hints: Place Avantage below Abonnement\nPayment -[hidden]down- Abonnement\nAbonnement -[hidden]down- Avantage\n\n&#39; Increase association width between Abonnement and Avantage\nskinparam association {\n  Horizontal true\n  LineThickness 2\n  StereotypePosition top\n  FontSize 12\n}\n\n&#39; ========================== Microservice: Content &amp; Notifications ==========================\nclass Actualite &lt;&lt;ContentNotification&gt;&gt; {\n  - id: string\n  - equipeId: string\n  - titre: string\n  - contenu: string\n  - niveauAbonnement: &#39;Basic&#39; | &#39;Premium&#39;\n  - date: Date\n  - type: &#39;Article&#39; | &#39;Video&#39;\n  - auteur?: string &#39; Optional for articles\n  - url?: string &#39; Optional for videos\n  - duree?: number &#39; Optional for videos\n}\n\nclass Notification &lt;&lt;ContentNotification&gt;&gt; {\n  - id: string\n  - utilisateurId: string\n  - equipeId: string\n  - message: string\n  - type: &#39;Match&#39; | &#39;Actualite&#39; | &#39;MiseAJour&#39;\n  - date: Date\n}\n\nclass Comments &lt;&lt;ContentNotification&gt;&gt; {\n  - id: string\n  - actualiteId: string\n  - utilisateurId: string\n  - contenu: string\n  - date: Date\n}\n\nActualite \&quot;1\&quot; -- \&quot;1\&quot; Equipe : belongs to\nNotification \&quot;1\&quot; -- \&quot;1\&quot; Utilisateur : sent to\nNotification \&quot;1\&quot; -- \&quot;1\&quot; Equipe : relates to\nComments \&quot;1\&quot; -- \&quot;1\&quot; Actualite : pertains to\nComments \&quot;1\&quot; -- \&quot;1\&quot; Utilisateur : written by\n\n&#39; ========================== Microservice: Events &amp; Matches ==========================\nclass Evenement &lt;&lt;EventsMatches&gt;&gt; {\n  - id: string\n  - equipeId: string\n  - titre: string\n  - date: Date\n  - lieu: string\n}\n\nclass Match &lt;&lt;EventsMatches&gt;&gt; {\n  - score: string\n  - adversaire: string\n  - statutDirect: boolean\n  + mettreAJourScore(score: string)\n}\n\nclass Joueur &lt;&lt;EventsMatches&gt;&gt; {\n  - id: string\n  - nom: string\n  - prenom: string\n  - age: int\n  - nationalite: string\n  - poste: &#39;Gardien&#39; | &#39;Défenseur&#39; | &#39;Milieu&#39; | &#39;Attaquant&#39;\n  - equipeId: string\n  - statistiques: { buts: int, passes: int }\n}\n\nclass Statistique &lt;&lt;EventsMatches&gt;&gt; {\n  - id: string\n  - matchId: string\n  - joueurId: string\n  - donnees: { buts: int, passes: int }\n}\n\nclass Billet &lt;&lt;EventsMatches&gt;&gt; {\n  - id: string\n  - evenementId: string\n  - utilisateurId: string\n  - prix: float\n  - statut: &#39;Disponible&#39; | &#39;Vendu&#39;\n}\n\nEvenement \&quot;1\&quot; -- \&quot;1\&quot; Equipe : belongs to\nEvenement \&quot;1\&quot; -- \&quot;0..1\&quot; Match : has\nJoueur \&quot;1\&quot; -- \&quot;1\&quot; Equipe : plays for\nStatistique \&quot;1\&quot; -- \&quot;1\&quot; Match : relates to\nStatistique \&quot;1\&quot; -- \&quot;1\&quot; Joueur : tracks\nBillet \&quot;1\&quot; -- \&quot;1\&quot; Evenement : for\nBillet \&quot;0..1\&quot; -- \&quot;1\&quot; Utilisateur : purchased by\n\n&#39; ========================== Microservice: Multimedia ==========================\nclass Galerie &lt;&lt;Multimedia&gt;&gt; {\n  - id: string\n  - equipeId: string\n  - titre: string\n  - mediaIds: string[] &#39; References to Media\n}\n\nclass Media &lt;&lt;Multimedia&gt;&gt; {\n  - id: string\n  - type: &#39;Photo&#39; | &#39;Video&#39;\n  - url: string\n  - description: string\n  - niveauAbonnement: &#39;Basic&#39; | &#39;Premium&#39;\n}\n\nGalerie \&quot;1\&quot; -- \&quot;1\&quot; Equipe : belongs to\nGalerie \&quot;1\&quot; -- \&quot;0..*\&quot; Media : contains\n\n&#39; ========================== Microservice: Community ==========================\nclass Forum &lt;&lt;Community&gt;&gt; {\n  - id: string\n  - equipeId: string\n  - nom: string\n}\n\nclass Discussion &lt;&lt;Community&gt;&gt; {\n  - id: string\n  - forumId: string\n  - titre: string\n  - messages: Message[]\n}\n\nclass Message &lt;&lt;Community&gt;&gt; {\n  - id: string\n  - discussionId: string\n  - utilisateurId: string\n  - contenu: string\n  - date: Date\n}\n\nForum \&quot;1\&quot; -- \&quot;1\&quot; Equipe : for\nForum \&quot;1\&quot; -- \&quot;0..*\&quot; Discussion : contains\nDiscussion \&quot;1\&quot; -- \&quot;1\&quot; Forum : in\nMessage \&quot;1\&quot; -- \&quot;1\&quot; Discussion : in\nMessage \&quot;1\&quot; -- \&quot;1\&quot; Utilisateur : written by\n\n&#39; ========================== Microservice: Partner ==========================\nclass Partenaire &lt;&lt;Partner&gt;&gt; {\n  - id: string\n  - nom: string\n  - logoUrl: string\n  - siteWebUrl: string\n  - emailContact: string\n  - domaine: string\n  - dateDebut: Date\n  - dateFin: Date\n}\n\nclass Sponsor &lt;&lt;Partner&gt;&gt; {\n  - id: string\n  - nom: string\n  - logoUrl: string\n  - siteWebUrl: string\n  - emailContact: string\n  - domaine: string\n  - montant: float &#39; Funding amount\n  - dureeContrat: int &#39; Duration in months\n  - visibiliteMarque: string &#39; e.g., \&quot;Maillot\&quot;, \&quot;Bannières\&quot;\n  - dateDebut: Date\n  - dateFin: Date\n}\n\nclass Partenariat &lt;&lt;Partner&gt;&gt; {\n  - id: string\n  - type: &#39;Commercial&#39; | &#39;Caritatif&#39; | &#39;Communautaire&#39;\n  - dateDebut: Date\n  - dateFin: Date\n  - budget: float\n  - statut: &#39;Actif&#39; | &#39;Expiré&#39;\n}\n\nclass Campaign &lt;&lt;Partner&gt;&gt; {\n  - id: string\n  - partenariatId: string\n  - nom: string\n  - description: string\n  - imageUrl: string\n  - dateDebut: Date\n  - dateFin: Date\n}\n\nPartenaire \&quot;1\&quot; -- \&quot;0..*\&quot; Partenariat : has\nSponsor \&quot;1\&quot; -- \&quot;0..*\&quot; Partenariat : funds\nPartenariat \&quot;1\&quot; -- \&quot;1\&quot; Equipe : with\nPartenariat \&quot;1\&quot; -- \&quot;0..*\&quot; Campaign : supports\n\n@enduml&quot;,&quot;format&quot;:&quot;svg&quot;}" id="CUp0JFuwUifTGeMHYsHr-1">
          <mxCell style="shape=image;noLabel=1;verticalAlign=top;aspect=fixed;imageAspect=0;image=data:image/svg+xml,PD94bWwgdmVyc2lvbj0iMS4wIiBlbmNvZGluZz0idXMtYXNjaWkiIHN0YW5kYWxvbmU9Im5vIj8+PHN2ZyB4bWxucz0iaHR0cDovL3d3dy53My5vcmcvMjAwMC9zdmciIHhtbG5zOnhsaW5rPSJodHRwOi8vd3d3LnczLm9yZy8xOTk5L3hsaW5rIiBjb250ZW50U3R5bGVUeXBlPSJ0ZXh0L2NzcyIgaGVpZ2h0PSIxMDc4cHgiIHByZXNlcnZlQXNwZWN0UmF0aW89Im5vbmUiIHN0eWxlPSJ3aWR0aDoyODEycHg7aGVpZ2h0OjEwNzhweDtiYWNrZ3JvdW5kOiNGRkZGRkY7IiB2ZXJzaW9uPSIxLjEiIHZpZXdCb3g9IjAgMCAyODEyIDEwNzgiIHdpZHRoPSIyODEycHgiIHpvb21BbmRQYW49Im1hZ25pZnkiPjxkZWZzLz48Zz48IS0tY2xhc3MgVXRpbGlzYXRldXItLT48ZyBpZD0iZWxlbV9VdGlsaXNhdGV1ciI+PHJlY3QgY29kZUxpbmU9IjIwIiBmaWxsPSIjQUREOEU2IiBoZWlnaHQ9IjE1OC43MTg4IiBpZD0iVXRpbGlzYXRldXIiIHJ4PSIyLjUiIHJ5PSIyLjUiIHN0eWxlPSJzdHJva2U6IzE4MTgxODtzdHJva2Utd2lkdGg6MC41OyIgd2lkdGg9IjQ3MSIgeD0iMTA1OSIgeT0iMzA4LjUiLz48ZWxsaXBzZSBjeD0iMTIzOC4yNSIgY3k9IjMyNy40MTQxIiBmaWxsPSIjQUREMUIyIiByeD0iMTEiIHJ5PSIxMSIgc3R5bGU9InN0cm9rZTojMTgxODE4O3N0cm9rZS13aWR0aDoxLjA7Ii8+PHBhdGggZD0iTTEyMzUuODc1LDMzMS42NjQxIEwxMjM1Ljg3NSwzMzMuNDE0MSBMMTI0MC44MTI1LDMzMy40MTQxIEwxMjQwLjgxMjUsMzMxLjY2NDEgTDEyMzUuODc1LDMzMS42NjQxIFogTTEyMzYuNTYyNSwzMzIuMzUxNiBRMTIzNi41NjI1LDMzMi4zNTE2IDEyMzYuNTYyNSwzMjMuMTY0MSBMMTIzNC44MTI1LDMyMy4xNjQxIFExMjM0LjgxMjUsMzIzLjE2NDEgMTIzNC44MTI1LDMzMi4zNTE2IEwxMjM2LjU2MjUsMzMyLjM1MTYgWiBNMTI0MC4xMjUsMzMyLjM1MTYgTDEyNDEuODc1LDMzMi4zNTE2IFExMjQxLjg3NSwzMzIuMzUxNiAxMjQxLjg3NSwzMjkuNTM5MSBMMTI0MC4xMjUsMzI5LjUzOTEgUTEyNDAuMTI1LDMyOS41MzkxIDEyNDAuMTI1LDMzMi4zNTE2IFogTTEyNDAuMTI1LDMyMy4xNjQxIFExMjQwLjEyNSwzMjMuMTY0MSAxMjQwLjEyNSwzMjUuOTc2NiBMMTI0MS44NzUsMzI1Ljk3NjYgUTEyNDEuODc1LDMyNS45NzY2IDEyNDEuODc1LDMyMy4xNjQxIEwxMjQwLjEyNSwzMjMuMTY0MSBaIE0xMjM1Ljg3NSwzMjMuODUxNiBMMTI0MC44MTI1LDMyMy44NTE2IEwxMjQwLjgxMjUsMzIyLjEwMTYgTDEyMzUuODc1LDMyMi4xMDE2IEwxMjM1Ljg3NSwzMjMuODUxNiBaICIgZmlsbD0iIzAwMDAwMCIvPjx0ZXh0IGZpbGw9IiMwMDAwMDAiIGZvbnQtZmFtaWx5PSJzYW5zLXNlcmlmIiBmb250LXNpemU9IjEyIiBmb250LXN0eWxlPSJpdGFsaWMiIGxlbmd0aEFkanVzdD0ic3BhY2luZyIgdGV4dExlbmd0aD0iMTA4IiB4PSIxMjU2Ljc1IiB5PSIzMjQuODQzOCI+JiMxNzE7VXNlck1hbmFnZW1lbnQmIzE4Nzs8L3RleHQ+PHRleHQgZmlsbD0iIzAwMDAwMCIgZm9udC1mYW1pbHk9InNhbnMtc2VyaWYiIGZvbnQtc2l6ZT0iMTQiIGxlbmd0aEFkanVzdD0ic3BhY2luZyIgdGV4dExlbmd0aD0iNzciIHg9IjEyNzIuMjUiIHk9IjMzOS41NzgxIj5VdGlsaXNhdGV1cjwvdGV4dD48bGluZSBzdHlsZT0ic3Ryb2tlOiMxODE4MTg7c3Ryb2tlLXdpZHRoOjAuNTsiIHgxPSIxMDYwIiB4Mj0iMTUyOSIgeTE9IjM0Ni4zMjgxIiB5Mj0iMzQ2LjMyODEiLz48cmVjdCBmaWxsPSJub25lIiBoZWlnaHQ9IjYiIHN0eWxlPSJzdHJva2U6I0M4MjkzMDtzdHJva2Utd2lkdGg6MS4wOyIgd2lkdGg9IjYiIHg9IjEwNjciIHk9IjM1Ni4zMjAzIi8+PHRleHQgZmlsbD0iIzAwMDAwMCIgZm9udC1mYW1pbHk9InNhbnMtc2VyaWYiIGZvbnQtc2l6ZT0iMTQiIGxlbmd0aEFkanVzdD0ic3BhY2luZyIgdGV4dExlbmd0aD0iNzAiIHg9IjEwNzkiIHk9IjM2My41NjI1Ij5pZDogc3RyaW5nPC90ZXh0PjxyZWN0IGZpbGw9Im5vbmUiIGhlaWdodD0iNiIgc3R5bGU9InN0cm9rZTojQzgyOTMwO3N0cm9rZS13aWR0aDoxLjA7IiB3aWR0aD0iNiIgeD0iMTA2NyIgeT0iMzcxLjMwNDciLz48dGV4dCBmaWxsPSIjMDAwMDAwIiBmb250LWZhbWlseT0ic2Fucy1zZXJpZiIgZm9udC1zaXplPSIxNCIgbGVuZ3RoQWRqdXN0PSJzcGFjaW5nIiB0ZXh0TGVuZ3RoPSI5MiIgeD0iMTA3OSIgeT0iMzc4LjU0NjkiPmVtYWlsOiBzdHJpbmc8L3RleHQ+PHJlY3QgZmlsbD0ibm9uZSIgaGVpZ2h0PSI2IiBzdHlsZT0ic3Ryb2tlOiNDODI5MzA7c3Ryb2tlLXdpZHRoOjEuMDsiIHdpZHRoPSI2IiB4PSIxMDY3IiB5PSIzODYuMjg5MSIvPjx0ZXh0IGZpbGw9IiMwMDAwMDAiIGZvbnQtZmFtaWx5PSJzYW5zLXNlcmlmIiBmb250LXNpemU9IjE0IiBsZW5ndGhBZGp1c3Q9InNwYWNpbmciIHRleHRMZW5ndGg9IjEyNyIgeD0iMTA3OSIgeT0iMzkzLjUzMTMiPm1vdERlUGFzc2U6IHN0cmluZzwvdGV4dD48cmVjdCBmaWxsPSJub25lIiBoZWlnaHQ9IjYiIHN0eWxlPSJzdHJva2U6I0M4MjkzMDtzdHJva2Utd2lkdGg6MS4wOyIgd2lkdGg9IjYiIHg9IjEwNjciIHk9IjQwMS4yNzM0Ii8+PHRleHQgZmlsbD0iIzAwMDAwMCIgZm9udC1mYW1pbHk9InNhbnMtc2VyaWYiIGZvbnQtc2l6ZT0iMTQiIGxlbmd0aEFkanVzdD0ic3BhY2luZyIgdGV4dExlbmd0aD0iMTc1IiB4PSIxMDc5IiB5PSI0MDguNTE1NiI+ZXF1aXBlczogc3RyaW5nW10gJyBNYXggMzwvdGV4dD48cmVjdCBmaWxsPSJub25lIiBoZWlnaHQ9IjYiIHN0eWxlPSJzdHJva2U6I0M4MjkzMDtzdHJva2Utd2lkdGg6MS4wOyIgd2lkdGg9IjYiIHg9IjEwNjciIHk9IjQxNi4yNTc4Ii8+PHRleHQgZmlsbD0iIzAwMDAwMCIgZm9udC1mYW1pbHk9InNhbnMtc2VyaWYiIGZvbnQtc2l6ZT0iMTQiIGxlbmd0aEFkanVzdD0ic3BhY2luZyIgdGV4dExlbmd0aD0iNDAzIiB4PSIxMDc5IiB5PSI0MjMuNSI+cGFyYW1ldHJlc05vdGlmaWNhdGlvbjogeyBlbWFpbDogYm9vbGVhbiwgcHVzaDogYm9vbGVhbiB9PC90ZXh0PjxyZWN0IGZpbGw9Im5vbmUiIGhlaWdodD0iNiIgc3R5bGU9InN0cm9rZTojQzgyOTMwO3N0cm9rZS13aWR0aDoxLjA7IiB3aWR0aD0iNiIgeD0iMTA2NyIgeT0iNDMxLjI0MjIiLz48dGV4dCBmaWxsPSIjMDAwMDAwIiBmb250LWZhbWlseT0ic2Fucy1zZXJpZiIgZm9udC1zaXplPSIxNCIgbGVuZ3RoQWRqdXN0PSJzcGFjaW5nIiB0ZXh0TGVuZ3RoPSI0NDUiIHg9IjEwNzkiIHk9IjQzOC40ODQ0Ij5jb250ZW51UHJlZmVyZTogc3RyaW5nW10gJyBlLmcuLCBbImFjdHVhbGl0JiMyMzM7cyIsICJzdGF0aXN0aXF1ZXMiXTwvdGV4dD48cmVjdCBmaWxsPSJub25lIiBoZWlnaHQ9IjYiIHN0eWxlPSJzdHJva2U6I0M4MjkzMDtzdHJva2Utd2lkdGg6MS4wOyIgd2lkdGg9IjYiIHg9IjEwNjciIHk9IjQ0Ni4yMjY2Ii8+PHRleHQgZmlsbD0iIzAwMDAwMCIgZm9udC1mYW1pbHk9InNhbnMtc2VyaWYiIGZvbnQtc2l6ZT0iMTQiIGxlbmd0aEFkanVzdD0ic3BhY2luZyIgdGV4dExlbmd0aD0iMTI2IiB4PSIxMDc5IiB5PSI0NTMuNDY4OCI+ZGF0ZUNyZWF0aW9uOiBEYXRlPC90ZXh0PjxsaW5lIHN0eWxlPSJzdHJva2U6IzE4MTgxODtzdHJva2Utd2lkdGg6MC41OyIgeDE9IjEwNjAiIHgyPSIxNTI5IiB5MT0iNDU5LjIxODgiIHkyPSI0NTkuMjE4OCIvPjwvZz48IS0tY2xhc3MgRXF1aXBlLS0+PGcgaWQ9ImVsZW1fRXF1aXBlIj48cmVjdCBjb2RlTGluZT0iMzAiIGZpbGw9IiNBREQ4RTYiIGhlaWdodD0iMTEzLjc2NTYiIGlkPSJFcXVpcGUiIHJ4PSIyLjUiIHJ5PSIyLjUiIHN0eWxlPSJzdHJva2U6IzE4MTgxODtzdHJva2Utd2lkdGg6MC41OyIgd2lkdGg9IjM5MCIgeD0iMTM4OC41IiB5PSI1NzIuNSIvPjxlbGxpcHNlIGN4PSIxNTI3LjI1IiBjeT0iNTkxLjQxNDEiIGZpbGw9IiNBREQxQjIiIHJ4PSIxMSIgcnk9IjExIiBzdHlsZT0ic3Ryb2tlOiMxODE4MTg7c3Ryb2tlLXdpZHRoOjEuMDsiLz48cGF0aCBkPSJNMTUyNC44NzUsNTk1LjY2NDEgTDE1MjQuODc1LDU5Ny40MTQxIEwxNTI5LjgxMjUsNTk3LjQxNDEgTDE1MjkuODEyNSw1OTUuNjY0MSBMMTUyNC44NzUsNTk1LjY2NDEgWiBNMTUyNS41NjI1LDU5Ni4zNTE2IFExNTI1LjU2MjUsNTk2LjM1MTYgMTUyNS41NjI1LDU4Ny4xNjQxIEwxNTIzLjgxMjUsNTg3LjE2NDEgUTE1MjMuODEyNSw1ODcuMTY0MSAxNTIzLjgxMjUsNTk2LjM1MTYgTDE1MjUuNTYyNSw1OTYuMzUxNiBaIE0xNTI5LjEyNSw1OTYuMzUxNiBMMTUzMC44NzUsNTk2LjM1MTYgUTE1MzAuODc1LDU5Ni4zNTE2IDE1MzAuODc1LDU5My41MzkxIEwxNTI5LjEyNSw1OTMuNTM5MSBRMTUyOS4xMjUsNTkzLjUzOTEgMTUyOS4xMjUsNTk2LjM1MTYgWiBNMTUyOS4xMjUsNTg3LjE2NDEgUTE1MjkuMTI1LDU4Ny4xNjQxIDE1MjkuMTI1LDU4OS45NzY2IEwxNTMwLjg3NSw1ODkuOTc2NiBRMTUzMC44NzUsNTg5Ljk3NjYgMTUzMC44NzUsNTg3LjE2NDEgTDE1MjkuMTI1LDU4Ny4xNjQxIFogTTE1MjQuODc1LDU4Ny44NTE2IEwxNTI5LjgxMjUsNTg3Ljg1MTYgTDE1MjkuODEyNSw1ODYuMTAxNiBMMTUyNC44NzUsNTg2LjEwMTYgTDE1MjQuODc1LDU4Ny44NTE2IFogIiBmaWxsPSIjMDAwMDAwIi8+PHRleHQgZmlsbD0iIzAwMDAwMCIgZm9udC1mYW1pbHk9InNhbnMtc2VyaWYiIGZvbnQtc2l6ZT0iMTIiIGZvbnQtc3R5bGU9Iml0YWxpYyIgbGVuZ3RoQWRqdXN0PSJzcGFjaW5nIiB0ZXh0TGVuZ3RoPSIxMDgiIHg9IjE1NDUuNzUiIHk9IjU4OC44NDM4Ij4mIzE3MTtVc2VyTWFuYWdlbWVudCYjMTg3OzwvdGV4dD48dGV4dCBmaWxsPSIjMDAwMDAwIiBmb250LWZhbWlseT0ic2Fucy1zZXJpZiIgZm9udC1zaXplPSIxNCIgbGVuZ3RoQWRqdXN0PSJzcGFjaW5nIiB0ZXh0TGVuZ3RoPSI0MiIgeD0iMTU3OC43NSIgeT0iNjAzLjU3ODEiPkVxdWlwZTwvdGV4dD48bGluZSBzdHlsZT0ic3Ryb2tlOiMxODE4MTg7c3Ryb2tlLXdpZHRoOjAuNTsiIHgxPSIxMzg5LjUiIHgyPSIxNzc3LjUiIHkxPSI2MTAuMzI4MSIgeTI9IjYxMC4zMjgxIi8+PHJlY3QgZmlsbD0ibm9uZSIgaGVpZ2h0PSI2IiBzdHlsZT0ic3Ryb2tlOiNDODI5MzA7c3Ryb2tlLXdpZHRoOjEuMDsiIHdpZHRoPSI2IiB4PSIxMzk2LjUiIHk9IjYyMC4zMjAzIi8+PHRleHQgZmlsbD0iIzAwMDAwMCIgZm9udC1mYW1pbHk9InNhbnMtc2VyaWYiIGZvbnQtc2l6ZT0iMTQiIGxlbmd0aEFkanVzdD0ic3BhY2luZyIgdGV4dExlbmd0aD0iNzAiIHg9IjE0MDguNSIgeT0iNjI3LjU2MjUiPmlkOiBzdHJpbmc8L3RleHQ+PHJlY3QgZmlsbD0ibm9uZSIgaGVpZ2h0PSI2IiBzdHlsZT0ic3Ryb2tlOiNDODI5MzA7c3Ryb2tlLXdpZHRoOjEuMDsiIHdpZHRoPSI2IiB4PSIxMzk2LjUiIHk9IjYzNS4zMDQ3Ii8+PHRleHQgZmlsbD0iIzAwMDAwMCIgZm9udC1mYW1pbHk9InNhbnMtc2VyaWYiIGZvbnQtc2l6ZT0iMTQiIGxlbmd0aEFkanVzdD0ic3BhY2luZyIgdGV4dExlbmd0aD0iNzgiIHg9IjE0MDguNSIgeT0iNjQyLjU0NjkiPm5vbTogc3RyaW5nPC90ZXh0PjxyZWN0IGZpbGw9Im5vbmUiIGhlaWdodD0iNiIgc3R5bGU9InN0cm9rZTojQzgyOTMwO3N0cm9rZS13aWR0aDoxLjA7IiB3aWR0aD0iNiIgeD0iMTM5Ni41IiB5PSI2NTAuMjg5MSIvPjx0ZXh0IGZpbGw9IiMwMDAwMDAiIGZvbnQtZmFtaWx5PSJzYW5zLXNlcmlmIiBmb250LXNpemU9IjE0IiBsZW5ndGhBZGp1c3Q9InNwYWNpbmciIHRleHRMZW5ndGg9IjE1NCIgeD0iMTQwOC41IiB5PSI2NTcuNTMxMyI+Y2F0ZWdvcmllU3BvcnQ6IHN0cmluZzwvdGV4dD48cmVjdCBmaWxsPSJub25lIiBoZWlnaHQ9IjYiIHN0eWxlPSJzdHJva2U6I0M4MjkzMDtzdHJva2Utd2lkdGg6MS4wOyIgd2lkdGg9IjYiIHg9IjEzOTYuNSIgeT0iNjY1LjI3MzQiLz48dGV4dCBmaWxsPSIjMDAwMDAwIiBmb250LWZhbWlseT0ic2Fucy1zZXJpZiIgZm9udC1zaXplPSIxNCIgbGVuZ3RoQWRqdXN0PSJzcGFjaW5nIiB0ZXh0TGVuZ3RoPSIzNjQiIHg9IjE0MDguNSIgeT0iNjcyLjUxNTYiPnBhcnRlbmFpcmVJZDogc3RyaW5nICcgT3B0aW9uYWwgcmVmZXJlbmNlIHRvIFBhcnRuZXI8L3RleHQ+PGxpbmUgc3R5bGU9InN0cm9rZTojMTgxODE4O3N0cm9rZS13aWR0aDowLjU7IiB4MT0iMTM4OS41IiB4Mj0iMTc3Ny41IiB5MT0iNjc4LjI2NTYiIHkyPSI2NzguMjY1NiIvPjwvZz48IS0tY2xhc3MgUGF5bWVudC0tPjxnIGlkPSJlbGVtX1BheW1lbnQiPjxyZWN0IGNvZGVMaW5lPSI0MCIgZmlsbD0iIzkwRUU5MCIgaGVpZ2h0PSIxNDMuNzM0NCIgaWQ9IlBheW1lbnQiIHJ4PSIyLjUiIHJ5PSIyLjUiIHN0eWxlPSJzdHJva2U6IzE4MTgxODtzdHJva2Utd2lkdGg6MC41OyIgd2lkdGg9IjMwOCIgeD0iMTA0NS41IiB5PSI1NTcuNSIvPjxlbGxpcHNlIGN4PSIxMTU3LjI1IiBjeT0iNTc2LjQxNDEiIGZpbGw9IiNBREQxQjIiIHJ4PSIxMSIgcnk9IjExIiBzdHlsZT0ic3Ryb2tlOiMxODE4MTg7c3Ryb2tlLXdpZHRoOjEuMDsiLz48cGF0aCBkPSJNMTE1NC44NzUsNTgwLjY2NDEgTDExNTQuODc1LDU4Mi40MTQxIEwxMTU5LjgxMjUsNTgyLjQxNDEgTDExNTkuODEyNSw1ODAuNjY0MSBMMTE1NC44NzUsNTgwLjY2NDEgWiBNMTE1NS41NjI1LDU4MS4zNTE2IFExMTU1LjU2MjUsNTgxLjM1MTYgMTE1NS41NjI1LDU3Mi4xNjQxIEwxMTUzLjgxMjUsNTcyLjE2NDEgUTExNTMuODEyNSw1NzIuMTY0MSAxMTUzLjgxMjUsNTgxLjM1MTYgTDExNTUuNTYyNSw1ODEuMzUxNiBaIE0xMTU5LjEyNSw1ODEuMzUxNiBMMTE2MC44NzUsNTgxLjM1MTYgUTExNjAuODc1LDU4MS4zNTE2IDExNjAuODc1LDU3OC41MzkxIEwxMTU5LjEyNSw1NzguNTM5MSBRMTE1OS4xMjUsNTc4LjUzOTEgMTE1OS4xMjUsNTgxLjM1MTYgWiBNMTE1OS4xMjUsNTcyLjE2NDEgUTExNTkuMTI1LDU3Mi4xNjQxIDExNTkuMTI1LDU3NC45NzY2IEwxMTYwLjg3NSw1NzQuOTc2NiBRMTE2MC44NzUsNTc0Ljk3NjYgMTE2MC44NzUsNTcyLjE2NDEgTDExNTkuMTI1LDU3Mi4xNjQxIFogTTExNTQuODc1LDU3Mi44NTE2IEwxMTU5LjgxMjUsNTcyLjg1MTYgTDExNTkuODEyNSw1NzEuMTAxNiBMMTE1NC44NzUsNTcxLjEwMTYgTDExNTQuODc1LDU3Mi44NTE2IFogIiBmaWxsPSIjMDAwMDAwIi8+PHRleHQgZmlsbD0iIzAwMDAwMCIgZm9udC1mYW1pbHk9InNhbnMtc2VyaWYiIGZvbnQtc2l6ZT0iMTIiIGZvbnQtc3R5bGU9Iml0YWxpYyIgbGVuZ3RoQWRqdXN0PSJzcGFjaW5nIiB0ZXh0TGVuZ3RoPSI4MCIgeD0iMTE3NS43NSIgeT0iNTczLjg0MzgiPiYjMTcxO0Fib25uZW1lbnQmIzE4Nzs8L3RleHQ+PHRleHQgZmlsbD0iIzAwMDAwMCIgZm9udC1mYW1pbHk9InNhbnMtc2VyaWYiIGZvbnQtc2l6ZT0iMTQiIGxlbmd0aEFkanVzdD0ic3BhY2luZyIgdGV4dExlbmd0aD0iNTAiIHg9IjExOTAuNzUiIHk9IjU4OC41NzgxIj5QYXltZW50PC90ZXh0PjxsaW5lIHN0eWxlPSJzdHJva2U6IzE4MTgxODtzdHJva2Utd2lkdGg6MC41OyIgeDE9IjEwNDYuNSIgeDI9IjEzNTIuNSIgeTE9IjU5NS4zMjgxIiB5Mj0iNTk1LjMyODEiLz48cmVjdCBmaWxsPSJub25lIiBoZWlnaHQ9IjYiIHN0eWxlPSJzdHJva2U6I0M4MjkzMDtzdHJva2Utd2lkdGg6MS4wOyIgd2lkdGg9IjYiIHg9IjEwNTMuNSIgeT0iNjA1LjMyMDMiLz48dGV4dCBmaWxsPSIjMDAwMDAwIiBmb250LWZhbWlseT0ic2Fucy1zZXJpZiIgZm9udC1zaXplPSIxNCIgbGVuZ3RoQWRqdXN0PSJzcGFjaW5nIiB0ZXh0TGVuZ3RoPSI3MCIgeD0iMTA2NS41IiB5PSI2MTIuNTYyNSI+aWQ6IHN0cmluZzwvdGV4dD48cmVjdCBmaWxsPSJub25lIiBoZWlnaHQ9IjYiIHN0eWxlPSJzdHJva2U6I0M4MjkzMDtzdHJva2Utd2lkdGg6MS4wOyIgd2lkdGg9IjYiIHg9IjEwNTMuNSIgeT0iNjIwLjMwNDciLz48dGV4dCBmaWxsPSIjMDAwMDAwIiBmb250LWZhbWlseT0ic2Fucy1zZXJpZiIgZm9udC1zaXplPSIxNCIgbGVuZ3RoQWRqdXN0PSJzcGFjaW5nIiB0ZXh0TGVuZ3RoPSIxNDciIHg9IjEwNjUuNSIgeT0iNjI3LjU0NjkiPnV0aWxpc2F0ZXVySWQ6IHN0cmluZzwvdGV4dD48cmVjdCBmaWxsPSJub25lIiBoZWlnaHQ9IjYiIHN0eWxlPSJzdHJva2U6I0M4MjkzMDtzdHJva2Utd2lkdGg6MS4wOyIgd2lkdGg9IjYiIHg9IjEwNTMuNSIgeT0iNjM1LjI4OTEiLz48dGV4dCBmaWxsPSIjMDAwMDAwIiBmb250LWZhbWlseT0ic2Fucy1zZXJpZiIgZm9udC1zaXplPSIxNCIgbGVuZ3RoQWRqdXN0PSJzcGFjaW5nIiB0ZXh0TGVuZ3RoPSIxNDEiIHg9IjEwNjUuNSIgeT0iNjQyLjUzMTMiPmFib25uZW1lbnRJZDogc3RyaW5nPC90ZXh0PjxyZWN0IGZpbGw9Im5vbmUiIGhlaWdodD0iNiIgc3R5bGU9InN0cm9rZTojQzgyOTMwO3N0cm9rZS13aWR0aDoxLjA7IiB3aWR0aD0iNiIgeD0iMTA1My41IiB5PSI2NTAuMjczNCIvPjx0ZXh0IGZpbGw9IiMwMDAwMDAiIGZvbnQtZmFtaWx5PSJzYW5zLXNlcmlmIiBmb250LXNpemU9IjE0IiBsZW5ndGhBZGp1c3Q9InNwYWNpbmciIHRleHRMZW5ndGg9IjIyMCIgeD0iMTA2NS41IiB5PSI2NTcuNTE1NiI+bW9udGFudDogZmxvYXQgJyBQYXltZW50IGFtb3VudDwvdGV4dD48cmVjdCBmaWxsPSJub25lIiBoZWlnaHQ9IjYiIHN0eWxlPSJzdHJva2U6I0M4MjkzMDtzdHJva2Utd2lkdGg6MS4wOyIgd2lkdGg9IjYiIHg9IjEwNTMuNSIgeT0iNjY1LjI1NzgiLz48dGV4dCBmaWxsPSIjMDAwMDAwIiBmb250LWZhbWlseT0ic2Fucy1zZXJpZiIgZm9udC1zaXplPSIxNCIgbGVuZ3RoQWRqdXN0PSJzcGFjaW5nIiB0ZXh0TGVuZ3RoPSI3MCIgeD0iMTA2NS41IiB5PSI2NzIuNSI+ZGF0ZTogRGF0ZTwvdGV4dD48cmVjdCBmaWxsPSJub25lIiBoZWlnaHQ9IjYiIHN0eWxlPSJzdHJva2U6I0M4MjkzMDtzdHJva2Utd2lkdGg6MS4wOyIgd2lkdGg9IjYiIHg9IjEwNTMuNSIgeT0iNjgwLjI0MjIiLz48dGV4dCBmaWxsPSIjMDAwMDAwIiBmb250LWZhbWlseT0ic2Fucy1zZXJpZiIgZm9udC1zaXplPSIxNCIgbGVuZ3RoQWRqdXN0PSJzcGFjaW5nIiB0ZXh0TGVuZ3RoPSIyODIiIHg9IjEwNjUuNSIgeT0iNjg3LjQ4NDQiPm1ldGhvZGU6ICdDYXJ0ZScgfCAnUGF5cGFsJyB8ICdWaXJlbWVudCc8L3RleHQ+PGxpbmUgc3R5bGU9InN0cm9rZTojMTgxODE4O3N0cm9rZS13aWR0aDowLjU7IiB4MT0iMTA0Ni41IiB4Mj0iMTM1Mi41IiB5MT0iNjkzLjIzNDQiIHkyPSI2OTMuMjM0NCIvPjwvZz48IS0tY2xhc3MgQWJvbm5lbWVudC0tPjxnIGlkPSJlbGVtX0Fib25uZW1lbnQiPjxyZWN0IGNvZGVMaW5lPSI0OSIgZmlsbD0iIzkwRUU5MCIgaGVpZ2h0PSIxMjguNzUiIGlkPSJBYm9ubmVtZW50IiByeD0iMi41IiByeT0iMi41IiBzdHlsZT0ic3Ryb2tlOiMxODE4MTg7c3Ryb2tlLXdpZHRoOjAuNTsiIHdpZHRoPSIyMTciIHg9IjEwOTEiIHk9Ijc2OSIvPjxlbGxpcHNlIGN4PSIxMTU3LjI1IiBjeT0iNzg3LjkxNDEiIGZpbGw9IiNBREQxQjIiIHJ4PSIxMSIgcnk9IjExIiBzdHlsZT0ic3Ryb2tlOiMxODE4MTg7c3Ryb2tlLXdpZHRoOjEuMDsiLz48cGF0aCBkPSJNMTE1NC44NzUsNzkyLjE2NDEgTDExNTQuODc1LDc5My45MTQxIEwxMTU5LjgxMjUsNzkzLjkxNDEgTDExNTkuODEyNSw3OTIuMTY0MSBMMTE1NC44NzUsNzkyLjE2NDEgWiBNMTE1NS41NjI1LDc5Mi44NTE2IFExMTU1LjU2MjUsNzkyLjg1MTYgMTE1NS41NjI1LDc4My42NjQxIEwxMTUzLjgxMjUsNzgzLjY2NDEgUTExNTMuODEyNSw3ODMuNjY0MSAxMTUzLjgxMjUsNzkyLjg1MTYgTDExNTUuNTYyNSw3OTIuODUxNiBaIE0xMTU5LjEyNSw3OTIuODUxNiBMMTE2MC44NzUsNzkyLjg1MTYgUTExNjAuODc1LDc5Mi44NTE2IDExNjAuODc1LDc5MC4wMzkxIEwxMTU5LjEyNSw3OTAuMDM5MSBRMTE1OS4xMjUsNzkwLjAzOTEgMTE1OS4xMjUsNzkyLjg1MTYgWiBNMTE1OS4xMjUsNzgzLjY2NDEgUTExNTkuMTI1LDc4My42NjQxIDExNTkuMTI1LDc4Ni40NzY2IEwxMTYwLjg3NSw3ODYuNDc2NiBRMTE2MC44NzUsNzg2LjQ3NjYgMTE2MC44NzUsNzgzLjY2NDEgTDExNTkuMTI1LDc4My42NjQxIFogTTExNTQuODc1LDc4NC4zNTE2IEwxMTU5LjgxMjUsNzg0LjM1MTYgTDExNTkuODEyNSw3ODIuNjAxNiBMMTE1NC44NzUsNzgyLjYwMTYgTDExNTQuODc1LDc4NC4zNTE2IFogIiBmaWxsPSIjMDAwMDAwIi8+PHRleHQgZmlsbD0iIzAwMDAwMCIgZm9udC1mYW1pbHk9InNhbnMtc2VyaWYiIGZvbnQtc2l6ZT0iMTIiIGZvbnQtc3R5bGU9Iml0YWxpYyIgbGVuZ3RoQWRqdXN0PSJzcGFjaW5nIiB0ZXh0TGVuZ3RoPSI4MCIgeD0iMTE3NS43NSIgeT0iNzg1LjM0MzgiPiYjMTcxO0Fib25uZW1lbnQmIzE4Nzs8L3RleHQ+PHRleHQgZmlsbD0iIzAwMDAwMCIgZm9udC1mYW1pbHk9InNhbnMtc2VyaWYiIGZvbnQtc2l6ZT0iMTQiIGxlbmd0aEFkanVzdD0ic3BhY2luZyIgdGV4dExlbmd0aD0iNzEiIHg9IjExODAuMjUiIHk9IjgwMC4wNzgxIj5BYm9ubmVtZW50PC90ZXh0PjxsaW5lIHN0eWxlPSJzdHJva2U6IzE4MTgxODtzdHJva2Utd2lkdGg6MC41OyIgeDE9IjEwOTIiIHgyPSIxMzA3IiB5MT0iODA2LjgyODEiIHkyPSI4MDYuODI4MSIvPjxyZWN0IGZpbGw9Im5vbmUiIGhlaWdodD0iNiIgc3R5bGU9InN0cm9rZTojQzgyOTMwO3N0cm9rZS13aWR0aDoxLjA7IiB3aWR0aD0iNiIgeD0iMTA5OSIgeT0iODE2LjgyMDMiLz48dGV4dCBmaWxsPSIjMDAwMDAwIiBmb250LWZhbWlseT0ic2Fucy1zZXJpZiIgZm9udC1zaXplPSIxNCIgbGVuZ3RoQWRqdXN0PSJzcGFjaW5nIiB0ZXh0TGVuZ3RoPSI3MCIgeD0iMTExMSIgeT0iODI0LjA2MjUiPmlkOiBzdHJpbmc8L3RleHQ+PHJlY3QgZmlsbD0ibm9uZSIgaGVpZ2h0PSI2IiBzdHlsZT0ic3Ryb2tlOiNDODI5MzA7c3Ryb2tlLXdpZHRoOjEuMDsiIHdpZHRoPSI2IiB4PSIxMDk5IiB5PSI4MzEuODA0NyIvPjx0ZXh0IGZpbGw9IiMwMDAwMDAiIGZvbnQtZmFtaWx5PSJzYW5zLXNlcmlmIiBmb250LXNpemU9IjE0IiBsZW5ndGhBZGp1c3Q9InNwYWNpbmciIHRleHRMZW5ndGg9IjE0NyIgeD0iMTExMSIgeT0iODM5LjA0NjkiPnV0aWxpc2F0ZXVySWQ6IHN0cmluZzwvdGV4dD48cmVjdCBmaWxsPSJub25lIiBoZWlnaHQ9IjYiIHN0eWxlPSJzdHJva2U6I0M4MjkzMDtzdHJva2Utd2lkdGg6MS4wOyIgd2lkdGg9IjYiIHg9IjEwOTkiIHk9Ijg0Ni43ODkxIi8+PHRleHQgZmlsbD0iIzAwMDAwMCIgZm9udC1mYW1pbHk9InNhbnMtc2VyaWYiIGZvbnQtc2l6ZT0iMTQiIGxlbmd0aEFkanVzdD0ic3BhY2luZyIgdGV4dExlbmd0aD0iMTkxIiB4PSIxMTExIiB5PSI4NTQuMDMxMyI+bml2ZWF1OiAnQmFzaWMnIHwgJ1ByZW1pdW0nPC90ZXh0PjxyZWN0IGZpbGw9Im5vbmUiIGhlaWdodD0iNiIgc3R5bGU9InN0cm9rZTojQzgyOTMwO3N0cm9rZS13aWR0aDoxLjA7IiB3aWR0aD0iNiIgeD0iMTA5OSIgeT0iODYxLjc3MzQiLz48dGV4dCBmaWxsPSIjMDAwMDAwIiBmb250LWZhbWlseT0ic2Fucy1zZXJpZiIgZm9udC1zaXplPSIxNCIgbGVuZ3RoQWRqdXN0PSJzcGFjaW5nIiB0ZXh0TGVuZ3RoPSIxMDUiIHg9IjExMTEiIHk9Ijg2OS4wMTU2Ij5kYXRlRGVidXQ6IERhdGU8L3RleHQ+PHJlY3QgZmlsbD0ibm9uZSIgaGVpZ2h0PSI2IiBzdHlsZT0ic3Ryb2tlOiNDODI5MzA7c3Ryb2tlLXdpZHRoOjEuMDsiIHdpZHRoPSI2IiB4PSIxMDk5IiB5PSI4NzYuNzU3OCIvPjx0ZXh0IGZpbGw9IiMwMDAwMDAiIGZvbnQtZmFtaWx5PSJzYW5zLXNlcmlmIiBmb250LXNpemU9IjE0IiBsZW5ndGhBZGp1c3Q9InNwYWNpbmciIHRleHRMZW5ndGg9IjkxIiB4PSIxMTExIiB5PSI4ODQiPmRhdGVGaW46IERhdGU8L3RleHQ+PGxpbmUgc3R5bGU9InN0cm9rZTojMTgxODE4O3N0cm9rZS13aWR0aDowLjU7IiB4MT0iMTA5MiIgeDI9IjEzMDciIHkxPSI4ODkuNzUiIHkyPSI4ODkuNzUiLz48L2c+PCEtLWNsYXNzIEF2YW50YWdlLS0+PGcgaWQ9ImVsZW1fQXZhbnRhZ2UiPjxyZWN0IGNvZGVMaW5lPSI1NyIgZmlsbD0iIzkwRUU5MCIgaGVpZ2h0PSIxMTMuNzY1NiIgaWQ9IkF2YW50YWdlIiByeD0iMi41IiByeT0iMi41IiBzdHlsZT0ic3Ryb2tlOiMxODE4MTg7c3Ryb2tlLXdpZHRoOjAuNTsiIHdpZHRoPSIyOTMiIHg9IjEwNTMiIHk9Ijk1OCIvPjxlbGxpcHNlIGN4PSIxMTU3LjI1IiBjeT0iOTc2LjkxNDEiIGZpbGw9IiNBREQxQjIiIHJ4PSIxMSIgcnk9IjExIiBzdHlsZT0ic3Ryb2tlOiMxODE4MTg7c3Ryb2tlLXdpZHRoOjEuMDsiLz48cGF0aCBkPSJNMTE1NC44NzUsOTgxLjE2NDEgTDExNTQuODc1LDk4Mi45MTQxIEwxMTU5LjgxMjUsOTgyLjkxNDEgTDExNTkuODEyNSw5ODEuMTY0MSBMMTE1NC44NzUsOTgxLjE2NDEgWiBNMTE1NS41NjI1LDk4MS44NTE2IFExMTU1LjU2MjUsOTgxLjg1MTYgMTE1NS41NjI1LDk3Mi42NjQxIEwxMTUzLjgxMjUsOTcyLjY2NDEgUTExNTMuODEyNSw5NzIuNjY0MSAxMTUzLjgxMjUsOTgxLjg1MTYgTDExNTUuNTYyNSw5ODEuODUxNiBaIE0xMTU5LjEyNSw5ODEuODUxNiBMMTE2MC44NzUsOTgxLjg1MTYgUTExNjAuODc1LDk4MS44NTE2IDExNjAuODc1LDk3OS4wMzkxIEwxMTU5LjEyNSw5NzkuMDM5MSBRMTE1OS4xMjUsOTc5LjAzOTEgMTE1OS4xMjUsOTgxLjg1MTYgWiBNMTE1OS4xMjUsOTcyLjY2NDEgUTExNTkuMTI1LDk3Mi42NjQxIDExNTkuMTI1LDk3NS40NzY2IEwxMTYwLjg3NSw5NzUuNDc2NiBRMTE2MC44NzUsOTc1LjQ3NjYgMTE2MC44NzUsOTcyLjY2NDEgTDExNTkuMTI1LDk3Mi42NjQxIFogTTExNTQuODc1LDk3My4zNTE2IEwxMTU5LjgxMjUsOTczLjM1MTYgTDExNTkuODEyNSw5NzEuNjAxNiBMMTE1NC44NzUsOTcxLjYwMTYgTDExNTQuODc1LDk3My4zNTE2IFogIiBmaWxsPSIjMDAwMDAwIi8+PHRleHQgZmlsbD0iIzAwMDAwMCIgZm9udC1mYW1pbHk9InNhbnMtc2VyaWYiIGZvbnQtc2l6ZT0iMTIiIGZvbnQtc3R5bGU9Iml0YWxpYyIgbGVuZ3RoQWRqdXN0PSJzcGFjaW5nIiB0ZXh0TGVuZ3RoPSI4MCIgeD0iMTE3NS43NSIgeT0iOTc0LjM0MzgiPiYjMTcxO0Fib25uZW1lbnQmIzE4Nzs8L3RleHQ+PHRleHQgZmlsbD0iIzAwMDAwMCIgZm9udC1mYW1pbHk9InNhbnMtc2VyaWYiIGZvbnQtc2l6ZT0iMTQiIGxlbmd0aEFkanVzdD0ic3BhY2luZyIgdGV4dExlbmd0aD0iNTYiIHg9IjExODcuNzUiIHk9Ijk4OS4wNzgxIj5BdmFudGFnZTwvdGV4dD48bGluZSBzdHlsZT0ic3Ryb2tlOiMxODE4MTg7c3Ryb2tlLXdpZHRoOjAuNTsiIHgxPSIxMDU0IiB4Mj0iMTM0NSIgeTE9Ijk5NS44MjgxIiB5Mj0iOTk1LjgyODEiLz48cmVjdCBmaWxsPSJub25lIiBoZWlnaHQ9IjYiIHN0eWxlPSJzdHJva2U6I0M4MjkzMDtzdHJva2Utd2lkdGg6MS4wOyIgd2lkdGg9IjYiIHg9IjEwNjEiIHk9IjEwMDUuODIwMyIvPjx0ZXh0IGZpbGw9IiMwMDAwMDAiIGZvbnQtZmFtaWx5PSJzYW5zLXNlcmlmIiBmb250LXNpemU9IjE0IiBsZW5ndGhBZGp1c3Q9InNwYWNpbmciIHRleHRMZW5ndGg9IjcwIiB4PSIxMDczIiB5PSIxMDEzLjA2MjUiPmlkOiBzdHJpbmc8L3RleHQ+PHJlY3QgZmlsbD0ibm9uZSIgaGVpZ2h0PSI2IiBzdHlsZT0ic3Ryb2tlOiNDODI5MzA7c3Ryb2tlLXdpZHRoOjEuMDsiIHdpZHRoPSI2IiB4PSIxMDYxIiB5PSIxMDIwLjgwNDciLz48dGV4dCBmaWxsPSIjMDAwMDAwIiBmb250LWZhbWlseT0ic2Fucy1zZXJpZiIgZm9udC1zaXplPSIxNCIgbGVuZ3RoQWRqdXN0PSJzcGFjaW5nIiB0ZXh0TGVuZ3RoPSIxNDEiIHg9IjEwNzMiIHk9IjEwMjguMDQ2OSI+YWJvbm5lbWVudElkOiBzdHJpbmc8L3RleHQ+PHJlY3QgZmlsbD0ibm9uZSIgaGVpZ2h0PSI2IiBzdHlsZT0ic3Ryb2tlOiNDODI5MzA7c3Ryb2tlLXdpZHRoOjEuMDsiIHdpZHRoPSI2IiB4PSIxMDYxIiB5PSIxMDM1Ljc4OTEiLz48dGV4dCBmaWxsPSIjMDAwMDAwIiBmb250LWZhbWlseT0ic2Fucy1zZXJpZiIgZm9udC1zaXplPSIxNCIgbGVuZ3RoQWRqdXN0PSJzcGFjaW5nIiB0ZXh0TGVuZ3RoPSIyNjciIHg9IjEwNzMiIHk9IjEwNDMuMDMxMyI+dHlwZTogJ0V2ZW5lbWVudFZJUCcgfCAnQWNjZXNBbnRpY2lwZSc8L3RleHQ+PHJlY3QgZmlsbD0ibm9uZSIgaGVpZ2h0PSI2IiBzdHlsZT0ic3Ryb2tlOiNDODI5MzA7c3Ryb2tlLXdpZHRoOjEuMDsiIHdpZHRoPSI2IiB4PSIxMDYxIiB5PSIxMDUwLjc3MzQiLz48dGV4dCBmaWxsPSIjMDAwMDAwIiBmb250LWZhbWlseT0ic2Fucy1zZXJpZiIgZm9udC1zaXplPSIxNCIgbGVuZ3RoQWRqdXN0PSJzcGFjaW5nIiB0ZXh0TGVuZ3RoPSIxMzMiIHg9IjEwNzMiIHk9IjEwNTguMDE1NiI+ZGVzY3JpcHRpb246IHN0cmluZzwvdGV4dD48bGluZSBzdHlsZT0ic3Ryb2tlOiMxODE4MTg7c3Ryb2tlLXdpZHRoOjAuNTsiIHgxPSIxMDU0IiB4Mj0iMTM0NSIgeTE9IjEwNjMuNzY1NiIgeTI9IjEwNjMuNzY1NiIvPjwvZz48IS0tY2xhc3MgQWN0dWFsaXRlLS0+PGcgaWQ9ImVsZW1fQWN0dWFsaXRlIj48cmVjdCBjb2RlTGluZT0iODIiIGZpbGw9IiNGRkZGRTAiIGhlaWdodD0iMjAzLjY3MTkiIGlkPSJBY3R1YWxpdGUiIHJ4PSIyLjUiIHJ5PSIyLjUiIHN0eWxlPSJzdHJva2U6IzE4MTgxODtzdHJva2Utd2lkdGg6MC41OyIgd2lkdGg9IjI5OSIgeD0iNzI1IiB5PSIyODYiLz48ZWxsaXBzZSBjeD0iODA0LjI1IiBjeT0iMzA0LjkxNDEiIGZpbGw9IiNBREQxQjIiIHJ4PSIxMSIgcnk9IjExIiBzdHlsZT0ic3Ryb2tlOiMxODE4MTg7c3Ryb2tlLXdpZHRoOjEuMDsiLz48cGF0aCBkPSJNODAxLjg3NSwzMDkuMTY0MSBMODAxLjg3NSwzMTAuOTE0MSBMODA2LjgxMjUsMzEwLjkxNDEgTDgwNi44MTI1LDMwOS4xNjQxIEw4MDEuODc1LDMwOS4xNjQxIFogTTgwMi41NjI1LDMwOS44NTE2IFE4MDIuNTYyNSwzMDkuODUxNiA4MDIuNTYyNSwzMDAuNjY0MSBMODAwLjgxMjUsMzAwLjY2NDEgUTgwMC44MTI1LDMwMC42NjQxIDgwMC44MTI1LDMwOS44NTE2IEw4MDIuNTYyNSwzMDkuODUxNiBaIE04MDYuMTI1LDMwOS44NTE2IEw4MDcuODc1LDMwOS44NTE2IFE4MDcuODc1LDMwOS44NTE2IDgwNy44NzUsMzA3LjAzOTEgTDgwNi4xMjUsMzA3LjAzOTEgUTgwNi4xMjUsMzA3LjAzOTEgODA2LjEyNSwzMDkuODUxNiBaIE04MDYuMTI1LDMwMC42NjQxIFE4MDYuMTI1LDMwMC42NjQxIDgwNi4xMjUsMzAzLjQ3NjYgTDgwNy44NzUsMzAzLjQ3NjYgUTgwNy44NzUsMzAzLjQ3NjYgODA3Ljg3NSwzMDAuNjY0MSBMODA2LjEyNSwzMDAuNjY0MSBaIE04MDEuODc1LDMwMS4zNTE2IEw4MDYuODEyNSwzMDEuMzUxNiBMODA2LjgxMjUsMjk5LjYwMTYgTDgwMS44NzUsMjk5LjYwMTYgTDgwMS44NzUsMzAxLjM1MTYgWiAiIGZpbGw9IiMwMDAwMDAiLz48dGV4dCBmaWxsPSIjMDAwMDAwIiBmb250LWZhbWlseT0ic2Fucy1zZXJpZiIgZm9udC1zaXplPSIxMiIgZm9udC1zdHlsZT0iaXRhbGljIiBsZW5ndGhBZGp1c3Q9InNwYWNpbmciIHRleHRMZW5ndGg9IjEzNiIgeD0iODIyLjc1IiB5PSIzMDIuMzQzOCI+JiMxNzE7Q29udGVudE5vdGlmaWNhdGlvbiYjMTg3OzwvdGV4dD48dGV4dCBmaWxsPSIjMDAwMDAwIiBmb250LWZhbWlseT0ic2Fucy1zZXJpZiIgZm9udC1zaXplPSIxNCIgbGVuZ3RoQWRqdXN0PSJzcGFjaW5nIiB0ZXh0TGVuZ3RoPSI2MyIgeD0iODU5LjI1IiB5PSIzMTcuMDc4MSI+QWN0dWFsaXRlPC90ZXh0PjxsaW5lIHN0eWxlPSJzdHJva2U6IzE4MTgxODtzdHJva2Utd2lkdGg6MC41OyIgeDE9IjcyNiIgeDI9IjEwMjMiIHkxPSIzMjMuODI4MSIgeTI9IjMyMy44MjgxIi8+PHJlY3QgZmlsbD0ibm9uZSIgaGVpZ2h0PSI2IiBzdHlsZT0ic3Ryb2tlOiNDODI5MzA7c3Ryb2tlLXdpZHRoOjEuMDsiIHdpZHRoPSI2IiB4PSI3MzMiIHk9IjMzMy44MjAzIi8+PHRleHQgZmlsbD0iIzAwMDAwMCIgZm9udC1mYW1pbHk9InNhbnMtc2VyaWYiIGZvbnQtc2l6ZT0iMTQiIGxlbmd0aEFkanVzdD0ic3BhY2luZyIgdGV4dExlbmd0aD0iNzAiIHg9Ijc0NSIgeT0iMzQxLjA2MjUiPmlkOiBzdHJpbmc8L3RleHQ+PHJlY3QgZmlsbD0ibm9uZSIgaGVpZ2h0PSI2IiBzdHlsZT0ic3Ryb2tlOiNDODI5MzA7c3Ryb2tlLXdpZHRoOjEuMDsiIHdpZHRoPSI2IiB4PSI3MzMiIHk9IjM0OC44MDQ3Ii8+PHRleHQgZmlsbD0iIzAwMDAwMCIgZm9udC1mYW1pbHk9InNhbnMtc2VyaWYiIGZvbnQtc2l6ZT0iMTQiIGxlbmd0aEFkanVzdD0ic3BhY2luZyIgdGV4dExlbmd0aD0iMTEyIiB4PSI3NDUiIHk9IjM1Ni4wNDY5Ij5lcXVpcGVJZDogc3RyaW5nPC90ZXh0PjxyZWN0IGZpbGw9Im5vbmUiIGhlaWdodD0iNiIgc3R5bGU9InN0cm9rZTojQzgyOTMwO3N0cm9rZS13aWR0aDoxLjA7IiB3aWR0aD0iNiIgeD0iNzMzIiB5PSIzNjMuNzg5MSIvPjx0ZXh0IGZpbGw9IiMwMDAwMDAiIGZvbnQtZmFtaWx5PSJzYW5zLXNlcmlmIiBmb250LXNpemU9IjE0IiBsZW5ndGhBZGp1c3Q9InNwYWNpbmciIHRleHRMZW5ndGg9IjkxIiB4PSI3NDUiIHk9IjM3MS4wMzEzIj50aXRyZTogc3RyaW5nPC90ZXh0PjxyZWN0IGZpbGw9Im5vbmUiIGhlaWdodD0iNiIgc3R5bGU9InN0cm9rZTojQzgyOTMwO3N0cm9rZS13aWR0aDoxLjA7IiB3aWR0aD0iNiIgeD0iNzMzIiB5PSIzNzguNzczNCIvPjx0ZXh0IGZpbGw9IiMwMDAwMDAiIGZvbnQtZmFtaWx5PSJzYW5zLXNlcmlmIiBmb250LXNpemU9IjE0IiBsZW5ndGhBZGp1c3Q9InNwYWNpbmciIHRleHRMZW5ndGg9IjEwNSIgeD0iNzQ1IiB5PSIzODYuMDE1NiI+Y29udGVudTogc3RyaW5nPC90ZXh0PjxyZWN0IGZpbGw9Im5vbmUiIGhlaWdodD0iNiIgc3R5bGU9InN0cm9rZTojQzgyOTMwO3N0cm9rZS13aWR0aDoxLjA7IiB3aWR0aD0iNiIgeD0iNzMzIiB5PSIzOTMuNzU3OCIvPjx0ZXh0IGZpbGw9IiMwMDAwMDAiIGZvbnQtZmFtaWx5PSJzYW5zLXNlcmlmIiBmb250LXNpemU9IjE0IiBsZW5ndGhBZGp1c3Q9InNwYWNpbmciIHRleHRMZW5ndGg9IjI2MiIgeD0iNzQ1IiB5PSI0MDEiPm5pdmVhdUFib25uZW1lbnQ6ICdCYXNpYycgfCAnUHJlbWl1bSc8L3RleHQ+PHJlY3QgZmlsbD0ibm9uZSIgaGVpZ2h0PSI2IiBzdHlsZT0ic3Ryb2tlOiNDODI5MzA7c3Ryb2tlLXdpZHRoOjEuMDsiIHdpZHRoPSI2IiB4PSI3MzMiIHk9IjQwOC43NDIyIi8+PHRleHQgZmlsbD0iIzAwMDAwMCIgZm9udC1mYW1pbHk9InNhbnMtc2VyaWYiIGZvbnQtc2l6ZT0iMTQiIGxlbmd0aEFkanVzdD0ic3BhY2luZyIgdGV4dExlbmd0aD0iNzAiIHg9Ijc0NSIgeT0iNDE1Ljk4NDQiPmRhdGU6IERhdGU8L3RleHQ+PHJlY3QgZmlsbD0ibm9uZSIgaGVpZ2h0PSI2IiBzdHlsZT0ic3Ryb2tlOiNDODI5MzA7c3Ryb2tlLXdpZHRoOjEuMDsiIHdpZHRoPSI2IiB4PSI3MzMiIHk9IjQyMy43MjY2Ii8+PHRleHQgZmlsbD0iIzAwMDAwMCIgZm9udC1mYW1pbHk9InNhbnMtc2VyaWYiIGZvbnQtc2l6ZT0iMTQiIGxlbmd0aEFkanVzdD0ic3BhY2luZyIgdGV4dExlbmd0aD0iMTc1IiB4PSI3NDUiIHk9IjQzMC45Njg4Ij50eXBlOiAnQXJ0aWNsZScgfCAnVmlkZW8nPC90ZXh0PjxyZWN0IGZpbGw9Im5vbmUiIGhlaWdodD0iNiIgc3R5bGU9InN0cm9rZTojQzgyOTMwO3N0cm9rZS13aWR0aDoxLjA7IiB3aWR0aD0iNiIgeD0iNzMzIiB5PSI0MzguNzEwOSIvPjx0ZXh0IGZpbGw9IiMwMDAwMDAiIGZvbnQtZmFtaWx5PSJzYW5zLXNlcmlmIiBmb250LXNpemU9IjE0IiBsZW5ndGhBZGp1c3Q9InNwYWNpbmciIHRleHRMZW5ndGg9IjI3MyIgeD0iNzQ1IiB5PSI0NDUuOTUzMSI+YXV0ZXVyPzogc3RyaW5nICcgT3B0aW9uYWwgZm9yIGFydGljbGVzPC90ZXh0PjxyZWN0IGZpbGw9Im5vbmUiIGhlaWdodD0iNiIgc3R5bGU9InN0cm9rZTojQzgyOTMwO3N0cm9rZS13aWR0aDoxLjA7IiB3aWR0aD0iNiIgeD0iNzMzIiB5PSI0NTMuNjk1MyIvPjx0ZXh0IGZpbGw9IiMwMDAwMDAiIGZvbnQtZmFtaWx5PSJzYW5zLXNlcmlmIiBmb250LXNpemU9IjE0IiBsZW5ndGhBZGp1c3Q9InNwYWNpbmciIHRleHRMZW5ndGg9IjIzOCIgeD0iNzQ1IiB5PSI0NjAuOTM3NSI+dXJsPzogc3RyaW5nICcgT3B0aW9uYWwgZm9yIHZpZGVvczwvdGV4dD48cmVjdCBmaWxsPSJub25lIiBoZWlnaHQ9IjYiIHN0eWxlPSJzdHJva2U6I0M4MjkzMDtzdHJva2Utd2lkdGg6MS4wOyIgd2lkdGg9IjYiIHg9IjczMyIgeT0iNDY4LjY3OTciLz48dGV4dCBmaWxsPSIjMDAwMDAwIiBmb250LWZhbWlseT0ic2Fucy1zZXJpZiIgZm9udC1zaXplPSIxNCIgbGVuZ3RoQWRqdXN0PSJzcGFjaW5nIiB0ZXh0TGVuZ3RoPSIyNTMiIHg9Ijc0NSIgeT0iNDc1LjkyMTkiPmR1cmVlPzogbnVtYmVyICcgT3B0aW9uYWwgZm9yIHZpZGVvczwvdGV4dD48bGluZSBzdHlsZT0ic3Ryb2tlOiMxODE4MTg7c3Ryb2tlLXdpZHRoOjAuNTsiIHgxPSI3MjYiIHgyPSIxMDIzIiB5MT0iNDgxLjY3MTkiIHkyPSI0ODEuNjcxOSIvPjwvZz48IS0tY2xhc3MgTm90aWZpY2F0aW9uLS0+PGcgaWQ9ImVsZW1fTm90aWZpY2F0aW9uIj48cmVjdCBjb2RlTGluZT0iOTUiIGZpbGw9IiNGRkZGRTAiIGhlaWdodD0iMTQzLjczNDQiIGlkPSJOb3RpZmljYXRpb24iIHJ4PSIyLjUiIHJ5PSIyLjUiIHN0eWxlPSJzdHJva2U6IzE4MTgxODtzdHJva2Utd2lkdGg6MC41OyIgd2lkdGg9IjMxNCIgeD0iMTEzNy41IiB5PSI0NC41Ii8+PGVsbGlwc2UgY3g9IjEyMjQuMjUiIGN5PSI2My40MTQxIiBmaWxsPSIjQUREMUIyIiByeD0iMTEiIHJ5PSIxMSIgc3R5bGU9InN0cm9rZTojMTgxODE4O3N0cm9rZS13aWR0aDoxLjA7Ii8+PHBhdGggZD0iTTEyMjEuODc1LDY3LjY2NDEgTDEyMjEuODc1LDY5LjQxNDEgTDEyMjYuODEyNSw2OS40MTQxIEwxMjI2LjgxMjUsNjcuNjY0MSBMMTIyMS44NzUsNjcuNjY0MSBaIE0xMjIyLjU2MjUsNjguMzUxNiBRMTIyMi41NjI1LDY4LjM1MTYgMTIyMi41NjI1LDU5LjE2NDEgTDEyMjAuODEyNSw1OS4xNjQxIFExMjIwLjgxMjUsNTkuMTY0MSAxMjIwLjgxMjUsNjguMzUxNiBMMTIyMi41NjI1LDY4LjM1MTYgWiBNMTIyNi4xMjUsNjguMzUxNiBMMTIyNy44NzUsNjguMzUxNiBRMTIyNy44NzUsNjguMzUxNiAxMjI3Ljg3NSw2NS41MzkxIEwxMjI2LjEyNSw2NS41MzkxIFExMjI2LjEyNSw2NS41MzkxIDEyMjYuMTI1LDY4LjM1MTYgWiBNMTIyNi4xMjUsNTkuMTY0MSBRMTIyNi4xMjUsNTkuMTY0MSAxMjI2LjEyNSw2MS45NzY2IEwxMjI3Ljg3NSw2MS45NzY2IFExMjI3Ljg3NSw2MS45NzY2IDEyMjcuODc1LDU5LjE2NDEgTDEyMjYuMTI1LDU5LjE2NDEgWiBNMTIyMS44NzUsNTkuODUxNiBMMTIyNi44MTI1LDU5Ljg1MTYgTDEyMjYuODEyNSw1OC4xMDE2IEwxMjIxLjg3NSw1OC4xMDE2IEwxMjIxLjg3NSw1OS44NTE2IFogIiBmaWxsPSIjMDAwMDAwIi8+PHRleHQgZmlsbD0iIzAwMDAwMCIgZm9udC1mYW1pbHk9InNhbnMtc2VyaWYiIGZvbnQtc2l6ZT0iMTIiIGZvbnQtc3R5bGU9Iml0YWxpYyIgbGVuZ3RoQWRqdXN0PSJzcGFjaW5nIiB0ZXh0TGVuZ3RoPSIxMzYiIHg9IjEyNDIuNzUiIHk9IjYwLjg0MzgiPiYjMTcxO0NvbnRlbnROb3RpZmljYXRpb24mIzE4Nzs8L3RleHQ+PHRleHQgZmlsbD0iIzAwMDAwMCIgZm9udC1mYW1pbHk9InNhbnMtc2VyaWYiIGZvbnQtc2l6ZT0iMTQiIGxlbmd0aEFkanVzdD0ic3BhY2luZyIgdGV4dExlbmd0aD0iODQiIHg9IjEyNjguNzUiIHk9Ijc1LjU3ODEiPk5vdGlmaWNhdGlvbjwvdGV4dD48bGluZSBzdHlsZT0ic3Ryb2tlOiMxODE4MTg7c3Ryb2tlLXdpZHRoOjAuNTsiIHgxPSIxMTM4LjUiIHgyPSIxNDUwLjUiIHkxPSI4Mi4zMjgxIiB5Mj0iODIuMzI4MSIvPjxyZWN0IGZpbGw9Im5vbmUiIGhlaWdodD0iNiIgc3R5bGU9InN0cm9rZTojQzgyOTMwO3N0cm9rZS13aWR0aDoxLjA7IiB3aWR0aD0iNiIgeD0iMTE0NS41IiB5PSI5Mi4zMjAzIi8+PHRleHQgZmlsbD0iIzAwMDAwMCIgZm9udC1mYW1pbHk9InNhbnMtc2VyaWYiIGZvbnQtc2l6ZT0iMTQiIGxlbmd0aEFkanVzdD0ic3BhY2luZyIgdGV4dExlbmd0aD0iNzAiIHg9IjExNTcuNSIgeT0iOTkuNTYyNSI+aWQ6IHN0cmluZzwvdGV4dD48cmVjdCBmaWxsPSJub25lIiBoZWlnaHQ9IjYiIHN0eWxlPSJzdHJva2U6I0M4MjkzMDtzdHJva2Utd2lkdGg6MS4wOyIgd2lkdGg9IjYiIHg9IjExNDUuNSIgeT0iMTA3LjMwNDciLz48dGV4dCBmaWxsPSIjMDAwMDAwIiBmb250LWZhbWlseT0ic2Fucy1zZXJpZiIgZm9udC1zaXplPSIxNCIgbGVuZ3RoQWRqdXN0PSJzcGFjaW5nIiB0ZXh0TGVuZ3RoPSIxNDciIHg9IjExNTcuNSIgeT0iMTE0LjU0NjkiPnV0aWxpc2F0ZXVySWQ6IHN0cmluZzwvdGV4dD48cmVjdCBmaWxsPSJub25lIiBoZWlnaHQ9IjYiIHN0eWxlPSJzdHJva2U6I0M4MjkzMDtzdHJva2Utd2lkdGg6MS4wOyIgd2lkdGg9IjYiIHg9IjExNDUuNSIgeT0iMTIyLjI4OTEiLz48dGV4dCBmaWxsPSIjMDAwMDAwIiBmb250LWZhbWlseT0ic2Fucy1zZXJpZiIgZm9udC1zaXplPSIxNCIgbGVuZ3RoQWRqdXN0PSJzcGFjaW5nIiB0ZXh0TGVuZ3RoPSIxMTIiIHg9IjExNTcuNSIgeT0iMTI5LjUzMTMiPmVxdWlwZUlkOiBzdHJpbmc8L3RleHQ+PHJlY3QgZmlsbD0ibm9uZSIgaGVpZ2h0PSI2IiBzdHlsZT0ic3Ryb2tlOiNDODI5MzA7c3Ryb2tlLXdpZHRoOjEuMDsiIHdpZHRoPSI2IiB4PSIxMTQ1LjUiIHk9IjEzNy4yNzM0Ii8+PHRleHQgZmlsbD0iIzAwMDAwMCIgZm9udC1mYW1pbHk9InNhbnMtc2VyaWYiIGZvbnQtc2l6ZT0iMTQiIGxlbmd0aEFkanVzdD0ic3BhY2luZyIgdGV4dExlbmd0aD0iMTA2IiB4PSIxMTU3LjUiIHk9IjE0NC41MTU2Ij5tZXNzYWdlOiBzdHJpbmc8L3RleHQ+PHJlY3QgZmlsbD0ibm9uZSIgaGVpZ2h0PSI2IiBzdHlsZT0ic3Ryb2tlOiNDODI5MzA7c3Ryb2tlLXdpZHRoOjEuMDsiIHdpZHRoPSI2IiB4PSIxMTQ1LjUiIHk9IjE1Mi4yNTc4Ii8+PHRleHQgZmlsbD0iIzAwMDAwMCIgZm9udC1mYW1pbHk9InNhbnMtc2VyaWYiIGZvbnQtc2l6ZT0iMTQiIGxlbmd0aEFkanVzdD0ic3BhY2luZyIgdGV4dExlbmd0aD0iMjg4IiB4PSIxMTU3LjUiIHk9IjE1OS41Ij50eXBlOiAnTWF0Y2gnIHwgJ0FjdHVhbGl0ZScgfCAnTWlzZUFKb3VyJzwvdGV4dD48cmVjdCBmaWxsPSJub25lIiBoZWlnaHQ9IjYiIHN0eWxlPSJzdHJva2U6I0M4MjkzMDtzdHJva2Utd2lkdGg6MS4wOyIgd2lkdGg9IjYiIHg9IjExNDUuNSIgeT0iMTY3LjI0MjIiLz48dGV4dCBmaWxsPSIjMDAwMDAwIiBmb250LWZhbWlseT0ic2Fucy1zZXJpZiIgZm9udC1zaXplPSIxNCIgbGVuZ3RoQWRqdXN0PSJzcGFjaW5nIiB0ZXh0TGVuZ3RoPSI3MCIgeD0iMTE1Ny41IiB5PSIxNzQuNDg0NCI+ZGF0ZTogRGF0ZTwvdGV4dD48bGluZSBzdHlsZT0ic3Ryb2tlOiMxODE4MTg7c3Ryb2tlLXdpZHRoOjAuNTsiIHgxPSIxMTM4LjUiIHgyPSIxNDUwLjUiIHkxPSIxODAuMjM0NCIgeTI9IjE4MC4yMzQ0Ii8+PC9nPjwhLS1jbGFzcyBDb21tZW50cy0tPjxnIGlkPSJlbGVtX0NvbW1lbnRzIj48cmVjdCBjb2RlTGluZT0iMTA0IiBmaWxsPSIjRkZGRkUwIiBoZWlnaHQ9IjEyOC43NSIgaWQ9IkNvbW1lbnRzIiByeD0iMi41IiByeT0iMi41IiBzdHlsZT0ic3Ryb2tlOiMxODE4MTg7c3Ryb2tlLXdpZHRoOjAuNTsiIHdpZHRoPSIxNzMiIHg9Ijg1OCIgeT0iNTIiLz48ZWxsaXBzZSBjeD0iODc3LjA1IiBjeT0iNzAuOTE0MSIgZmlsbD0iI0FERDFCMiIgcng9IjExIiByeT0iMTEiIHN0eWxlPSJzdHJva2U6IzE4MTgxODtzdHJva2Utd2lkdGg6MS4wOyIvPjxwYXRoIGQ9Ik04NzQuNjc1LDc1LjE2NDEgTDg3NC42NzUsNzYuOTE0MSBMODc5LjYxMjUsNzYuOTE0MSBMODc5LjYxMjUsNzUuMTY0MSBMODc0LjY3NSw3NS4xNjQxIFogTTg3NS4zNjI1LDc1Ljg1MTYgUTg3NS4zNjI1LDc1Ljg1MTYgODc1LjM2MjUsNjYuNjY0MSBMODczLjYxMjUsNjYuNjY0MSBRODczLjYxMjUsNjYuNjY0MSA4NzMuNjEyNSw3NS44NTE2IEw4NzUuMzYyNSw3NS44NTE2IFogTTg3OC45MjUsNzUuODUxNiBMODgwLjY3NSw3NS44NTE2IFE4ODAuNjc1LDc1Ljg1MTYgODgwLjY3NSw3My4wMzkxIEw4NzguOTI1LDczLjAzOTEgUTg3OC45MjUsNzMuMDM5MSA4NzguOTI1LDc1Ljg1MTYgWiBNODc4LjkyNSw2Ni42NjQxIFE4NzguOTI1LDY2LjY2NDEgODc4LjkyNSw2OS40NzY2IEw4ODAuNjc1LDY5LjQ3NjYgUTg4MC42NzUsNjkuNDc2NiA4ODAuNjc1LDY2LjY2NDEgTDg3OC45MjUsNjYuNjY0MSBaIE04NzQuNjc1LDY3LjM1MTYgTDg3OS42MTI1LDY3LjM1MTYgTDg3OS42MTI1LDY1LjYwMTYgTDg3NC42NzUsNjUuNjAxNiBMODc0LjY3NSw2Ny4zNTE2IFogIiBmaWxsPSIjMDAwMDAwIi8+PHRleHQgZmlsbD0iIzAwMDAwMCIgZm9udC1mYW1pbHk9InNhbnMtc2VyaWYiIGZvbnQtc2l6ZT0iMTIiIGZvbnQtc3R5bGU9Iml0YWxpYyIgbGVuZ3RoQWRqdXN0PSJzcGFjaW5nIiB0ZXh0TGVuZ3RoPSIxMzYiIHg9Ijg4OS45NSIgeT0iNjguMzQzOCI+JiMxNzE7Q29udGVudE5vdGlmaWNhdGlvbiYjMTg3OzwvdGV4dD48dGV4dCBmaWxsPSIjMDAwMDAwIiBmb250LWZhbWlseT0ic2Fucy1zZXJpZiIgZm9udC1zaXplPSIxNCIgbGVuZ3RoQWRqdXN0PSJzcGFjaW5nIiB0ZXh0TGVuZ3RoPSI1OCIgeD0iOTI4Ljk1IiB5PSI4My4wNzgxIj5Db21tZW50czwvdGV4dD48bGluZSBzdHlsZT0ic3Ryb2tlOiMxODE4MTg7c3Ryb2tlLXdpZHRoOjAuNTsiIHgxPSI4NTkiIHgyPSIxMDMwIiB5MT0iODkuODI4MSIgeTI9Ijg5LjgyODEiLz48cmVjdCBmaWxsPSJub25lIiBoZWlnaHQ9IjYiIHN0eWxlPSJzdHJva2U6I0M4MjkzMDtzdHJva2Utd2lkdGg6MS4wOyIgd2lkdGg9IjYiIHg9Ijg2NiIgeT0iOTkuODIwMyIvPjx0ZXh0IGZpbGw9IiMwMDAwMDAiIGZvbnQtZmFtaWx5PSJzYW5zLXNlcmlmIiBmb250LXNpemU9IjE0IiBsZW5ndGhBZGp1c3Q9InNwYWNpbmciIHRleHRMZW5ndGg9IjcwIiB4PSI4NzgiIHk9IjEwNy4wNjI1Ij5pZDogc3RyaW5nPC90ZXh0PjxyZWN0IGZpbGw9Im5vbmUiIGhlaWdodD0iNiIgc3R5bGU9InN0cm9rZTojQzgyOTMwO3N0cm9rZS13aWR0aDoxLjA7IiB3aWR0aD0iNiIgeD0iODY2IiB5PSIxMTQuODA0NyIvPjx0ZXh0IGZpbGw9IiMwMDAwMDAiIGZvbnQtZmFtaWx5PSJzYW5zLXNlcmlmIiBmb250LXNpemU9IjE0IiBsZW5ndGhBZGp1c3Q9InNwYWNpbmciIHRleHRMZW5ndGg9IjEzMyIgeD0iODc4IiB5PSIxMjIuMDQ2OSI+YWN0dWFsaXRlSWQ6IHN0cmluZzwvdGV4dD48cmVjdCBmaWxsPSJub25lIiBoZWlnaHQ9IjYiIHN0eWxlPSJzdHJva2U6I0M4MjkzMDtzdHJva2Utd2lkdGg6MS4wOyIgd2lkdGg9IjYiIHg9Ijg2NiIgeT0iMTI5Ljc4OTEiLz48dGV4dCBmaWxsPSIjMDAwMDAwIiBmb250LWZhbWlseT0ic2Fucy1zZXJpZiIgZm9udC1zaXplPSIxNCIgbGVuZ3RoQWRqdXN0PSJzcGFjaW5nIiB0ZXh0TGVuZ3RoPSIxNDciIHg9Ijg3OCIgeT0iMTM3LjAzMTMiPnV0aWxpc2F0ZXVySWQ6IHN0cmluZzwvdGV4dD48cmVjdCBmaWxsPSJub25lIiBoZWlnaHQ9IjYiIHN0eWxlPSJzdHJva2U6I0M4MjkzMDtzdHJva2Utd2lkdGg6MS4wOyIgd2lkdGg9IjYiIHg9Ijg2NiIgeT0iMTQ0Ljc3MzQiLz48dGV4dCBmaWxsPSIjMDAwMDAwIiBmb250LWZhbWlseT0ic2Fucy1zZXJpZiIgZm9udC1zaXplPSIxNCIgbGVuZ3RoQWRqdXN0PSJzcGFjaW5nIiB0ZXh0TGVuZ3RoPSIxMDUiIHg9Ijg3OCIgeT0iMTUyLjAxNTYiPmNvbnRlbnU6IHN0cmluZzwvdGV4dD48cmVjdCBmaWxsPSJub25lIiBoZWlnaHQ9IjYiIHN0eWxlPSJzdHJva2U6I0M4MjkzMDtzdHJva2Utd2lkdGg6MS4wOyIgd2lkdGg9IjYiIHg9Ijg2NiIgeT0iMTU5Ljc1NzgiLz48dGV4dCBmaWxsPSIjMDAwMDAwIiBmb250LWZhbWlseT0ic2Fucy1zZXJpZiIgZm9udC1zaXplPSIxNCIgbGVuZ3RoQWRqdXN0PSJzcGFjaW5nIiB0ZXh0TGVuZ3RoPSI3MCIgeD0iODc4IiB5PSIxNjciPmRhdGU6IERhdGU8L3RleHQ+PGxpbmUgc3R5bGU9InN0cm9rZTojMTgxODE4O3N0cm9rZS13aWR0aDowLjU7IiB4MT0iODU5IiB4Mj0iMTAzMCIgeTE9IjE3Mi43NSIgeTI9IjE3Mi43NSIvPjwvZz48IS0tY2xhc3MgRXZlbmVtZW50LS0+PGcgaWQ9ImVsZW1fRXZlbmVtZW50Ij48cmVjdCBjb2RlTGluZT0iMTE5IiBmaWxsPSIjRjA4MDgwIiBoZWlnaHQ9IjEyOC43NSIgaWQ9IkV2ZW5lbWVudCIgcng9IjIuNSIgcnk9IjIuNSIgc3R5bGU9InN0cm9rZTojMTgxODE4O3N0cm9rZS13aWR0aDowLjU7IiB3aWR0aD0iMTM4IiB4PSI1NTEuNSIgeT0iMzIzLjUiLz48ZWxsaXBzZSBjeD0iNTcxLjQ1IiBjeT0iMzQyLjQxNDEiIGZpbGw9IiNBREQxQjIiIHJ4PSIxMSIgcnk9IjExIiBzdHlsZT0ic3Ryb2tlOiMxODE4MTg7c3Ryb2tlLXdpZHRoOjEuMDsiLz48cGF0aCBkPSJNNTY5LjA3NSwzNDYuNjY0MSBMNTY5LjA3NSwzNDguNDE0MSBMNTc0LjAxMjUsMzQ4LjQxNDEgTDU3NC4wMTI1LDM0Ni42NjQxIEw1NjkuMDc1LDM0Ni42NjQxIFogTTU2OS43NjI1LDM0Ny4zNTE2IFE1NjkuNzYyNSwzNDcuMzUxNiA1NjkuNzYyNSwzMzguMTY0MSBMNTY4LjAxMjUsMzM4LjE2NDEgUTU2OC4wMTI1LDMzOC4xNjQxIDU2OC4wMTI1LDM0Ny4zNTE2IEw1NjkuNzYyNSwzNDcuMzUxNiBaIE01NzMuMzI1LDM0Ny4zNTE2IEw1NzUuMDc1LDM0Ny4zNTE2IFE1NzUuMDc1LDM0Ny4zNTE2IDU3NS4wNzUsMzQ0LjUzOTEgTDU3My4zMjUsMzQ0LjUzOTEgUTU3My4zMjUsMzQ0LjUzOTEgNTczLjMyNSwzNDcuMzUxNiBaIE01NzMuMzI1LDMzOC4xNjQxIFE1NzMuMzI1LDMzOC4xNjQxIDU3My4zMjUsMzQwLjk3NjYgTDU3NS4wNzUsMzQwLjk3NjYgUTU3NS4wNzUsMzQwLjk3NjYgNTc1LjA3NSwzMzguMTY0MSBMNTczLjMyNSwzMzguMTY0MSBaIE01NjkuMDc1LDMzOC44NTE2IEw1NzQuMDEyNSwzMzguODUxNiBMNTc0LjAxMjUsMzM3LjEwMTYgTDU2OS4wNzUsMzM3LjEwMTYgTDU2OS4wNzUsMzM4Ljg1MTYgWiAiIGZpbGw9IiMwMDAwMDAiLz48dGV4dCBmaWxsPSIjMDAwMDAwIiBmb250LWZhbWlseT0ic2Fucy1zZXJpZiIgZm9udC1zaXplPSIxMiIgZm9udC1zdHlsZT0iaXRhbGljIiBsZW5ndGhBZGp1c3Q9InNwYWNpbmciIHRleHRMZW5ndGg9Ijk5IiB4PSI1ODQuNTUiIHk9IjMzOS44NDM4Ij4mIzE3MTtFdmVudHNNYXRjaGVzJiMxODc7PC90ZXh0Pjx0ZXh0IGZpbGw9IiMwMDAwMDAiIGZvbnQtZmFtaWx5PSJzYW5zLXNlcmlmIiBmb250LXNpemU9IjE0IiBsZW5ndGhBZGp1c3Q9InNwYWNpbmciIHRleHRMZW5ndGg9IjY0IiB4PSI2MDIuMDUiIHk9IjM1NC41NzgxIj5FdmVuZW1lbnQ8L3RleHQ+PGxpbmUgc3R5bGU9InN0cm9rZTojMTgxODE4O3N0cm9rZS13aWR0aDowLjU7IiB4MT0iNTUyLjUiIHgyPSI2ODguNSIgeTE9IjM2MS4zMjgxIiB5Mj0iMzYxLjMyODEiLz48cmVjdCBmaWxsPSJub25lIiBoZWlnaHQ9IjYiIHN0eWxlPSJzdHJva2U6I0M4MjkzMDtzdHJva2Utd2lkdGg6MS4wOyIgd2lkdGg9IjYiIHg9IjU1OS41IiB5PSIzNzEuMzIwMyIvPjx0ZXh0IGZpbGw9IiMwMDAwMDAiIGZvbnQtZmFtaWx5PSJzYW5zLXNlcmlmIiBmb250LXNpemU9IjE0IiBsZW5ndGhBZGp1c3Q9InNwYWNpbmciIHRleHRMZW5ndGg9IjcwIiB4PSI1NzEuNSIgeT0iMzc4LjU2MjUiPmlkOiBzdHJpbmc8L3RleHQ+PHJlY3QgZmlsbD0ibm9uZSIgaGVpZ2h0PSI2IiBzdHlsZT0ic3Ryb2tlOiNDODI5MzA7c3Ryb2tlLXdpZHRoOjEuMDsiIHdpZHRoPSI2IiB4PSI1NTkuNSIgeT0iMzg2LjMwNDciLz48dGV4dCBmaWxsPSIjMDAwMDAwIiBmb250LWZhbWlseT0ic2Fucy1zZXJpZiIgZm9udC1zaXplPSIxNCIgbGVuZ3RoQWRqdXN0PSJzcGFjaW5nIiB0ZXh0TGVuZ3RoPSIxMTIiIHg9IjU3MS41IiB5PSIzOTMuNTQ2OSI+ZXF1aXBlSWQ6IHN0cmluZzwvdGV4dD48cmVjdCBmaWxsPSJub25lIiBoZWlnaHQ9IjYiIHN0eWxlPSJzdHJva2U6I0M4MjkzMDtzdHJva2Utd2lkdGg6MS4wOyIgd2lkdGg9IjYiIHg9IjU1OS41IiB5PSI0MDEuMjg5MSIvPjx0ZXh0IGZpbGw9IiMwMDAwMDAiIGZvbnQtZmFtaWx5PSJzYW5zLXNlcmlmIiBmb250LXNpemU9IjE0IiBsZW5ndGhBZGp1c3Q9InNwYWNpbmciIHRleHRMZW5ndGg9IjkxIiB4PSI1NzEuNSIgeT0iNDA4LjUzMTMiPnRpdHJlOiBzdHJpbmc8L3RleHQ+PHJlY3QgZmlsbD0ibm9uZSIgaGVpZ2h0PSI2IiBzdHlsZT0ic3Ryb2tlOiNDODI5MzA7c3Ryb2tlLXdpZHRoOjEuMDsiIHdpZHRoPSI2IiB4PSI1NTkuNSIgeT0iNDE2LjI3MzQiLz48dGV4dCBmaWxsPSIjMDAwMDAwIiBmb250LWZhbWlseT0ic2Fucy1zZXJpZiIgZm9udC1zaXplPSIxNCIgbGVuZ3RoQWRqdXN0PSJzcGFjaW5nIiB0ZXh0TGVuZ3RoPSI3MCIgeD0iNTcxLjUiIHk9IjQyMy41MTU2Ij5kYXRlOiBEYXRlPC90ZXh0PjxyZWN0IGZpbGw9Im5vbmUiIGhlaWdodD0iNiIgc3R5bGU9InN0cm9rZTojQzgyOTMwO3N0cm9rZS13aWR0aDoxLjA7IiB3aWR0aD0iNiIgeD0iNTU5LjUiIHk9IjQzMS4yNTc4Ii8+PHRleHQgZmlsbD0iIzAwMDAwMCIgZm9udC1mYW1pbHk9InNhbnMtc2VyaWYiIGZvbnQtc2l6ZT0iMTQiIGxlbmd0aEFkanVzdD0ic3BhY2luZyIgdGV4dExlbmd0aD0iODQiIHg9IjU3MS41IiB5PSI0MzguNSI+bGlldTogc3RyaW5nPC90ZXh0PjxsaW5lIHN0eWxlPSJzdHJva2U6IzE4MTgxODtzdHJva2Utd2lkdGg6MC41OyIgeDE9IjU1Mi41IiB4Mj0iNjg4LjUiIHkxPSI0NDQuMjUiIHkyPSI0NDQuMjUiLz48L2c+PCEtLWNsYXNzIE1hdGNoLS0+PGcgaWQ9ImVsZW1fTWF0Y2giPjxyZWN0IGNvZGVMaW5lPSIxMjciIGZpbGw9IiNGMDgwODAiIGhlaWdodD0iMTEzLjc2NTYiIGlkPSJNYXRjaCIgcng9IjIuNSIgcnk9IjIuNSIgc3R5bGU9InN0cm9rZTojMTgxODE4O3N0cm9rZS13aWR0aDowLjU7IiB3aWR0aD0iMjQ3IiB4PSIyMTMiIHk9IjU3Mi41Ii8+PGVsbGlwc2UgY3g9IjI4NC43NSIgY3k9IjU5MS40MTQxIiBmaWxsPSIjQUREMUIyIiByeD0iMTEiIHJ5PSIxMSIgc3R5bGU9InN0cm9rZTojMTgxODE4O3N0cm9rZS13aWR0aDoxLjA7Ii8+PHBhdGggZD0iTTI4Mi4zNzUsNTk1LjY2NDEgTDI4Mi4zNzUsNTk3LjQxNDEgTDI4Ny4zMTI1LDU5Ny40MTQxIEwyODcuMzEyNSw1OTUuNjY0MSBMMjgyLjM3NSw1OTUuNjY0MSBaIE0yODMuMDYyNSw1OTYuMzUxNiBRMjgzLjA2MjUsNTk2LjM1MTYgMjgzLjA2MjUsNTg3LjE2NDEgTDI4MS4zMTI1LDU4Ny4xNjQxIFEyODEuMzEyNSw1ODcuMTY0MSAyODEuMzEyNSw1OTYuMzUxNiBMMjgzLjA2MjUsNTk2LjM1MTYgWiBNMjg2LjYyNSw1OTYuMzUxNiBMMjg4LjM3NSw1OTYuMzUxNiBRMjg4LjM3NSw1OTYuMzUxNiAyODguMzc1LDU5My41MzkxIEwyODYuNjI1LDU5My41MzkxIFEyODYuNjI1LDU5My41MzkxIDI4Ni42MjUsNTk2LjM1MTYgWiBNMjg2LjYyNSw1ODcuMTY0MSBRMjg2LjYyNSw1ODcuMTY0MSAyODYuNjI1LDU4OS45NzY2IEwyODguMzc1LDU4OS45NzY2IFEyODguMzc1LDU4OS45NzY2IDI4OC4zNzUsNTg3LjE2NDEgTDI4Ni42MjUsNTg3LjE2NDEgWiBNMjgyLjM3NSw1ODcuODUxNiBMMjg3LjMxMjUsNTg3Ljg1MTYgTDI4Ny4zMTI1LDU4Ni4xMDE2IEwyODIuMzc1LDU4Ni4xMDE2IEwyODIuMzc1LDU4Ny44NTE2IFogIiBmaWxsPSIjMDAwMDAwIi8+PHRleHQgZmlsbD0iIzAwMDAwMCIgZm9udC1mYW1pbHk9InNhbnMtc2VyaWYiIGZvbnQtc2l6ZT0iMTIiIGZvbnQtc3R5bGU9Iml0YWxpYyIgbGVuZ3RoQWRqdXN0PSJzcGFjaW5nIiB0ZXh0TGVuZ3RoPSI5OSIgeD0iMzAzLjI1IiB5PSI1ODguODQzOCI+JiMxNzE7RXZlbnRzTWF0Y2hlcyYjMTg3OzwvdGV4dD48dGV4dCBmaWxsPSIjMDAwMDAwIiBmb250LWZhbWlseT0ic2Fucy1zZXJpZiIgZm9udC1zaXplPSIxNCIgbGVuZ3RoQWRqdXN0PSJzcGFjaW5nIiB0ZXh0TGVuZ3RoPSIzNSIgeD0iMzM1LjI1IiB5PSI2MDMuNTc4MSI+TWF0Y2g8L3RleHQ+PGxpbmUgc3R5bGU9InN0cm9rZTojMTgxODE4O3N0cm9rZS13aWR0aDowLjU7IiB4MT0iMjE0IiB4Mj0iNDU5IiB5MT0iNjEwLjMyODEiIHkyPSI2MTAuMzI4MSIvPjxyZWN0IGZpbGw9Im5vbmUiIGhlaWdodD0iNiIgc3R5bGU9InN0cm9rZTojQzgyOTMwO3N0cm9rZS13aWR0aDoxLjA7IiB3aWR0aD0iNiIgeD0iMjIxIiB5PSI2MjAuMzIwMyIvPjx0ZXh0IGZpbGw9IiMwMDAwMDAiIGZvbnQtZmFtaWx5PSJzYW5zLXNlcmlmIiBmb250LXNpemU9IjE0IiBsZW5ndGhBZGp1c3Q9InNwYWNpbmciIHRleHRMZW5ndGg9IjkxIiB4PSIyMzMiIHk9IjYyNy41NjI1Ij5zY29yZTogc3RyaW5nPC90ZXh0PjxyZWN0IGZpbGw9Im5vbmUiIGhlaWdodD0iNiIgc3R5bGU9InN0cm9rZTojQzgyOTMwO3N0cm9rZS13aWR0aDoxLjA7IiB3aWR0aD0iNiIgeD0iMjIxIiB5PSI2MzUuMzA0NyIvPjx0ZXh0IGZpbGw9IiMwMDAwMDAiIGZvbnQtZmFtaWx5PSJzYW5zLXNlcmlmIiBmb250LXNpemU9IjE0IiBsZW5ndGhBZGp1c3Q9InNwYWNpbmciIHRleHRMZW5ndGg9IjEyNiIgeD0iMjMzIiB5PSI2NDIuNTQ2OSI+YWR2ZXJzYWlyZTogc3RyaW5nPC90ZXh0PjxyZWN0IGZpbGw9Im5vbmUiIGhlaWdodD0iNiIgc3R5bGU9InN0cm9rZTojQzgyOTMwO3N0cm9rZS13aWR0aDoxLjA7IiB3aWR0aD0iNiIgeD0iMjIxIiB5PSI2NTAuMjg5MSIvPjx0ZXh0IGZpbGw9IiMwMDAwMDAiIGZvbnQtZmFtaWx5PSJzYW5zLXNlcmlmIiBmb250LXNpemU9IjE0IiBsZW5ndGhBZGp1c3Q9InNwYWNpbmciIHRleHRMZW5ndGg9IjE0NyIgeD0iMjMzIiB5PSI2NTcuNTMxMyI+c3RhdHV0RGlyZWN0OiBib29sZWFuPC90ZXh0PjxsaW5lIHN0eWxlPSJzdHJva2U6IzE4MTgxODtzdHJva2Utd2lkdGg6MC41OyIgeDE9IjIxNCIgeDI9IjQ1OSIgeTE9IjY2My4yODEzIiB5Mj0iNjYzLjI4MTMiLz48ZWxsaXBzZSBjeD0iMjI0IiBjeT0iNjc2LjI3MzQiIGZpbGw9IiM4NEJFODQiIHJ4PSIzIiByeT0iMyIgc3R5bGU9InN0cm9rZTojMDM4MDQ4O3N0cm9rZS13aWR0aDoxLjA7Ii8+PHRleHQgZmlsbD0iIzAwMDAwMCIgZm9udC1mYW1pbHk9InNhbnMtc2VyaWYiIGZvbnQtc2l6ZT0iMTQiIGxlbmd0aEFkanVzdD0ic3BhY2luZyIgdGV4dExlbmd0aD0iMjIxIiB4PSIyMzMiIHk9IjY4MC41MTU2Ij5tZXR0cmVBSm91clNjb3JlKHNjb3JlOiBzdHJpbmcpPC90ZXh0PjwvZz48IS0tY2xhc3MgSm91ZXVyLS0+PGcgaWQ9ImVsZW1fSm91ZXVyIj48cmVjdCBjb2RlTGluZT0iMTM0IiBmaWxsPSIjRjA4MDgwIiBoZWlnaHQ9IjE3My43MDMxIiBpZD0iSm91ZXVyIiByeD0iMi41IiByeT0iMi41IiBzdHlsZT0ic3Ryb2tlOiMxODE4MTg7c3Ryb2tlLXdpZHRoOjAuNTsiIHdpZHRoPSI0MTEiIHg9IjEwNSIgeT0iMzAxIi8+PGVsbGlwc2UgY3g9IjI1OC43NSIgY3k9IjMxOS45MTQxIiBmaWxsPSIjQUREMUIyIiByeD0iMTEiIHJ5PSIxMSIgc3R5bGU9InN0cm9rZTojMTgxODE4O3N0cm9rZS13aWR0aDoxLjA7Ii8+PHBhdGggZD0iTTI1Ni4zNzUsMzI0LjE2NDEgTDI1Ni4zNzUsMzI1LjkxNDEgTDI2MS4zMTI1LDMyNS45MTQxIEwyNjEuMzEyNSwzMjQuMTY0MSBMMjU2LjM3NSwzMjQuMTY0MSBaIE0yNTcuMDYyNSwzMjQuODUxNiBRMjU3LjA2MjUsMzI0Ljg1MTYgMjU3LjA2MjUsMzE1LjY2NDEgTDI1NS4zMTI1LDMxNS42NjQxIFEyNTUuMzEyNSwzMTUuNjY0MSAyNTUuMzEyNSwzMjQuODUxNiBMMjU3LjA2MjUsMzI0Ljg1MTYgWiBNMjYwLjYyNSwzMjQuODUxNiBMMjYyLjM3NSwzMjQuODUxNiBRMjYyLjM3NSwzMjQuODUxNiAyNjIuMzc1LDMyMi4wMzkxIEwyNjAuNjI1LDMyMi4wMzkxIFEyNjAuNjI1LDMyMi4wMzkxIDI2MC42MjUsMzI0Ljg1MTYgWiBNMjYwLjYyNSwzMTUuNjY0MSBRMjYwLjYyNSwzMTUuNjY0MSAyNjAuNjI1LDMxOC40NzY2IEwyNjIuMzc1LDMxOC40NzY2IFEyNjIuMzc1LDMxOC40NzY2IDI2Mi4zNzUsMzE1LjY2NDEgTDI2MC42MjUsMzE1LjY2NDEgWiBNMjU2LjM3NSwzMTYuMzUxNiBMMjYxLjMxMjUsMzE2LjM1MTYgTDI2MS4zMTI1LDMxNC42MDE2IEwyNTYuMzc1LDMxNC42MDE2IEwyNTYuMzc1LDMxNi4zNTE2IFogIiBmaWxsPSIjMDAwMDAwIi8+PHRleHQgZmlsbD0iIzAwMDAwMCIgZm9udC1mYW1pbHk9InNhbnMtc2VyaWYiIGZvbnQtc2l6ZT0iMTIiIGZvbnQtc3R5bGU9Iml0YWxpYyIgbGVuZ3RoQWRqdXN0PSJzcGFjaW5nIiB0ZXh0TGVuZ3RoPSI5OSIgeD0iMjc3LjI1IiB5PSIzMTcuMzQzOCI+JiMxNzE7RXZlbnRzTWF0Y2hlcyYjMTg3OzwvdGV4dD48dGV4dCBmaWxsPSIjMDAwMDAwIiBmb250LWZhbWlseT0ic2Fucy1zZXJpZiIgZm9udC1zaXplPSIxNCIgbGVuZ3RoQWRqdXN0PSJzcGFjaW5nIiB0ZXh0TGVuZ3RoPSI0MyIgeD0iMzA1LjI1IiB5PSIzMzIuMDc4MSI+Sm91ZXVyPC90ZXh0PjxsaW5lIHN0eWxlPSJzdHJva2U6IzE4MTgxODtzdHJva2Utd2lkdGg6MC41OyIgeDE9IjEwNiIgeDI9IjUxNSIgeTE9IjMzOC44MjgxIiB5Mj0iMzM4LjgyODEiLz48cmVjdCBmaWxsPSJub25lIiBoZWlnaHQ9IjYiIHN0eWxlPSJzdHJva2U6I0M4MjkzMDtzdHJva2Utd2lkdGg6MS4wOyIgd2lkdGg9IjYiIHg9IjExMyIgeT0iMzQ4LjgyMDMiLz48dGV4dCBmaWxsPSIjMDAwMDAwIiBmb250LWZhbWlseT0ic2Fucy1zZXJpZiIgZm9udC1zaXplPSIxNCIgbGVuZ3RoQWRqdXN0PSJzcGFjaW5nIiB0ZXh0TGVuZ3RoPSI3MCIgeD0iMTI1IiB5PSIzNTYuMDYyNSI+aWQ6IHN0cmluZzwvdGV4dD48cmVjdCBmaWxsPSJub25lIiBoZWlnaHQ9IjYiIHN0eWxlPSJzdHJva2U6I0M4MjkzMDtzdHJva2Utd2lkdGg6MS4wOyIgd2lkdGg9IjYiIHg9IjExMyIgeT0iMzYzLjgwNDciLz48dGV4dCBmaWxsPSIjMDAwMDAwIiBmb250LWZhbWlseT0ic2Fucy1zZXJpZiIgZm9udC1zaXplPSIxNCIgbGVuZ3RoQWRqdXN0PSJzcGFjaW5nIiB0ZXh0TGVuZ3RoPSI3OCIgeD0iMTI1IiB5PSIzNzEuMDQ2OSI+bm9tOiBzdHJpbmc8L3RleHQ+PHJlY3QgZmlsbD0ibm9uZSIgaGVpZ2h0PSI2IiBzdHlsZT0ic3Ryb2tlOiNDODI5MzA7c3Ryb2tlLXdpZHRoOjEuMDsiIHdpZHRoPSI2IiB4PSIxMTMiIHk9IjM3OC43ODkxIi8+PHRleHQgZmlsbD0iIzAwMDAwMCIgZm9udC1mYW1pbHk9InNhbnMtc2VyaWYiIGZvbnQtc2l6ZT0iMTQiIGxlbmd0aEFkanVzdD0ic3BhY2luZyIgdGV4dExlbmd0aD0iOTkiIHg9IjEyNSIgeT0iMzg2LjAzMTMiPnByZW5vbTogc3RyaW5nPC90ZXh0PjxyZWN0IGZpbGw9Im5vbmUiIGhlaWdodD0iNiIgc3R5bGU9InN0cm9rZTojQzgyOTMwO3N0cm9rZS13aWR0aDoxLjA7IiB3aWR0aD0iNiIgeD0iMTEzIiB5PSIzOTMuNzczNCIvPjx0ZXh0IGZpbGw9IiMwMDAwMDAiIGZvbnQtZmFtaWx5PSJzYW5zLXNlcmlmIiBmb250LXNpemU9IjE0IiBsZW5ndGhBZGp1c3Q9InNwYWNpbmciIHRleHRMZW5ndGg9IjU2IiB4PSIxMjUiIHk9IjQwMS4wMTU2Ij5hZ2U6IGludDwvdGV4dD48cmVjdCBmaWxsPSJub25lIiBoZWlnaHQ9IjYiIHN0eWxlPSJzdHJva2U6I0M4MjkzMDtzdHJva2Utd2lkdGg6MS4wOyIgd2lkdGg9IjYiIHg9IjExMyIgeT0iNDA4Ljc1NzgiLz48dGV4dCBmaWxsPSIjMDAwMDAwIiBmb250LWZhbWlseT0ic2Fucy1zZXJpZiIgZm9udC1zaXplPSIxNCIgbGVuZ3RoQWRqdXN0PSJzcGFjaW5nIiB0ZXh0TGVuZ3RoPSIxMzMiIHg9IjEyNSIgeT0iNDE2Ij5uYXRpb25hbGl0ZTogc3RyaW5nPC90ZXh0PjxyZWN0IGZpbGw9Im5vbmUiIGhlaWdodD0iNiIgc3R5bGU9InN0cm9rZTojQzgyOTMwO3N0cm9rZS13aWR0aDoxLjA7IiB3aWR0aD0iNiIgeD0iMTEzIiB5PSI0MjMuNzQyMiIvPjx0ZXh0IGZpbGw9IiMwMDAwMDAiIGZvbnQtZmFtaWx5PSJzYW5zLXNlcmlmIiBmb250LXNpemU9IjE0IiBsZW5ndGhBZGp1c3Q9InNwYWNpbmciIHRleHRMZW5ndGg9IjM4NSIgeD0iMTI1IiB5PSI0MzAuOTg0NCI+cG9zdGU6ICdHYXJkaWVuJyB8ICdEJiMyMzM7ZmVuc2V1cicgfCAnTWlsaWV1JyB8ICdBdHRhcXVhbnQnPC90ZXh0PjxyZWN0IGZpbGw9Im5vbmUiIGhlaWdodD0iNiIgc3R5bGU9InN0cm9rZTojQzgyOTMwO3N0cm9rZS13aWR0aDoxLjA7IiB3aWR0aD0iNiIgeD0iMTEzIiB5PSI0MzguNzI2NiIvPjx0ZXh0IGZpbGw9IiMwMDAwMDAiIGZvbnQtZmFtaWx5PSJzYW5zLXNlcmlmIiBmb250LXNpemU9IjE0IiBsZW5ndGhBZGp1c3Q9InNwYWNpbmciIHRleHRMZW5ndGg9IjExMiIgeD0iMTI1IiB5PSI0NDUuOTY4OCI+ZXF1aXBlSWQ6IHN0cmluZzwvdGV4dD48cmVjdCBmaWxsPSJub25lIiBoZWlnaHQ9IjYiIHN0eWxlPSJzdHJva2U6I0M4MjkzMDtzdHJva2Utd2lkdGg6MS4wOyIgd2lkdGg9IjYiIHg9IjExMyIgeT0iNDUzLjcxMDkiLz48dGV4dCBmaWxsPSIjMDAwMDAwIiBmb250LWZhbWlseT0ic2Fucy1zZXJpZiIgZm9udC1zaXplPSIxNCIgbGVuZ3RoQWRqdXN0PSJzcGFjaW5nIiB0ZXh0TGVuZ3RoPSIyODIiIHg9IjEyNSIgeT0iNDYwLjk1MzEiPnN0YXRpc3RpcXVlczogeyBidXRzOiBpbnQsIHBhc3NlczogaW50IH08L3RleHQ+PGxpbmUgc3R5bGU9InN0cm9rZTojMTgxODE4O3N0cm9rZS13aWR0aDowLjU7IiB4MT0iMTA2IiB4Mj0iNTE1IiB5MT0iNDY2LjcwMzEiIHkyPSI0NjYuNzAzMSIvPjwvZz48IS0tY2xhc3MgU3RhdGlzdGlxdWUtLT48ZyBpZD0iZWxlbV9TdGF0aXN0aXF1ZSI+PHJlY3QgY29kZUxpbmU9IjE0NSIgZmlsbD0iI0YwODA4MCIgaGVpZ2h0PSIxMTMuNzY1NiIgaWQ9IlN0YXRpc3RpcXVlIiByeD0iMi41IiByeT0iMi41IiBzdHlsZT0ic3Ryb2tlOiMxODE4MTg7c3Ryb2tlLXdpZHRoOjAuNTsiIHdpZHRoPSIyNzMiIHg9IjQ1IiB5PSI1OS41Ii8+PGVsbGlwc2UgY3g9IjEyOS43NSIgY3k9Ijc4LjQxNDEiIGZpbGw9IiNBREQxQjIiIHJ4PSIxMSIgcnk9IjExIiBzdHlsZT0ic3Ryb2tlOiMxODE4MTg7c3Ryb2tlLXdpZHRoOjEuMDsiLz48cGF0aCBkPSJNMTI3LjM3NSw4Mi42NjQxIEwxMjcuMzc1LDg0LjQxNDEgTDEzMi4zMTI1LDg0LjQxNDEgTDEzMi4zMTI1LDgyLjY2NDEgTDEyNy4zNzUsODIuNjY0MSBaIE0xMjguMDYyNSw4My4zNTE2IFExMjguMDYyNSw4My4zNTE2IDEyOC4wNjI1LDc0LjE2NDEgTDEyNi4zMTI1LDc0LjE2NDEgUTEyNi4zMTI1LDc0LjE2NDEgMTI2LjMxMjUsODMuMzUxNiBMMTI4LjA2MjUsODMuMzUxNiBaIE0xMzEuNjI1LDgzLjM1MTYgTDEzMy4zNzUsODMuMzUxNiBRMTMzLjM3NSw4My4zNTE2IDEzMy4zNzUsODAuNTM5MSBMMTMxLjYyNSw4MC41MzkxIFExMzEuNjI1LDgwLjUzOTEgMTMxLjYyNSw4My4zNTE2IFogTTEzMS42MjUsNzQuMTY0MSBRMTMxLjYyNSw3NC4xNjQxIDEzMS42MjUsNzYuOTc2NiBMMTMzLjM3NSw3Ni45NzY2IFExMzMuMzc1LDc2Ljk3NjYgMTMzLjM3NSw3NC4xNjQxIEwxMzEuNjI1LDc0LjE2NDEgWiBNMTI3LjM3NSw3NC44NTE2IEwxMzIuMzEyNSw3NC44NTE2IEwxMzIuMzEyNSw3My4xMDE2IEwxMjcuMzc1LDczLjEwMTYgTDEyNy4zNzUsNzQuODUxNiBaICIgZmlsbD0iIzAwMDAwMCIvPjx0ZXh0IGZpbGw9IiMwMDAwMDAiIGZvbnQtZmFtaWx5PSJzYW5zLXNlcmlmIiBmb250LXNpemU9IjEyIiBmb250LXN0eWxlPSJpdGFsaWMiIGxlbmd0aEFkanVzdD0ic3BhY2luZyIgdGV4dExlbmd0aD0iOTkiIHg9IjE0OC4yNSIgeT0iNzUuODQzOCI+JiMxNzE7RXZlbnRzTWF0Y2hlcyYjMTg3OzwvdGV4dD48dGV4dCBmaWxsPSIjMDAwMDAwIiBmb250LWZhbWlseT0ic2Fucy1zZXJpZiIgZm9udC1zaXplPSIxNCIgbGVuZ3RoQWRqdXN0PSJzcGFjaW5nIiB0ZXh0TGVuZ3RoPSI3NyIgeD0iMTU5LjI1IiB5PSI5MC41NzgxIj5TdGF0aXN0aXF1ZTwvdGV4dD48bGluZSBzdHlsZT0ic3Ryb2tlOiMxODE4MTg7c3Ryb2tlLXdpZHRoOjAuNTsiIHgxPSI0NiIgeDI9IjMxNyIgeTE9Ijk3LjMyODEiIHkyPSI5Ny4zMjgxIi8+PHJlY3QgZmlsbD0ibm9uZSIgaGVpZ2h0PSI2IiBzdHlsZT0ic3Ryb2tlOiNDODI5MzA7c3Ryb2tlLXdpZHRoOjEuMDsiIHdpZHRoPSI2IiB4PSI1MyIgeT0iMTA3LjMyMDMiLz48dGV4dCBmaWxsPSIjMDAwMDAwIiBmb250LWZhbWlseT0ic2Fucy1zZXJpZiIgZm9udC1zaXplPSIxNCIgbGVuZ3RoQWRqdXN0PSJzcGFjaW5nIiB0ZXh0TGVuZ3RoPSI3MCIgeD0iNjUiIHk9IjExNC41NjI1Ij5pZDogc3RyaW5nPC90ZXh0PjxyZWN0IGZpbGw9Im5vbmUiIGhlaWdodD0iNiIgc3R5bGU9InN0cm9rZTojQzgyOTMwO3N0cm9rZS13aWR0aDoxLjA7IiB3aWR0aD0iNiIgeD0iNTMiIHk9IjEyMi4zMDQ3Ii8+PHRleHQgZmlsbD0iIzAwMDAwMCIgZm9udC1mYW1pbHk9InNhbnMtc2VyaWYiIGZvbnQtc2l6ZT0iMTQiIGxlbmd0aEFkanVzdD0ic3BhY2luZyIgdGV4dExlbmd0aD0iMTA2IiB4PSI2NSIgeT0iMTI5LjU0NjkiPm1hdGNoSWQ6IHN0cmluZzwvdGV4dD48cmVjdCBmaWxsPSJub25lIiBoZWlnaHQ9IjYiIHN0eWxlPSJzdHJva2U6I0M4MjkzMDtzdHJva2Utd2lkdGg6MS4wOyIgd2lkdGg9IjYiIHg9IjUzIiB5PSIxMzcuMjg5MSIvPjx0ZXh0IGZpbGw9IiMwMDAwMDAiIGZvbnQtZmFtaWx5PSJzYW5zLXNlcmlmIiBmb250LXNpemU9IjE0IiBsZW5ndGhBZGp1c3Q9InNwYWNpbmciIHRleHRMZW5ndGg9IjExMiIgeD0iNjUiIHk9IjE0NC41MzEzIj5qb3VldXJJZDogc3RyaW5nPC90ZXh0PjxyZWN0IGZpbGw9Im5vbmUiIGhlaWdodD0iNiIgc3R5bGU9InN0cm9rZTojQzgyOTMwO3N0cm9rZS13aWR0aDoxLjA7IiB3aWR0aD0iNiIgeD0iNTMiIHk9IjE1Mi4yNzM0Ii8+PHRleHQgZmlsbD0iIzAwMDAwMCIgZm9udC1mYW1pbHk9InNhbnMtc2VyaWYiIGZvbnQtc2l6ZT0iMTQiIGxlbmd0aEFkanVzdD0ic3BhY2luZyIgdGV4dExlbmd0aD0iMjQ3IiB4PSI2NSIgeT0iMTU5LjUxNTYiPmRvbm5lZXM6IHsgYnV0czogaW50LCBwYXNzZXM6IGludCB9PC90ZXh0PjxsaW5lIHN0eWxlPSJzdHJva2U6IzE4MTgxODtzdHJva2Utd2lkdGg6MC41OyIgeDE9IjQ2IiB4Mj0iMzE3IiB5MT0iMTY1LjI2NTYiIHkyPSIxNjUuMjY1NiIvPjwvZz48IS0tY2xhc3MgQmlsbGV0LS0+PGcgaWQ9ImVsZW1fQmlsbGV0Ij48cmVjdCBjb2RlTGluZT0iMTUyIiBmaWxsPSIjRjA4MDgwIiBoZWlnaHQ9IjEyOC43NSIgaWQ9IkJpbGxldCIgcng9IjIuNSIgcnk9IjIuNSIgc3R5bGU9InN0cm9rZTojMTgxODE4O3N0cm9rZS13aWR0aDowLjU7IiB3aWR0aD0iMjM2IiB4PSI1NDQuNSIgeT0iNTIiLz48ZWxsaXBzZSBjeD0iNjEwLjc1IiBjeT0iNzAuOTE0MSIgZmlsbD0iI0FERDFCMiIgcng9IjExIiByeT0iMTEiIHN0eWxlPSJzdHJva2U6IzE4MTgxODtzdHJva2Utd2lkdGg6MS4wOyIvPjxwYXRoIGQ9Ik02MDguMzc1LDc1LjE2NDEgTDYwOC4zNzUsNzYuOTE0MSBMNjEzLjMxMjUsNzYuOTE0MSBMNjEzLjMxMjUsNzUuMTY0MSBMNjA4LjM3NSw3NS4xNjQxIFogTTYwOS4wNjI1LDc1Ljg1MTYgUTYwOS4wNjI1LDc1Ljg1MTYgNjA5LjA2MjUsNjYuNjY0MSBMNjA3LjMxMjUsNjYuNjY0MSBRNjA3LjMxMjUsNjYuNjY0MSA2MDcuMzEyNSw3NS44NTE2IEw2MDkuMDYyNSw3NS44NTE2IFogTTYxMi42MjUsNzUuODUxNiBMNjE0LjM3NSw3NS44NTE2IFE2MTQuMzc1LDc1Ljg1MTYgNjE0LjM3NSw3My4wMzkxIEw2MTIuNjI1LDczLjAzOTEgUTYxMi42MjUsNzMuMDM5MSA2MTIuNjI1LDc1Ljg1MTYgWiBNNjEyLjYyNSw2Ni42NjQxIFE2MTIuNjI1LDY2LjY2NDEgNjEyLjYyNSw2OS40NzY2IEw2MTQuMzc1LDY5LjQ3NjYgUTYxNC4zNzUsNjkuNDc2NiA2MTQuMzc1LDY2LjY2NDEgTDYxMi42MjUsNjYuNjY0MSBaIE02MDguMzc1LDY3LjM1MTYgTDYxMy4zMTI1LDY3LjM1MTYgTDYxMy4zMTI1LDY1LjYwMTYgTDYwOC4zNzUsNjUuNjAxNiBMNjA4LjM3NSw2Ny4zNTE2IFogIiBmaWxsPSIjMDAwMDAwIi8+PHRleHQgZmlsbD0iIzAwMDAwMCIgZm9udC1mYW1pbHk9InNhbnMtc2VyaWYiIGZvbnQtc2l6ZT0iMTIiIGZvbnQtc3R5bGU9Iml0YWxpYyIgbGVuZ3RoQWRqdXN0PSJzcGFjaW5nIiB0ZXh0TGVuZ3RoPSI5OSIgeD0iNjI5LjI1IiB5PSI2OC4zNDM4Ij4mIzE3MTtFdmVudHNNYXRjaGVzJiMxODc7PC90ZXh0Pjx0ZXh0IGZpbGw9IiMwMDAwMDAiIGZvbnQtZmFtaWx5PSJzYW5zLXNlcmlmIiBmb250LXNpemU9IjE0IiBsZW5ndGhBZGp1c3Q9InNwYWNpbmciIHRleHRMZW5ndGg9IjQyIiB4PSI2NTcuNzUiIHk9IjgzLjA3ODEiPkJpbGxldDwvdGV4dD48bGluZSBzdHlsZT0ic3Ryb2tlOiMxODE4MTg7c3Ryb2tlLXdpZHRoOjAuNTsiIHgxPSI1NDUuNSIgeDI9Ijc3OS41IiB5MT0iODkuODI4MSIgeTI9Ijg5LjgyODEiLz48cmVjdCBmaWxsPSJub25lIiBoZWlnaHQ9IjYiIHN0eWxlPSJzdHJva2U6I0M4MjkzMDtzdHJva2Utd2lkdGg6MS4wOyIgd2lkdGg9IjYiIHg9IjU1Mi41IiB5PSI5OS44MjAzIi8+PHRleHQgZmlsbD0iIzAwMDAwMCIgZm9udC1mYW1pbHk9InNhbnMtc2VyaWYiIGZvbnQtc2l6ZT0iMTQiIGxlbmd0aEFkanVzdD0ic3BhY2luZyIgdGV4dExlbmd0aD0iNzAiIHg9IjU2NC41IiB5PSIxMDcuMDYyNSI+aWQ6IHN0cmluZzwvdGV4dD48cmVjdCBmaWxsPSJub25lIiBoZWlnaHQ9IjYiIHN0eWxlPSJzdHJva2U6I0M4MjkzMDtzdHJva2Utd2lkdGg6MS4wOyIgd2lkdGg9IjYiIHg9IjU1Mi41IiB5PSIxMTQuODA0NyIvPjx0ZXh0IGZpbGw9IiMwMDAwMDAiIGZvbnQtZmFtaWx5PSJzYW5zLXNlcmlmIiBmb250LXNpemU9IjE0IiBsZW5ndGhBZGp1c3Q9InNwYWNpbmciIHRleHRMZW5ndGg9IjEzNCIgeD0iNTY0LjUiIHk9IjEyMi4wNDY5Ij5ldmVuZW1lbnRJZDogc3RyaW5nPC90ZXh0PjxyZWN0IGZpbGw9Im5vbmUiIGhlaWdodD0iNiIgc3R5bGU9InN0cm9rZTojQzgyOTMwO3N0cm9rZS13aWR0aDoxLjA7IiB3aWR0aD0iNiIgeD0iNTUyLjUiIHk9IjEyOS43ODkxIi8+PHRleHQgZmlsbD0iIzAwMDAwMCIgZm9udC1mYW1pbHk9InNhbnMtc2VyaWYiIGZvbnQtc2l6ZT0iMTQiIGxlbmd0aEFkanVzdD0ic3BhY2luZyIgdGV4dExlbmd0aD0iMTQ3IiB4PSI1NjQuNSIgeT0iMTM3LjAzMTMiPnV0aWxpc2F0ZXVySWQ6IHN0cmluZzwvdGV4dD48cmVjdCBmaWxsPSJub25lIiBoZWlnaHQ9IjYiIHN0eWxlPSJzdHJva2U6I0M4MjkzMDtzdHJva2Utd2lkdGg6MS4wOyIgd2lkdGg9IjYiIHg9IjU1Mi41IiB5PSIxNDQuNzczNCIvPjx0ZXh0IGZpbGw9IiMwMDAwMDAiIGZvbnQtZmFtaWx5PSJzYW5zLXNlcmlmIiBmb250LXNpemU9IjE0IiBsZW5ndGhBZGp1c3Q9InNwYWNpbmciIHRleHRMZW5ndGg9Ijc3IiB4PSI1NjQuNSIgeT0iMTUyLjAxNTYiPnByaXg6IGZsb2F0PC90ZXh0PjxyZWN0IGZpbGw9Im5vbmUiIGhlaWdodD0iNiIgc3R5bGU9InN0cm9rZTojQzgyOTMwO3N0cm9rZS13aWR0aDoxLjA7IiB3aWR0aD0iNiIgeD0iNTUyLjUiIHk9IjE1OS43NTc4Ii8+PHRleHQgZmlsbD0iIzAwMDAwMCIgZm9udC1mYW1pbHk9InNhbnMtc2VyaWYiIGZvbnQtc2l6ZT0iMTQiIGxlbmd0aEFkanVzdD0ic3BhY2luZyIgdGV4dExlbmd0aD0iMjEwIiB4PSI1NjQuNSIgeT0iMTY3Ij5zdGF0dXQ6ICdEaXNwb25pYmxlJyB8ICdWZW5kdSc8L3RleHQ+PGxpbmUgc3R5bGU9InN0cm9rZTojMTgxODE4O3N0cm9rZS13aWR0aDowLjU7IiB4MT0iNTQ1LjUiIHgyPSI3NzkuNSIgeTE9IjE3Mi43NSIgeTI9IjE3Mi43NSIvPjwvZz48IS0tY2xhc3MgR2FsZXJpZS0tPjxnIGlkPSJlbGVtX0dhbGVyaWUiPjxyZWN0IGNvZGVMaW5lPSIxNjkiIGZpbGw9IiNEM0QzRDMiIGhlaWdodD0iMTEzLjc2NTYiIGlkPSJHYWxlcmllIiByeD0iMi41IiByeT0iMi41IiBzdHlsZT0ic3Ryb2tlOiMxODE4MTg7c3Ryb2tlLXdpZHRoOjAuNTsiIHdpZHRoPSIzMDciIHg9IjE5MDIiIHk9IjMzMSIvPjxlbGxpcHNlIGN4PSIyMDE0Ljc1IiBjeT0iMzQ5LjkxNDEiIGZpbGw9IiNBREQxQjIiIHJ4PSIxMSIgcnk9IjExIiBzdHlsZT0ic3Ryb2tlOiMxODE4MTg7c3Ryb2tlLXdpZHRoOjEuMDsiLz48cGF0aCBkPSJNMjAxMi4zNzUsMzU0LjE2NDEgTDIwMTIuMzc1LDM1NS45MTQxIEwyMDE3LjMxMjUsMzU1LjkxNDEgTDIwMTcuMzEyNSwzNTQuMTY0MSBMMjAxMi4zNzUsMzU0LjE2NDEgWiBNMjAxMy4wNjI1LDM1NC44NTE2IFEyMDEzLjA2MjUsMzU0Ljg1MTYgMjAxMy4wNjI1LDM0NS42NjQxIEwyMDExLjMxMjUsMzQ1LjY2NDEgUTIwMTEuMzEyNSwzNDUuNjY0MSAyMDExLjMxMjUsMzU0Ljg1MTYgTDIwMTMuMDYyNSwzNTQuODUxNiBaIE0yMDE2LjYyNSwzNTQuODUxNiBMMjAxOC4zNzUsMzU0Ljg1MTYgUTIwMTguMzc1LDM1NC44NTE2IDIwMTguMzc1LDM1Mi4wMzkxIEwyMDE2LjYyNSwzNTIuMDM5MSBRMjAxNi42MjUsMzUyLjAzOTEgMjAxNi42MjUsMzU0Ljg1MTYgWiBNMjAxNi42MjUsMzQ1LjY2NDEgUTIwMTYuNjI1LDM0NS42NjQxIDIwMTYuNjI1LDM0OC40NzY2IEwyMDE4LjM3NSwzNDguNDc2NiBRMjAxOC4zNzUsMzQ4LjQ3NjYgMjAxOC4zNzUsMzQ1LjY2NDEgTDIwMTYuNjI1LDM0NS42NjQxIFogTTIwMTIuMzc1LDM0Ni4zNTE2IEwyMDE3LjMxMjUsMzQ2LjM1MTYgTDIwMTcuMzEyNSwzNDQuNjAxNiBMMjAxMi4zNzUsMzQ0LjYwMTYgTDIwMTIuMzc1LDM0Ni4zNTE2IFogIiBmaWxsPSIjMDAwMDAwIi8+PHRleHQgZmlsbD0iIzAwMDAwMCIgZm9udC1mYW1pbHk9InNhbnMtc2VyaWYiIGZvbnQtc2l6ZT0iMTIiIGZvbnQtc3R5bGU9Iml0YWxpYyIgbGVuZ3RoQWRqdXN0PSJzcGFjaW5nIiB0ZXh0TGVuZ3RoPSI3NyIgeD0iMjAzMy4yNSIgeT0iMzQ3LjM0MzgiPiYjMTcxO011bHRpbWVkaWEmIzE4Nzs8L3RleHQ+PHRleHQgZmlsbD0iIzAwMDAwMCIgZm9udC1mYW1pbHk9InNhbnMtc2VyaWYiIGZvbnQtc2l6ZT0iMTQiIGxlbmd0aEFkanVzdD0ic3BhY2luZyIgdGV4dExlbmd0aD0iNDkiIHg9IjIwNDcuMjUiIHk9IjM2Mi4wNzgxIj5HYWxlcmllPC90ZXh0PjxsaW5lIHN0eWxlPSJzdHJva2U6IzE4MTgxODtzdHJva2Utd2lkdGg6MC41OyIgeDE9IjE5MDMiIHgyPSIyMjA4IiB5MT0iMzY4LjgyODEiIHkyPSIzNjguODI4MSIvPjxyZWN0IGZpbGw9Im5vbmUiIGhlaWdodD0iNiIgc3R5bGU9InN0cm9rZTojQzgyOTMwO3N0cm9rZS13aWR0aDoxLjA7IiB3aWR0aD0iNiIgeD0iMTkxMCIgeT0iMzc4LjgyMDMiLz48dGV4dCBmaWxsPSIjMDAwMDAwIiBmb250LWZhbWlseT0ic2Fucy1zZXJpZiIgZm9udC1zaXplPSIxNCIgbGVuZ3RoQWRqdXN0PSJzcGFjaW5nIiB0ZXh0TGVuZ3RoPSI3MCIgeD0iMTkyMiIgeT0iMzg2LjA2MjUiPmlkOiBzdHJpbmc8L3RleHQ+PHJlY3QgZmlsbD0ibm9uZSIgaGVpZ2h0PSI2IiBzdHlsZT0ic3Ryb2tlOiNDODI5MzA7c3Ryb2tlLXdpZHRoOjEuMDsiIHdpZHRoPSI2IiB4PSIxOTEwIiB5PSIzOTMuODA0NyIvPjx0ZXh0IGZpbGw9IiMwMDAwMDAiIGZvbnQtZmFtaWx5PSJzYW5zLXNlcmlmIiBmb250LXNpemU9IjE0IiBsZW5ndGhBZGp1c3Q9InNwYWNpbmciIHRleHRMZW5ndGg9IjExMiIgeD0iMTkyMiIgeT0iNDAxLjA0NjkiPmVxdWlwZUlkOiBzdHJpbmc8L3RleHQ+PHJlY3QgZmlsbD0ibm9uZSIgaGVpZ2h0PSI2IiBzdHlsZT0ic3Ryb2tlOiNDODI5MzA7c3Ryb2tlLXdpZHRoOjEuMDsiIHdpZHRoPSI2IiB4PSIxOTEwIiB5PSI0MDguNzg5MSIvPjx0ZXh0IGZpbGw9IiMwMDAwMDAiIGZvbnQtZmFtaWx5PSJzYW5zLXNlcmlmIiBmb250LXNpemU9IjE0IiBsZW5ndGhBZGp1c3Q9InNwYWNpbmciIHRleHRMZW5ndGg9IjkxIiB4PSIxOTIyIiB5PSI0MTYuMDMxMyI+dGl0cmU6IHN0cmluZzwvdGV4dD48cmVjdCBmaWxsPSJub25lIiBoZWlnaHQ9IjYiIHN0eWxlPSJzdHJva2U6I0M4MjkzMDtzdHJva2Utd2lkdGg6MS4wOyIgd2lkdGg9IjYiIHg9IjE5MTAiIHk9IjQyMy43NzM0Ii8+PHRleHQgZmlsbD0iIzAwMDAwMCIgZm9udC1mYW1pbHk9InNhbnMtc2VyaWYiIGZvbnQtc2l6ZT0iMTQiIGxlbmd0aEFkanVzdD0ic3BhY2luZyIgdGV4dExlbmd0aD0iMjgxIiB4PSIxOTIyIiB5PSI0MzEuMDE1NiI+bWVkaWFJZHM6IHN0cmluZ1tdICcgUmVmZXJlbmNlcyB0byBNZWRpYTwvdGV4dD48bGluZSBzdHlsZT0ic3Ryb2tlOiMxODE4MTg7c3Ryb2tlLXdpZHRoOjAuNTsiIHgxPSIxOTAzIiB4Mj0iMjIwOCIgeTE9IjQzNi43NjU2IiB5Mj0iNDM2Ljc2NTYiLz48L2c+PCEtLWNsYXNzIE1lZGlhLS0+PGcgaWQ9ImVsZW1fTWVkaWEiPjxyZWN0IGNvZGVMaW5lPSIxNzYiIGZpbGw9IiNEM0QzRDMiIGhlaWdodD0iMTI4Ljc1IiBpZD0iTWVkaWEiIHJ4PSIyLjUiIHJ5PSIyLjUiIHN0eWxlPSJzdHJva2U6IzE4MTgxODtzdHJva2Utd2lkdGg6MC41OyIgd2lkdGg9IjI4OCIgeD0iMTkxMS41IiB5PSI1NjUiLz48ZWxsaXBzZSBjeD0iMjAxNC43NSIgY3k9IjU4My45MTQxIiBmaWxsPSIjQUREMUIyIiByeD0iMTEiIHJ5PSIxMSIgc3R5bGU9InN0cm9rZTojMTgxODE4O3N0cm9rZS13aWR0aDoxLjA7Ii8+PHBhdGggZD0iTTIwMTIuMzc1LDU4OC4xNjQxIEwyMDEyLjM3NSw1ODkuOTE0MSBMMjAxNy4zMTI1LDU4OS45MTQxIEwyMDE3LjMxMjUsNTg4LjE2NDEgTDIwMTIuMzc1LDU4OC4xNjQxIFogTTIwMTMuMDYyNSw1ODguODUxNiBRMjAxMy4wNjI1LDU4OC44NTE2IDIwMTMuMDYyNSw1NzkuNjY0MSBMMjAxMS4zMTI1LDU3OS42NjQxIFEyMDExLjMxMjUsNTc5LjY2NDEgMjAxMS4zMTI1LDU4OC44NTE2IEwyMDEzLjA2MjUsNTg4Ljg1MTYgWiBNMjAxNi42MjUsNTg4Ljg1MTYgTDIwMTguMzc1LDU4OC44NTE2IFEyMDE4LjM3NSw1ODguODUxNiAyMDE4LjM3NSw1ODYuMDM5MSBMMjAxNi42MjUsNTg2LjAzOTEgUTIwMTYuNjI1LDU4Ni4wMzkxIDIwMTYuNjI1LDU4OC44NTE2IFogTTIwMTYuNjI1LDU3OS42NjQxIFEyMDE2LjYyNSw1NzkuNjY0MSAyMDE2LjYyNSw1ODIuNDc2NiBMMjAxOC4zNzUsNTgyLjQ3NjYgUTIwMTguMzc1LDU4Mi40NzY2IDIwMTguMzc1LDU3OS42NjQxIEwyMDE2LjYyNSw1NzkuNjY0MSBaIE0yMDEyLjM3NSw1ODAuMzUxNiBMMjAxNy4zMTI1LDU4MC4zNTE2IEwyMDE3LjMxMjUsNTc4LjYwMTYgTDIwMTIuMzc1LDU3OC42MDE2IEwyMDEyLjM3NSw1ODAuMzUxNiBaICIgZmlsbD0iIzAwMDAwMCIvPjx0ZXh0IGZpbGw9IiMwMDAwMDAiIGZvbnQtZmFtaWx5PSJzYW5zLXNlcmlmIiBmb250LXNpemU9IjEyIiBmb250LXN0eWxlPSJpdGFsaWMiIGxlbmd0aEFkanVzdD0ic3BhY2luZyIgdGV4dExlbmd0aD0iNzciIHg9IjIwMzMuMjUiIHk9IjU4MS4zNDM4Ij4mIzE3MTtNdWx0aW1lZGlhJiMxODc7PC90ZXh0Pjx0ZXh0IGZpbGw9IiMwMDAwMDAiIGZvbnQtZmFtaWx5PSJzYW5zLXNlcmlmIiBmb250LXNpemU9IjE0IiBsZW5ndGhBZGp1c3Q9InNwYWNpbmciIHRleHRMZW5ndGg9IjM1IiB4PSIyMDU0LjI1IiB5PSI1OTYuMDc4MSI+TWVkaWE8L3RleHQ+PGxpbmUgc3R5bGU9InN0cm9rZTojMTgxODE4O3N0cm9rZS13aWR0aDowLjU7IiB4MT0iMTkxMi41IiB4Mj0iMjE5OC41IiB5MT0iNjAyLjgyODEiIHkyPSI2MDIuODI4MSIvPjxyZWN0IGZpbGw9Im5vbmUiIGhlaWdodD0iNiIgc3R5bGU9InN0cm9rZTojQzgyOTMwO3N0cm9rZS13aWR0aDoxLjA7IiB3aWR0aD0iNiIgeD0iMTkxOS41IiB5PSI2MTIuODIwMyIvPjx0ZXh0IGZpbGw9IiMwMDAwMDAiIGZvbnQtZmFtaWx5PSJzYW5zLXNlcmlmIiBmb250LXNpemU9IjE0IiBsZW5ndGhBZGp1c3Q9InNwYWNpbmciIHRleHRMZW5ndGg9IjcwIiB4PSIxOTMxLjUiIHk9IjYyMC4wNjI1Ij5pZDogc3RyaW5nPC90ZXh0PjxyZWN0IGZpbGw9Im5vbmUiIGhlaWdodD0iNiIgc3R5bGU9InN0cm9rZTojQzgyOTMwO3N0cm9rZS13aWR0aDoxLjA7IiB3aWR0aD0iNiIgeD0iMTkxOS41IiB5PSI2MjcuODA0NyIvPjx0ZXh0IGZpbGw9IiMwMDAwMDAiIGZvbnQtZmFtaWx5PSJzYW5zLXNlcmlmIiBmb250LXNpemU9IjE0IiBsZW5ndGhBZGp1c3Q9InNwYWNpbmciIHRleHRMZW5ndGg9IjE2MSIgeD0iMTkzMS41IiB5PSI2MzUuMDQ2OSI+dHlwZTogJ1Bob3RvJyB8ICdWaWRlbyc8L3RleHQ+PHJlY3QgZmlsbD0ibm9uZSIgaGVpZ2h0PSI2IiBzdHlsZT0ic3Ryb2tlOiNDODI5MzA7c3Ryb2tlLXdpZHRoOjEuMDsiIHdpZHRoPSI2IiB4PSIxOTE5LjUiIHk9IjY0Mi43ODkxIi8+PHRleHQgZmlsbD0iIzAwMDAwMCIgZm9udC1mYW1pbHk9InNhbnMtc2VyaWYiIGZvbnQtc2l6ZT0iMTQiIGxlbmd0aEFkanVzdD0ic3BhY2luZyIgdGV4dExlbmd0aD0iNzciIHg9IjE5MzEuNSIgeT0iNjUwLjAzMTMiPnVybDogc3RyaW5nPC90ZXh0PjxyZWN0IGZpbGw9Im5vbmUiIGhlaWdodD0iNiIgc3R5bGU9InN0cm9rZTojQzgyOTMwO3N0cm9rZS13aWR0aDoxLjA7IiB3aWR0aD0iNiIgeD0iMTkxOS41IiB5PSI2NTcuNzczNCIvPjx0ZXh0IGZpbGw9IiMwMDAwMDAiIGZvbnQtZmFtaWx5PSJzYW5zLXNlcmlmIiBmb250LXNpemU9IjE0IiBsZW5ndGhBZGp1c3Q9InNwYWNpbmciIHRleHRMZW5ndGg9IjEzMyIgeD0iMTkzMS41IiB5PSI2NjUuMDE1NiI+ZGVzY3JpcHRpb246IHN0cmluZzwvdGV4dD48cmVjdCBmaWxsPSJub25lIiBoZWlnaHQ9IjYiIHN0eWxlPSJzdHJva2U6I0M4MjkzMDtzdHJva2Utd2lkdGg6MS4wOyIgd2lkdGg9IjYiIHg9IjE5MTkuNSIgeT0iNjcyLjc1NzgiLz48dGV4dCBmaWxsPSIjMDAwMDAwIiBmb250LWZhbWlseT0ic2Fucy1zZXJpZiIgZm9udC1zaXplPSIxNCIgbGVuZ3RoQWRqdXN0PSJzcGFjaW5nIiB0ZXh0TGVuZ3RoPSIyNjIiIHg9IjE5MzEuNSIgeT0iNjgwIj5uaXZlYXVBYm9ubmVtZW50OiAnQmFzaWMnIHwgJ1ByZW1pdW0nPC90ZXh0PjxsaW5lIHN0eWxlPSJzdHJva2U6IzE4MTgxODtzdHJva2Utd2lkdGg6MC41OyIgeDE9IjE5MTIuNSIgeDI9IjIxOTguNSIgeTE9IjY4NS43NSIgeTI9IjY4NS43NSIvPjwvZz48IS0tY2xhc3MgRm9ydW0tLT48ZyBpZD0iZWxlbV9Gb3J1bSI+PHJlY3QgY29kZUxpbmU9IjE4OCIgZmlsbD0iI0ZGQjZDMSIgaGVpZ2h0PSI5OC43ODEzIiBpZD0iRm9ydW0iIHJ4PSIyLjUiIHJ5PSIyLjUiIHN0eWxlPSJzdHJva2U6IzE4MTgxODtzdHJva2Utd2lkdGg6MC41OyIgd2lkdGg9IjEzOCIgeD0iMTY5NS41IiB5PSI2NyIvPjxlbGxpcHNlIGN4PSIxNzI4LjA1IiBjeT0iODUuOTE0MSIgZmlsbD0iI0FERDFCMiIgcng9IjExIiByeT0iMTEiIHN0eWxlPSJzdHJva2U6IzE4MTgxODtzdHJva2Utd2lkdGg6MS4wOyIvPjxwYXRoIGQ9Ik0xNzI1LjY3NSw5MC4xNjQxIEwxNzI1LjY3NSw5MS45MTQxIEwxNzMwLjYxMjUsOTEuOTE0MSBMMTczMC42MTI1LDkwLjE2NDEgTDE3MjUuNjc1LDkwLjE2NDEgWiBNMTcyNi4zNjI1LDkwLjg1MTYgUTE3MjYuMzYyNSw5MC44NTE2IDE3MjYuMzYyNSw4MS42NjQxIEwxNzI0LjYxMjUsODEuNjY0MSBRMTcyNC42MTI1LDgxLjY2NDEgMTcyNC42MTI1LDkwLjg1MTYgTDE3MjYuMzYyNSw5MC44NTE2IFogTTE3MjkuOTI1LDkwLjg1MTYgTDE3MzEuNjc1LDkwLjg1MTYgUTE3MzEuNjc1LDkwLjg1MTYgMTczMS42NzUsODguMDM5MSBMMTcyOS45MjUsODguMDM5MSBRMTcyOS45MjUsODguMDM5MSAxNzI5LjkyNSw5MC44NTE2IFogTTE3MjkuOTI1LDgxLjY2NDEgUTE3MjkuOTI1LDgxLjY2NDEgMTcyOS45MjUsODQuNDc2NiBMMTczMS42NzUsODQuNDc2NiBRMTczMS42NzUsODQuNDc2NiAxNzMxLjY3NSw4MS42NjQxIEwxNzI5LjkyNSw4MS42NjQxIFogTTE3MjUuNjc1LDgyLjM1MTYgTDE3MzAuNjEyNSw4Mi4zNTE2IEwxNzMwLjYxMjUsODAuNjAxNiBMMTcyNS42NzUsODAuNjAxNiBMMTcyNS42NzUsODIuMzUxNiBaICIgZmlsbD0iIzAwMDAwMCIvPjx0ZXh0IGZpbGw9IiMwMDAwMDAiIGZvbnQtZmFtaWx5PSJzYW5zLXNlcmlmIiBmb250LXNpemU9IjEyIiBmb250LXN0eWxlPSJpdGFsaWMiIGxlbmd0aEFkanVzdD0ic3BhY2luZyIgdGV4dExlbmd0aD0iNzEiIHg9IjE3NDMuOTUiIHk9IjgzLjM0MzgiPiYjMTcxO0NvbW11bml0eSYjMTg3OzwvdGV4dD48dGV4dCBmaWxsPSIjMDAwMDAwIiBmb250LWZhbWlseT0ic2Fucy1zZXJpZiIgZm9udC1zaXplPSIxNCIgbGVuZ3RoQWRqdXN0PSJzcGFjaW5nIiB0ZXh0TGVuZ3RoPSIzNiIgeD0iMTc2MS40NSIgeT0iOTguMDc4MSI+Rm9ydW08L3RleHQ+PGxpbmUgc3R5bGU9InN0cm9rZTojMTgxODE4O3N0cm9rZS13aWR0aDowLjU7IiB4MT0iMTY5Ni41IiB4Mj0iMTgzMi41IiB5MT0iMTA0LjgyODEiIHkyPSIxMDQuODI4MSIvPjxyZWN0IGZpbGw9Im5vbmUiIGhlaWdodD0iNiIgc3R5bGU9InN0cm9rZTojQzgyOTMwO3N0cm9rZS13aWR0aDoxLjA7IiB3aWR0aD0iNiIgeD0iMTcwMy41IiB5PSIxMTQuODIwMyIvPjx0ZXh0IGZpbGw9IiMwMDAwMDAiIGZvbnQtZmFtaWx5PSJzYW5zLXNlcmlmIiBmb250LXNpemU9IjE0IiBsZW5ndGhBZGp1c3Q9InNwYWNpbmciIHRleHRMZW5ndGg9IjcwIiB4PSIxNzE1LjUiIHk9IjEyMi4wNjI1Ij5pZDogc3RyaW5nPC90ZXh0PjxyZWN0IGZpbGw9Im5vbmUiIGhlaWdodD0iNiIgc3R5bGU9InN0cm9rZTojQzgyOTMwO3N0cm9rZS13aWR0aDoxLjA7IiB3aWR0aD0iNiIgeD0iMTcwMy41IiB5PSIxMjkuODA0NyIvPjx0ZXh0IGZpbGw9IiMwMDAwMDAiIGZvbnQtZmFtaWx5PSJzYW5zLXNlcmlmIiBmb250LXNpemU9IjE0IiBsZW5ndGhBZGp1c3Q9InNwYWNpbmciIHRleHRMZW5ndGg9IjExMiIgeD0iMTcxNS41IiB5PSIxMzcuMDQ2OSI+ZXF1aXBlSWQ6IHN0cmluZzwvdGV4dD48cmVjdCBmaWxsPSJub25lIiBoZWlnaHQ9IjYiIHN0eWxlPSJzdHJva2U6I0M4MjkzMDtzdHJva2Utd2lkdGg6MS4wOyIgd2lkdGg9IjYiIHg9IjE3MDMuNSIgeT0iMTQ0Ljc4OTEiLz48dGV4dCBmaWxsPSIjMDAwMDAwIiBmb250LWZhbWlseT0ic2Fucy1zZXJpZiIgZm9udC1zaXplPSIxNCIgbGVuZ3RoQWRqdXN0PSJzcGFjaW5nIiB0ZXh0TGVuZ3RoPSI3OCIgeD0iMTcxNS41IiB5PSIxNTIuMDMxMyI+bm9tOiBzdHJpbmc8L3RleHQ+PGxpbmUgc3R5bGU9InN0cm9rZTojMTgxODE4O3N0cm9rZS13aWR0aDowLjU7IiB4MT0iMTY5Ni41IiB4Mj0iMTgzMi41IiB5MT0iMTU3Ljc4MTMiIHkyPSIxNTcuNzgxMyIvPjwvZz48IS0tY2xhc3MgRGlzY3Vzc2lvbi0tPjxnIGlkPSJlbGVtX0Rpc2N1c3Npb24iPjxyZWN0IGNvZGVMaW5lPSIxOTQiIGZpbGw9IiNGRkI2QzEiIGhlaWdodD0iMTEzLjc2NTYiIGlkPSJEaXNjdXNzaW9uIiByeD0iMi41IiByeT0iMi41IiBzdHlsZT0ic3Ryb2tlOiMxODE4MTg7c3Ryb2tlLXdpZHRoOjAuNTsiIHdpZHRoPSIxNjAiIHg9IjE2MzYuNSIgeT0iMzMxIi8+PGVsbGlwc2UgY3g9IjE2NzcuNiIgY3k9IjM0OS45MTQxIiBmaWxsPSIjQUREMUIyIiByeD0iMTEiIHJ5PSIxMSIgc3R5bGU9InN0cm9rZTojMTgxODE4O3N0cm9rZS13aWR0aDoxLjA7Ii8+PHBhdGggZD0iTTE2NzUuMjI1LDM1NC4xNjQxIEwxNjc1LjIyNSwzNTUuOTE0MSBMMTY4MC4xNjI1LDM1NS45MTQxIEwxNjgwLjE2MjUsMzU0LjE2NDEgTDE2NzUuMjI1LDM1NC4xNjQxIFogTTE2NzUuOTEyNSwzNTQuODUxNiBRMTY3NS45MTI1LDM1NC44NTE2IDE2NzUuOTEyNSwzNDUuNjY0MSBMMTY3NC4xNjI1LDM0NS42NjQxIFExNjc0LjE2MjUsMzQ1LjY2NDEgMTY3NC4xNjI1LDM1NC44NTE2IEwxNjc1LjkxMjUsMzU0Ljg1MTYgWiBNMTY3OS40NzUsMzU0Ljg1MTYgTDE2ODEuMjI1LDM1NC44NTE2IFExNjgxLjIyNSwzNTQuODUxNiAxNjgxLjIyNSwzNTIuMDM5MSBMMTY3OS40NzUsMzUyLjAzOTEgUTE2NzkuNDc1LDM1Mi4wMzkxIDE2NzkuNDc1LDM1NC44NTE2IFogTTE2NzkuNDc1LDM0NS42NjQxIFExNjc5LjQ3NSwzNDUuNjY0MSAxNjc5LjQ3NSwzNDguNDc2NiBMMTY4MS4yMjUsMzQ4LjQ3NjYgUTE2ODEuMjI1LDM0OC40NzY2IDE2ODEuMjI1LDM0NS42NjQxIEwxNjc5LjQ3NSwzNDUuNjY0MSBaIE0xNjc1LjIyNSwzNDYuMzUxNiBMMTY4MC4xNjI1LDM0Ni4zNTE2IEwxNjgwLjE2MjUsMzQ0LjYwMTYgTDE2NzUuMjI1LDM0NC42MDE2IEwxNjc1LjIyNSwzNDYuMzUxNiBaICIgZmlsbD0iIzAwMDAwMCIvPjx0ZXh0IGZpbGw9IiMwMDAwMDAiIGZvbnQtZmFtaWx5PSJzYW5zLXNlcmlmIiBmb250LXNpemU9IjEyIiBmb250LXN0eWxlPSJpdGFsaWMiIGxlbmd0aEFkanVzdD0ic3BhY2luZyIgdGV4dExlbmd0aD0iNzEiIHg9IjE2OTYuOSIgeT0iMzQ3LjM0MzgiPiYjMTcxO0NvbW11bml0eSYjMTg3OzwvdGV4dD48dGV4dCBmaWxsPSIjMDAwMDAwIiBmb250LWZhbWlseT0ic2Fucy1zZXJpZiIgZm9udC1zaXplPSIxNCIgbGVuZ3RoQWRqdXN0PSJzcGFjaW5nIiB0ZXh0TGVuZ3RoPSI3MCIgeD0iMTY5Ny40IiB5PSIzNjIuMDc4MSI+RGlzY3Vzc2lvbjwvdGV4dD48bGluZSBzdHlsZT0ic3Ryb2tlOiMxODE4MTg7c3Ryb2tlLXdpZHRoOjAuNTsiIHgxPSIxNjM3LjUiIHgyPSIxNzk1LjUiIHkxPSIzNjguODI4MSIgeTI9IjM2OC44MjgxIi8+PHJlY3QgZmlsbD0ibm9uZSIgaGVpZ2h0PSI2IiBzdHlsZT0ic3Ryb2tlOiNDODI5MzA7c3Ryb2tlLXdpZHRoOjEuMDsiIHdpZHRoPSI2IiB4PSIxNjQ0LjUiIHk9IjM3OC44MjAzIi8+PHRleHQgZmlsbD0iIzAwMDAwMCIgZm9udC1mYW1pbHk9InNhbnMtc2VyaWYiIGZvbnQtc2l6ZT0iMTQiIGxlbmd0aEFkanVzdD0ic3BhY2luZyIgdGV4dExlbmd0aD0iNzAiIHg9IjE2NTYuNSIgeT0iMzg2LjA2MjUiPmlkOiBzdHJpbmc8L3RleHQ+PHJlY3QgZmlsbD0ibm9uZSIgaGVpZ2h0PSI2IiBzdHlsZT0ic3Ryb2tlOiNDODI5MzA7c3Ryb2tlLXdpZHRoOjEuMDsiIHdpZHRoPSI2IiB4PSIxNjQ0LjUiIHk9IjM5My44MDQ3Ii8+PHRleHQgZmlsbD0iIzAwMDAwMCIgZm9udC1mYW1pbHk9InNhbnMtc2VyaWYiIGZvbnQtc2l6ZT0iMTQiIGxlbmd0aEFkanVzdD0ic3BhY2luZyIgdGV4dExlbmd0aD0iMTA2IiB4PSIxNjU2LjUiIHk9IjQwMS4wNDY5Ij5mb3J1bUlkOiBzdHJpbmc8L3RleHQ+PHJlY3QgZmlsbD0ibm9uZSIgaGVpZ2h0PSI2IiBzdHlsZT0ic3Ryb2tlOiNDODI5MzA7c3Ryb2tlLXdpZHRoOjEuMDsiIHdpZHRoPSI2IiB4PSIxNjQ0LjUiIHk9IjQwOC43ODkxIi8+PHRleHQgZmlsbD0iIzAwMDAwMCIgZm9udC1mYW1pbHk9InNhbnMtc2VyaWYiIGZvbnQtc2l6ZT0iMTQiIGxlbmd0aEFkanVzdD0ic3BhY2luZyIgdGV4dExlbmd0aD0iOTEiIHg9IjE2NTYuNSIgeT0iNDE2LjAzMTMiPnRpdHJlOiBzdHJpbmc8L3RleHQ+PHJlY3QgZmlsbD0ibm9uZSIgaGVpZ2h0PSI2IiBzdHlsZT0ic3Ryb2tlOiNDODI5MzA7c3Ryb2tlLXdpZHRoOjEuMDsiIHdpZHRoPSI2IiB4PSIxNjQ0LjUiIHk9IjQyMy43NzM0Ii8+PHRleHQgZmlsbD0iIzAwMDAwMCIgZm9udC1mYW1pbHk9InNhbnMtc2VyaWYiIGZvbnQtc2l6ZT0iMTQiIGxlbmd0aEFkanVzdD0ic3BhY2luZyIgdGV4dExlbmd0aD0iMTM0IiB4PSIxNjU2LjUiIHk9IjQzMS4wMTU2Ij5tZXNzYWdlczogTWVzc2FnZVtdPC90ZXh0PjxsaW5lIHN0eWxlPSJzdHJva2U6IzE4MTgxODtzdHJva2Utd2lkdGg6MC41OyIgeDE9IjE2MzcuNSIgeDI9IjE3OTUuNSIgeTE9IjQzNi43NjU2IiB5Mj0iNDM2Ljc2NTYiLz48L2c+PCEtLWNsYXNzIE1lc3NhZ2UtLT48ZyBpZD0iZWxlbV9NZXNzYWdlIj48cmVjdCBjb2RlTGluZT0iMjAxIiBmaWxsPSIjRkZCNkMxIiBoZWlnaHQ9IjEyOC43NSIgaWQ9Ik1lc3NhZ2UiIHJ4PSIyLjUiIHJ5PSIyLjUiIHN0eWxlPSJzdHJva2U6IzE4MTgxODtzdHJva2Utd2lkdGg6MC41OyIgd2lkdGg9IjE3MyIgeD0iMTQ4NyIgeT0iNTIiLz48ZWxsaXBzZSBjeD0iMTUzNS43NSIgY3k9IjcwLjkxNDEiIGZpbGw9IiNBREQxQjIiIHJ4PSIxMSIgcnk9IjExIiBzdHlsZT0ic3Ryb2tlOiMxODE4MTg7c3Ryb2tlLXdpZHRoOjEuMDsiLz48cGF0aCBkPSJNMTUzMy4zNzUsNzUuMTY0MSBMMTUzMy4zNzUsNzYuOTE0MSBMMTUzOC4zMTI1LDc2LjkxNDEgTDE1MzguMzEyNSw3NS4xNjQxIEwxNTMzLjM3NSw3NS4xNjQxIFogTTE1MzQuMDYyNSw3NS44NTE2IFExNTM0LjA2MjUsNzUuODUxNiAxNTM0LjA2MjUsNjYuNjY0MSBMMTUzMi4zMTI1LDY2LjY2NDEgUTE1MzIuMzEyNSw2Ni42NjQxIDE1MzIuMzEyNSw3NS44NTE2IEwxNTM0LjA2MjUsNzUuODUxNiBaIE0xNTM3LjYyNSw3NS44NTE2IEwxNTM5LjM3NSw3NS44NTE2IFExNTM5LjM3NSw3NS44NTE2IDE1MzkuMzc1LDczLjAzOTEgTDE1MzcuNjI1LDczLjAzOTEgUTE1MzcuNjI1LDczLjAzOTEgMTUzNy42MjUsNzUuODUxNiBaIE0xNTM3LjYyNSw2Ni42NjQxIFExNTM3LjYyNSw2Ni42NjQxIDE1MzcuNjI1LDY5LjQ3NjYgTDE1MzkuMzc1LDY5LjQ3NjYgUTE1MzkuMzc1LDY5LjQ3NjYgMTUzOS4zNzUsNjYuNjY0MSBMMTUzNy42MjUsNjYuNjY0MSBaIE0xNTMzLjM3NSw2Ny4zNTE2IEwxNTM4LjMxMjUsNjcuMzUxNiBMMTUzOC4zMTI1LDY1LjYwMTYgTDE1MzMuMzc1LDY1LjYwMTYgTDE1MzMuMzc1LDY3LjM1MTYgWiAiIGZpbGw9IiMwMDAwMDAiLz48dGV4dCBmaWxsPSIjMDAwMDAwIiBmb250LWZhbWlseT0ic2Fucy1zZXJpZiIgZm9udC1zaXplPSIxMiIgZm9udC1zdHlsZT0iaXRhbGljIiBsZW5ndGhBZGp1c3Q9InNwYWNpbmciIHRleHRMZW5ndGg9IjcxIiB4PSIxNTU0LjI1IiB5PSI2OC4zNDM4Ij4mIzE3MTtDb21tdW5pdHkmIzE4Nzs8L3RleHQ+PHRleHQgZmlsbD0iIzAwMDAwMCIgZm9udC1mYW1pbHk9InNhbnMtc2VyaWYiIGZvbnQtc2l6ZT0iMTQiIGxlbmd0aEFkanVzdD0ic3BhY2luZyIgdGV4dExlbmd0aD0iNDkiIHg9IjE1NjUuMjUiIHk9IjgzLjA3ODEiPk1lc3NhZ2U8L3RleHQ+PGxpbmUgc3R5bGU9InN0cm9rZTojMTgxODE4O3N0cm9rZS13aWR0aDowLjU7IiB4MT0iMTQ4OCIgeDI9IjE2NTkiIHkxPSI4OS44MjgxIiB5Mj0iODkuODI4MSIvPjxyZWN0IGZpbGw9Im5vbmUiIGhlaWdodD0iNiIgc3R5bGU9InN0cm9rZTojQzgyOTMwO3N0cm9rZS13aWR0aDoxLjA7IiB3aWR0aD0iNiIgeD0iMTQ5NSIgeT0iOTkuODIwMyIvPjx0ZXh0IGZpbGw9IiMwMDAwMDAiIGZvbnQtZmFtaWx5PSJzYW5zLXNlcmlmIiBmb250LXNpemU9IjE0IiBsZW5ndGhBZGp1c3Q9InNwYWNpbmciIHRleHRMZW5ndGg9IjcwIiB4PSIxNTA3IiB5PSIxMDcuMDYyNSI+aWQ6IHN0cmluZzwvdGV4dD48cmVjdCBmaWxsPSJub25lIiBoZWlnaHQ9IjYiIHN0eWxlPSJzdHJva2U6I0M4MjkzMDtzdHJva2Utd2lkdGg6MS4wOyIgd2lkdGg9IjYiIHg9IjE0OTUiIHk9IjExNC44MDQ3Ii8+PHRleHQgZmlsbD0iIzAwMDAwMCIgZm9udC1mYW1pbHk9InNhbnMtc2VyaWYiIGZvbnQtc2l6ZT0iMTQiIGxlbmd0aEFkanVzdD0ic3BhY2luZyIgdGV4dExlbmd0aD0iMTQwIiB4PSIxNTA3IiB5PSIxMjIuMDQ2OSI+ZGlzY3Vzc2lvbklkOiBzdHJpbmc8L3RleHQ+PHJlY3QgZmlsbD0ibm9uZSIgaGVpZ2h0PSI2IiBzdHlsZT0ic3Ryb2tlOiNDODI5MzA7c3Ryb2tlLXdpZHRoOjEuMDsiIHdpZHRoPSI2IiB4PSIxNDk1IiB5PSIxMjkuNzg5MSIvPjx0ZXh0IGZpbGw9IiMwMDAwMDAiIGZvbnQtZmFtaWx5PSJzYW5zLXNlcmlmIiBmb250LXNpemU9IjE0IiBsZW5ndGhBZGp1c3Q9InNwYWNpbmciIHRleHRMZW5ndGg9IjE0NyIgeD0iMTUwNyIgeT0iMTM3LjAzMTMiPnV0aWxpc2F0ZXVySWQ6IHN0cmluZzwvdGV4dD48cmVjdCBmaWxsPSJub25lIiBoZWlnaHQ9IjYiIHN0eWxlPSJzdHJva2U6I0M4MjkzMDtzdHJva2Utd2lkdGg6MS4wOyIgd2lkdGg9IjYiIHg9IjE0OTUiIHk9IjE0NC43NzM0Ii8+PHRleHQgZmlsbD0iIzAwMDAwMCIgZm9udC1mYW1pbHk9InNhbnMtc2VyaWYiIGZvbnQtc2l6ZT0iMTQiIGxlbmd0aEFkanVzdD0ic3BhY2luZyIgdGV4dExlbmd0aD0iMTA1IiB4PSIxNTA3IiB5PSIxNTIuMDE1NiI+Y29udGVudTogc3RyaW5nPC90ZXh0PjxyZWN0IGZpbGw9Im5vbmUiIGhlaWdodD0iNiIgc3R5bGU9InN0cm9rZTojQzgyOTMwO3N0cm9rZS13aWR0aDoxLjA7IiB3aWR0aD0iNiIgeD0iMTQ5NSIgeT0iMTU5Ljc1NzgiLz48dGV4dCBmaWxsPSIjMDAwMDAwIiBmb250LWZhbWlseT0ic2Fucy1zZXJpZiIgZm9udC1zaXplPSIxNCIgbGVuZ3RoQWRqdXN0PSJzcGFjaW5nIiB0ZXh0TGVuZ3RoPSI3MCIgeD0iMTUwNyIgeT0iMTY3Ij5kYXRlOiBEYXRlPC90ZXh0PjxsaW5lIHN0eWxlPSJzdHJva2U6IzE4MTgxODtzdHJva2Utd2lkdGg6MC41OyIgeDE9IjE0ODgiIHgyPSIxNjU5IiB5MT0iMTcyLjc1IiB5Mj0iMTcyLjc1Ii8+PC9nPjwhLS1jbGFzcyBQYXJ0ZW5haXJlLS0+PGcgaWQ9ImVsZW1fUGFydGVuYWlyZSI+PHJlY3QgY29kZUxpbmU9IjIxNiIgZmlsbD0iI0UwRkZGRiIgaGVpZ2h0PSIxNzMuNzAzMSIgaWQ9IlBhcnRlbmFpcmUiIHJ4PSIyLjUiIHJ5PSIyLjUiIHN0eWxlPSJzdHJva2U6IzE4MTgxODtzdHJva2Utd2lkdGg6MC41OyIgd2lkdGg9IjE2NyIgeD0iMjE4OCIgeT0iMjkuNSIvPjxlbGxpcHNlIGN4PSIyMjMyLjI1IiBjeT0iNDguNDE0MSIgZmlsbD0iI0FERDFCMiIgcng9IjExIiByeT0iMTEiIHN0eWxlPSJzdHJva2U6IzE4MTgxODtzdHJva2Utd2lkdGg6MS4wOyIvPjxwYXRoIGQ9Ik0yMjI5Ljg3NSw1Mi42NjQxIEwyMjI5Ljg3NSw1NC40MTQxIEwyMjM0LjgxMjUsNTQuNDE0MSBMMjIzNC44MTI1LDUyLjY2NDEgTDIyMjkuODc1LDUyLjY2NDEgWiBNMjIzMC41NjI1LDUzLjM1MTYgUTIyMzAuNTYyNSw1My4zNTE2IDIyMzAuNTYyNSw0NC4xNjQxIEwyMjI4LjgxMjUsNDQuMTY0MSBRMjIyOC44MTI1LDQ0LjE2NDEgMjIyOC44MTI1LDUzLjM1MTYgTDIyMzAuNTYyNSw1My4zNTE2IFogTTIyMzQuMTI1LDUzLjM1MTYgTDIyMzUuODc1LDUzLjM1MTYgUTIyMzUuODc1LDUzLjM1MTYgMjIzNS44NzUsNTAuNTM5MSBMMjIzNC4xMjUsNTAuNTM5MSBRMjIzNC4xMjUsNTAuNTM5MSAyMjM0LjEyNSw1My4zNTE2IFogTTIyMzQuMTI1LDQ0LjE2NDEgUTIyMzQuMTI1LDQ0LjE2NDEgMjIzNC4xMjUsNDYuOTc2NiBMMjIzNS44NzUsNDYuOTc2NiBRMjIzNS44NzUsNDYuOTc2NiAyMjM1Ljg3NSw0NC4xNjQxIEwyMjM0LjEyNSw0NC4xNjQxIFogTTIyMjkuODc1LDQ0Ljg1MTYgTDIyMzQuODEyNSw0NC44NTE2IEwyMjM0LjgxMjUsNDMuMTAxNiBMMjIyOS44NzUsNDMuMTAxNiBMMjIyOS44NzUsNDQuODUxNiBaICIgZmlsbD0iIzAwMDAwMCIvPjx0ZXh0IGZpbGw9IiMwMDAwMDAiIGZvbnQtZmFtaWx5PSJzYW5zLXNlcmlmIiBmb250LXNpemU9IjEyIiBmb250LXN0eWxlPSJpdGFsaWMiIGxlbmd0aEFkanVzdD0ic3BhY2luZyIgdGV4dExlbmd0aD0iNjAiIHg9IjIyNTcuNzUiIHk9IjQ1Ljg0MzgiPiYjMTcxO1BhcnRuZXImIzE4Nzs8L3RleHQ+PHRleHQgZmlsbD0iIzAwMDAwMCIgZm9udC1mYW1pbHk9InNhbnMtc2VyaWYiIGZvbnQtc2l6ZT0iMTQiIGxlbmd0aEFkanVzdD0ic3BhY2luZyIgdGV4dExlbmd0aD0iNzAiIHg9IjIyNTIuNzUiIHk9IjYwLjU3ODEiPlBhcnRlbmFpcmU8L3RleHQ+PGxpbmUgc3R5bGU9InN0cm9rZTojMTgxODE4O3N0cm9rZS13aWR0aDowLjU7IiB4MT0iMjE4OSIgeDI9IjIzNTQiIHkxPSI2Ny4zMjgxIiB5Mj0iNjcuMzI4MSIvPjxyZWN0IGZpbGw9Im5vbmUiIGhlaWdodD0iNiIgc3R5bGU9InN0cm9rZTojQzgyOTMwO3N0cm9rZS13aWR0aDoxLjA7IiB3aWR0aD0iNiIgeD0iMjE5NiIgeT0iNzcuMzIwMyIvPjx0ZXh0IGZpbGw9IiMwMDAwMDAiIGZvbnQtZmFtaWx5PSJzYW5zLXNlcmlmIiBmb250LXNpemU9IjE0IiBsZW5ndGhBZGp1c3Q9InNwYWNpbmciIHRleHRMZW5ndGg9IjcwIiB4PSIyMjA4IiB5PSI4NC41NjI1Ij5pZDogc3RyaW5nPC90ZXh0PjxyZWN0IGZpbGw9Im5vbmUiIGhlaWdodD0iNiIgc3R5bGU9InN0cm9rZTojQzgyOTMwO3N0cm9rZS13aWR0aDoxLjA7IiB3aWR0aD0iNiIgeD0iMjE5NiIgeT0iOTIuMzA0NyIvPjx0ZXh0IGZpbGw9IiMwMDAwMDAiIGZvbnQtZmFtaWx5PSJzYW5zLXNlcmlmIiBmb250LXNpemU9IjE0IiBsZW5ndGhBZGp1c3Q9InNwYWNpbmciIHRleHRMZW5ndGg9Ijc4IiB4PSIyMjA4IiB5PSI5OS41NDY5Ij5ub206IHN0cmluZzwvdGV4dD48cmVjdCBmaWxsPSJub25lIiBoZWlnaHQ9IjYiIHN0eWxlPSJzdHJva2U6I0M4MjkzMDtzdHJva2Utd2lkdGg6MS4wOyIgd2lkdGg9IjYiIHg9IjIxOTYiIHk9IjEwNy4yODkxIi8+PHRleHQgZmlsbD0iIzAwMDAwMCIgZm9udC1mYW1pbHk9InNhbnMtc2VyaWYiIGZvbnQtc2l6ZT0iMTQiIGxlbmd0aEFkanVzdD0ic3BhY2luZyIgdGV4dExlbmd0aD0iMTA1IiB4PSIyMjA4IiB5PSIxMTQuNTMxMyI+bG9nb1VybDogc3RyaW5nPC90ZXh0PjxyZWN0IGZpbGw9Im5vbmUiIGhlaWdodD0iNiIgc3R5bGU9InN0cm9rZTojQzgyOTMwO3N0cm9rZS13aWR0aDoxLjA7IiB3aWR0aD0iNiIgeD0iMjE5NiIgeT0iMTIyLjI3MzQiLz48dGV4dCBmaWxsPSIjMDAwMDAwIiBmb250LWZhbWlseT0ic2Fucy1zZXJpZiIgZm9udC1zaXplPSIxNCIgbGVuZ3RoQWRqdXN0PSJzcGFjaW5nIiB0ZXh0TGVuZ3RoPSIxMjYiIHg9IjIyMDgiIHk9IjEyOS41MTU2Ij5zaXRlV2ViVXJsOiBzdHJpbmc8L3RleHQ+PHJlY3QgZmlsbD0ibm9uZSIgaGVpZ2h0PSI2IiBzdHlsZT0ic3Ryb2tlOiNDODI5MzA7c3Ryb2tlLXdpZHRoOjEuMDsiIHdpZHRoPSI2IiB4PSIyMTk2IiB5PSIxMzcuMjU3OCIvPjx0ZXh0IGZpbGw9IiMwMDAwMDAiIGZvbnQtZmFtaWx5PSJzYW5zLXNlcmlmIiBmb250LXNpemU9IjE0IiBsZW5ndGhBZGp1c3Q9InNwYWNpbmciIHRleHRMZW5ndGg9IjE0MSIgeD0iMjIwOCIgeT0iMTQ0LjUiPmVtYWlsQ29udGFjdDogc3RyaW5nPC90ZXh0PjxyZWN0IGZpbGw9Im5vbmUiIGhlaWdodD0iNiIgc3R5bGU9InN0cm9rZTojQzgyOTMwO3N0cm9rZS13aWR0aDoxLjA7IiB3aWR0aD0iNiIgeD0iMjE5NiIgeT0iMTUyLjI0MjIiLz48dGV4dCBmaWxsPSIjMDAwMDAwIiBmb250LWZhbWlseT0ic2Fucy1zZXJpZiIgZm9udC1zaXplPSIxNCIgbGVuZ3RoQWRqdXN0PSJzcGFjaW5nIiB0ZXh0TGVuZ3RoPSIxMDYiIHg9IjIyMDgiIHk9IjE1OS40ODQ0Ij5kb21haW5lOiBzdHJpbmc8L3RleHQ+PHJlY3QgZmlsbD0ibm9uZSIgaGVpZ2h0PSI2IiBzdHlsZT0ic3Ryb2tlOiNDODI5MzA7c3Ryb2tlLXdpZHRoOjEuMDsiIHdpZHRoPSI2IiB4PSIyMTk2IiB5PSIxNjcuMjI2NiIvPjx0ZXh0IGZpbGw9IiMwMDAwMDAiIGZvbnQtZmFtaWx5PSJzYW5zLXNlcmlmIiBmb250LXNpemU9IjE0IiBsZW5ndGhBZGp1c3Q9InNwYWNpbmciIHRleHRMZW5ndGg9IjEwNSIgeD0iMjIwOCIgeT0iMTc0LjQ2ODgiPmRhdGVEZWJ1dDogRGF0ZTwvdGV4dD48cmVjdCBmaWxsPSJub25lIiBoZWlnaHQ9IjYiIHN0eWxlPSJzdHJva2U6I0M4MjkzMDtzdHJva2Utd2lkdGg6MS4wOyIgd2lkdGg9IjYiIHg9IjIxOTYiIHk9IjE4Mi4yMTA5Ii8+PHRleHQgZmlsbD0iIzAwMDAwMCIgZm9udC1mYW1pbHk9InNhbnMtc2VyaWYiIGZvbnQtc2l6ZT0iMTQiIGxlbmd0aEFkanVzdD0ic3BhY2luZyIgdGV4dExlbmd0aD0iOTEiIHg9IjIyMDgiIHk9IjE4OS40NTMxIj5kYXRlRmluOiBEYXRlPC90ZXh0PjxsaW5lIHN0eWxlPSJzdHJva2U6IzE4MTgxODtzdHJva2Utd2lkdGg6MC41OyIgeDE9IjIxODkiIHgyPSIyMzU0IiB5MT0iMTk1LjIwMzEiIHkyPSIxOTUuMjAzMSIvPjwvZz48IS0tY2xhc3MgU3BvbnNvci0tPjxnIGlkPSJlbGVtX1Nwb25zb3IiPjxyZWN0IGNvZGVMaW5lPSIyMjciIGZpbGw9IiNFMEZGRkYiIGhlaWdodD0iMjE4LjY1NjMiIGlkPSJTcG9uc29yIiByeD0iMi41IiByeT0iMi41IiBzdHlsZT0ic3Ryb2tlOiMxODE4MTg7c3Ryb2tlLXdpZHRoOjAuNTsiIHdpZHRoPSI0MTUiIHg9IjIzOTAiIHk9IjciLz48ZWxsaXBzZSBjeD0iMjU2NS4yNSIgY3k9IjI1LjkxNDEiIGZpbGw9IiNBREQxQjIiIHJ4PSIxMSIgcnk9IjExIiBzdHlsZT0ic3Ryb2tlOiMxODE4MTg7c3Ryb2tlLXdpZHRoOjEuMDsiLz48cGF0aCBkPSJNMjU2Mi44NzUsMzAuMTY0MSBMMjU2Mi44NzUsMzEuOTE0MSBMMjU2Ny44MTI1LDMxLjkxNDEgTDI1NjcuODEyNSwzMC4xNjQxIEwyNTYyLjg3NSwzMC4xNjQxIFogTTI1NjMuNTYyNSwzMC44NTE2IFEyNTYzLjU2MjUsMzAuODUxNiAyNTYzLjU2MjUsMjEuNjY0MSBMMjU2MS44MTI1LDIxLjY2NDEgUTI1NjEuODEyNSwyMS42NjQxIDI1NjEuODEyNSwzMC44NTE2IEwyNTYzLjU2MjUsMzAuODUxNiBaIE0yNTY3LjEyNSwzMC44NTE2IEwyNTY4Ljg3NSwzMC44NTE2IFEyNTY4Ljg3NSwzMC44NTE2IDI1NjguODc1LDI4LjAzOTEgTDI1NjcuMTI1LDI4LjAzOTEgUTI1NjcuMTI1LDI4LjAzOTEgMjU2Ny4xMjUsMzAuODUxNiBaIE0yNTY3LjEyNSwyMS42NjQxIFEyNTY3LjEyNSwyMS42NjQxIDI1NjcuMTI1LDI0LjQ3NjYgTDI1NjguODc1LDI0LjQ3NjYgUTI1NjguODc1LDI0LjQ3NjYgMjU2OC44NzUsMjEuNjY0MSBMMjU2Ny4xMjUsMjEuNjY0MSBaIE0yNTYyLjg3NSwyMi4zNTE2IEwyNTY3LjgxMjUsMjIuMzUxNiBMMjU2Ny44MTI1LDIwLjYwMTYgTDI1NjIuODc1LDIwLjYwMTYgTDI1NjIuODc1LDIyLjM1MTYgWiAiIGZpbGw9IiMwMDAwMDAiLz48dGV4dCBmaWxsPSIjMDAwMDAwIiBmb250LWZhbWlseT0ic2Fucy1zZXJpZiIgZm9udC1zaXplPSIxMiIgZm9udC1zdHlsZT0iaXRhbGljIiBsZW5ndGhBZGp1c3Q9InNwYWNpbmciIHRleHRMZW5ndGg9IjYwIiB4PSIyNTgzLjc1IiB5PSIyMy4zNDM4Ij4mIzE3MTtQYXJ0bmVyJiMxODc7PC90ZXh0Pjx0ZXh0IGZpbGw9IiMwMDAwMDAiIGZvbnQtZmFtaWx5PSJzYW5zLXNlcmlmIiBmb250LXNpemU9IjE0IiBsZW5ndGhBZGp1c3Q9InNwYWNpbmciIHRleHRMZW5ndGg9IjQ5IiB4PSIyNTg5LjI1IiB5PSIzOC4wNzgxIj5TcG9uc29yPC90ZXh0PjxsaW5lIHN0eWxlPSJzdHJva2U6IzE4MTgxODtzdHJva2Utd2lkdGg6MC41OyIgeDE9IjIzOTEiIHgyPSIyODA0IiB5MT0iNDQuODI4MSIgeTI9IjQ0LjgyODEiLz48cmVjdCBmaWxsPSJub25lIiBoZWlnaHQ9IjYiIHN0eWxlPSJzdHJva2U6I0M4MjkzMDtzdHJva2Utd2lkdGg6MS4wOyIgd2lkdGg9IjYiIHg9IjIzOTgiIHk9IjU0LjgyMDMiLz48dGV4dCBmaWxsPSIjMDAwMDAwIiBmb250LWZhbWlseT0ic2Fucy1zZXJpZiIgZm9udC1zaXplPSIxNCIgbGVuZ3RoQWRqdXN0PSJzcGFjaW5nIiB0ZXh0TGVuZ3RoPSI3MCIgeD0iMjQxMCIgeT0iNjIuMDYyNSI+aWQ6IHN0cmluZzwvdGV4dD48cmVjdCBmaWxsPSJub25lIiBoZWlnaHQ9IjYiIHN0eWxlPSJzdHJva2U6I0M4MjkzMDtzdHJva2Utd2lkdGg6MS4wOyIgd2lkdGg9IjYiIHg9IjIzOTgiIHk9IjY5LjgwNDciLz48dGV4dCBmaWxsPSIjMDAwMDAwIiBmb250LWZhbWlseT0ic2Fucy1zZXJpZiIgZm9udC1zaXplPSIxNCIgbGVuZ3RoQWRqdXN0PSJzcGFjaW5nIiB0ZXh0TGVuZ3RoPSI3OCIgeD0iMjQxMCIgeT0iNzcuMDQ2OSI+bm9tOiBzdHJpbmc8L3RleHQ+PHJlY3QgZmlsbD0ibm9uZSIgaGVpZ2h0PSI2IiBzdHlsZT0ic3Ryb2tlOiNDODI5MzA7c3Ryb2tlLXdpZHRoOjEuMDsiIHdpZHRoPSI2IiB4PSIyMzk4IiB5PSI4NC43ODkxIi8+PHRleHQgZmlsbD0iIzAwMDAwMCIgZm9udC1mYW1pbHk9InNhbnMtc2VyaWYiIGZvbnQtc2l6ZT0iMTQiIGxlbmd0aEFkanVzdD0ic3BhY2luZyIgdGV4dExlbmd0aD0iMTA1IiB4PSIyNDEwIiB5PSI5Mi4wMzEzIj5sb2dvVXJsOiBzdHJpbmc8L3RleHQ+PHJlY3QgZmlsbD0ibm9uZSIgaGVpZ2h0PSI2IiBzdHlsZT0ic3Ryb2tlOiNDODI5MzA7c3Ryb2tlLXdpZHRoOjEuMDsiIHdpZHRoPSI2IiB4PSIyMzk4IiB5PSI5OS43NzM0Ii8+PHRleHQgZmlsbD0iIzAwMDAwMCIgZm9udC1mYW1pbHk9InNhbnMtc2VyaWYiIGZvbnQtc2l6ZT0iMTQiIGxlbmd0aEFkanVzdD0ic3BhY2luZyIgdGV4dExlbmd0aD0iMTI2IiB4PSIyNDEwIiB5PSIxMDcuMDE1NiI+c2l0ZVdlYlVybDogc3RyaW5nPC90ZXh0PjxyZWN0IGZpbGw9Im5vbmUiIGhlaWdodD0iNiIgc3R5bGU9InN0cm9rZTojQzgyOTMwO3N0cm9rZS13aWR0aDoxLjA7IiB3aWR0aD0iNiIgeD0iMjM5OCIgeT0iMTE0Ljc1NzgiLz48dGV4dCBmaWxsPSIjMDAwMDAwIiBmb250LWZhbWlseT0ic2Fucy1zZXJpZiIgZm9udC1zaXplPSIxNCIgbGVuZ3RoQWRqdXN0PSJzcGFjaW5nIiB0ZXh0TGVuZ3RoPSIxNDEiIHg9IjI0MTAiIHk9IjEyMiI+ZW1haWxDb250YWN0OiBzdHJpbmc8L3RleHQ+PHJlY3QgZmlsbD0ibm9uZSIgaGVpZ2h0PSI2IiBzdHlsZT0ic3Ryb2tlOiNDODI5MzA7c3Ryb2tlLXdpZHRoOjEuMDsiIHdpZHRoPSI2IiB4PSIyMzk4IiB5PSIxMjkuNzQyMiIvPjx0ZXh0IGZpbGw9IiMwMDAwMDAiIGZvbnQtZmFtaWx5PSJzYW5zLXNlcmlmIiBmb250LXNpemU9IjE0IiBsZW5ndGhBZGp1c3Q9InNwYWNpbmciIHRleHRMZW5ndGg9IjEwNiIgeD0iMjQxMCIgeT0iMTM2Ljk4NDQiPmRvbWFpbmU6IHN0cmluZzwvdGV4dD48cmVjdCBmaWxsPSJub25lIiBoZWlnaHQ9IjYiIHN0eWxlPSJzdHJva2U6I0M4MjkzMDtzdHJva2Utd2lkdGg6MS4wOyIgd2lkdGg9IjYiIHg9IjIzOTgiIHk9IjE0NC43MjY2Ii8+PHRleHQgZmlsbD0iIzAwMDAwMCIgZm9udC1mYW1pbHk9InNhbnMtc2VyaWYiIGZvbnQtc2l6ZT0iMTQiIGxlbmd0aEFkanVzdD0ic3BhY2luZyIgdGV4dExlbmd0aD0iMjE5IiB4PSIyNDEwIiB5PSIxNTEuOTY4OCI+bW9udGFudDogZmxvYXQgJyBGdW5kaW5nIGFtb3VudDwvdGV4dD48cmVjdCBmaWxsPSJub25lIiBoZWlnaHQ9IjYiIHN0eWxlPSJzdHJva2U6I0M4MjkzMDtzdHJva2Utd2lkdGg6MS4wOyIgd2lkdGg9IjYiIHg9IjIzOTgiIHk9IjE1OS43MTA5Ii8+PHRleHQgZmlsbD0iIzAwMDAwMCIgZm9udC1mYW1pbHk9InNhbnMtc2VyaWYiIGZvbnQtc2l6ZT0iMTQiIGxlbmd0aEFkanVzdD0ic3BhY2luZyIgdGV4dExlbmd0aD0iMjY3IiB4PSIyNDEwIiB5PSIxNjYuOTUzMSI+ZHVyZWVDb250cmF0OiBpbnQgJyBEdXJhdGlvbiBpbiBtb250aHM8L3RleHQ+PHJlY3QgZmlsbD0ibm9uZSIgaGVpZ2h0PSI2IiBzdHlsZT0ic3Ryb2tlOiNDODI5MzA7c3Ryb2tlLXdpZHRoOjEuMDsiIHdpZHRoPSI2IiB4PSIyMzk4IiB5PSIxNzQuNjk1MyIvPjx0ZXh0IGZpbGw9IiMwMDAwMDAiIGZvbnQtZmFtaWx5PSJzYW5zLXNlcmlmIiBmb250LXNpemU9IjE0IiBsZW5ndGhBZGp1c3Q9InNwYWNpbmciIHRleHRMZW5ndGg9IjM4OSIgeD0iMjQxMCIgeT0iMTgxLjkzNzUiPnZpc2liaWxpdGVNYXJxdWU6IHN0cmluZyAnIGUuZy4sICJNYWlsbG90IiwgIkJhbm5pJiMyMzI7cmVzIjwvdGV4dD48cmVjdCBmaWxsPSJub25lIiBoZWlnaHQ9IjYiIHN0eWxlPSJzdHJva2U6I0M4MjkzMDtzdHJva2Utd2lkdGg6MS4wOyIgd2lkdGg9IjYiIHg9IjIzOTgiIHk9IjE4OS42Nzk3Ii8+PHRleHQgZmlsbD0iIzAwMDAwMCIgZm9udC1mYW1pbHk9InNhbnMtc2VyaWYiIGZvbnQtc2l6ZT0iMTQiIGxlbmd0aEFkanVzdD0ic3BhY2luZyIgdGV4dExlbmd0aD0iMTA1IiB4PSIyNDEwIiB5PSIxOTYuOTIxOSI+ZGF0ZURlYnV0OiBEYXRlPC90ZXh0PjxyZWN0IGZpbGw9Im5vbmUiIGhlaWdodD0iNiIgc3R5bGU9InN0cm9rZTojQzgyOTMwO3N0cm9rZS13aWR0aDoxLjA7IiB3aWR0aD0iNiIgeD0iMjM5OCIgeT0iMjA0LjY2NDEiLz48dGV4dCBmaWxsPSIjMDAwMDAwIiBmb250LWZhbWlseT0ic2Fucy1zZXJpZiIgZm9udC1zaXplPSIxNCIgbGVuZ3RoQWRqdXN0PSJzcGFjaW5nIiB0ZXh0TGVuZ3RoPSI5MSIgeD0iMjQxMCIgeT0iMjExLjkwNjMiPmRhdGVGaW46IERhdGU8L3RleHQ+PGxpbmUgc3R5bGU9InN0cm9rZTojMTgxODE4O3N0cm9rZS13aWR0aDowLjU7IiB4MT0iMjM5MSIgeDI9IjI4MDQiIHkxPSIyMTcuNjU2MyIgeTI9IjIxNy42NTYzIi8+PC9nPjwhLS1jbGFzcyBQYXJ0ZW5hcmlhdC0tPjxnIGlkPSJlbGVtX1BhcnRlbmFyaWF0Ij48cmVjdCBjb2RlTGluZT0iMjQxIiBmaWxsPSIjRTBGRkZGIiBoZWlnaHQ9IjE0My43MzQ0IiBpZD0iUGFydGVuYXJpYXQiIHJ4PSIyLjUiIHJ5PSIyLjUiIHN0eWxlPSJzdHJva2U6IzE4MTgxODtzdHJva2Utd2lkdGg6MC41OyIgd2lkdGg9IjM4MCIgeD0iMjI0NC41IiB5PSIzMTYiLz48ZWxsaXBzZSBjeD0iMjM5MS43NSIgY3k9IjMzNC45MTQxIiBmaWxsPSIjQUREMUIyIiByeD0iMTEiIHJ5PSIxMSIgc3R5bGU9InN0cm9rZTojMTgxODE4O3N0cm9rZS13aWR0aDoxLjA7Ii8+PHBhdGggZD0iTTIzODkuMzc1LDMzOS4xNjQxIEwyMzg5LjM3NSwzNDAuOTE0MSBMMjM5NC4zMTI1LDM0MC45MTQxIEwyMzk0LjMxMjUsMzM5LjE2NDEgTDIzODkuMzc1LDMzOS4xNjQxIFogTTIzOTAuMDYyNSwzMzkuODUxNiBRMjM5MC4wNjI1LDMzOS44NTE2IDIzOTAuMDYyNSwzMzAuNjY0MSBMMjM4OC4zMTI1LDMzMC42NjQxIFEyMzg4LjMxMjUsMzMwLjY2NDEgMjM4OC4zMTI1LDMzOS44NTE2IEwyMzkwLjA2MjUsMzM5Ljg1MTYgWiBNMjM5My42MjUsMzM5Ljg1MTYgTDIzOTUuMzc1LDMzOS44NTE2IFEyMzk1LjM3NSwzMzkuODUxNiAyMzk1LjM3NSwzMzcuMDM5MSBMMjM5My42MjUsMzM3LjAzOTEgUTIzOTMuNjI1LDMzNy4wMzkxIDIzOTMuNjI1LDMzOS44NTE2IFogTTIzOTMuNjI1LDMzMC42NjQxIFEyMzkzLjYyNSwzMzAuNjY0MSAyMzkzLjYyNSwzMzMuNDc2NiBMMjM5NS4zNzUsMzMzLjQ3NjYgUTIzOTUuMzc1LDMzMy40NzY2IDIzOTUuMzc1LDMzMC42NjQxIEwyMzkzLjYyNSwzMzAuNjY0MSBaIE0yMzg5LjM3NSwzMzEuMzUxNiBMMjM5NC4zMTI1LDMzMS4zNTE2IEwyMzk0LjMxMjUsMzI5LjYwMTYgTDIzODkuMzc1LDMyOS42MDE2IEwyMzg5LjM3NSwzMzEuMzUxNiBaICIgZmlsbD0iIzAwMDAwMCIvPjx0ZXh0IGZpbGw9IiMwMDAwMDAiIGZvbnQtZmFtaWx5PSJzYW5zLXNlcmlmIiBmb250LXNpemU9IjEyIiBmb250LXN0eWxlPSJpdGFsaWMiIGxlbmd0aEFkanVzdD0ic3BhY2luZyIgdGV4dExlbmd0aD0iNjAiIHg9IjI0MjAuNzUiIHk9IjMzMi4zNDM4Ij4mIzE3MTtQYXJ0bmVyJiMxODc7PC90ZXh0Pjx0ZXh0IGZpbGw9IiMwMDAwMDAiIGZvbnQtZmFtaWx5PSJzYW5zLXNlcmlmIiBmb250LXNpemU9IjE0IiBsZW5ndGhBZGp1c3Q9InNwYWNpbmciIHRleHRMZW5ndGg9Ijc3IiB4PSIyNDEyLjI1IiB5PSIzNDcuMDc4MSI+UGFydGVuYXJpYXQ8L3RleHQ+PGxpbmUgc3R5bGU9InN0cm9rZTojMTgxODE4O3N0cm9rZS13aWR0aDowLjU7IiB4MT0iMjI0NS41IiB4Mj0iMjYyMy41IiB5MT0iMzUzLjgyODEiIHkyPSIzNTMuODI4MSIvPjxyZWN0IGZpbGw9Im5vbmUiIGhlaWdodD0iNiIgc3R5bGU9InN0cm9rZTojQzgyOTMwO3N0cm9rZS13aWR0aDoxLjA7IiB3aWR0aD0iNiIgeD0iMjI1Mi41IiB5PSIzNjMuODIwMyIvPjx0ZXh0IGZpbGw9IiMwMDAwMDAiIGZvbnQtZmFtaWx5PSJzYW5zLXNlcmlmIiBmb250LXNpemU9IjE0IiBsZW5ndGhBZGp1c3Q9InNwYWNpbmciIHRleHRMZW5ndGg9IjcwIiB4PSIyMjY0LjUiIHk9IjM3MS4wNjI1Ij5pZDogc3RyaW5nPC90ZXh0PjxyZWN0IGZpbGw9Im5vbmUiIGhlaWdodD0iNiIgc3R5bGU9InN0cm9rZTojQzgyOTMwO3N0cm9rZS13aWR0aDoxLjA7IiB3aWR0aD0iNiIgeD0iMjI1Mi41IiB5PSIzNzguODA0NyIvPjx0ZXh0IGZpbGw9IiMwMDAwMDAiIGZvbnQtZmFtaWx5PSJzYW5zLXNlcmlmIiBmb250LXNpemU9IjE0IiBsZW5ndGhBZGp1c3Q9InNwYWNpbmciIHRleHRMZW5ndGg9IjM1NCIgeD0iMjI2NC41IiB5PSIzODYuMDQ2OSI+dHlwZTogJ0NvbW1lcmNpYWwnIHwgJ0Nhcml0YXRpZicgfCAnQ29tbXVuYXV0YWlyZSc8L3RleHQ+PHJlY3QgZmlsbD0ibm9uZSIgaGVpZ2h0PSI2IiBzdHlsZT0ic3Ryb2tlOiNDODI5MzA7c3Ryb2tlLXdpZHRoOjEuMDsiIHdpZHRoPSI2IiB4PSIyMjUyLjUiIHk9IjM5My43ODkxIi8+PHRleHQgZmlsbD0iIzAwMDAwMCIgZm9udC1mYW1pbHk9InNhbnMtc2VyaWYiIGZvbnQtc2l6ZT0iMTQiIGxlbmd0aEFkanVzdD0ic3BhY2luZyIgdGV4dExlbmd0aD0iMTA1IiB4PSIyMjY0LjUiIHk9IjQwMS4wMzEzIj5kYXRlRGVidXQ6IERhdGU8L3RleHQ+PHJlY3QgZmlsbD0ibm9uZSIgaGVpZ2h0PSI2IiBzdHlsZT0ic3Ryb2tlOiNDODI5MzA7c3Ryb2tlLXdpZHRoOjEuMDsiIHdpZHRoPSI2IiB4PSIyMjUyLjUiIHk9IjQwOC43NzM0Ii8+PHRleHQgZmlsbD0iIzAwMDAwMCIgZm9udC1mYW1pbHk9InNhbnMtc2VyaWYiIGZvbnQtc2l6ZT0iMTQiIGxlbmd0aEFkanVzdD0ic3BhY2luZyIgdGV4dExlbmd0aD0iOTEiIHg9IjIyNjQuNSIgeT0iNDE2LjAxNTYiPmRhdGVGaW46IERhdGU8L3RleHQ+PHJlY3QgZmlsbD0ibm9uZSIgaGVpZ2h0PSI2IiBzdHlsZT0ic3Ryb2tlOiNDODI5MzA7c3Ryb2tlLXdpZHRoOjEuMDsiIHdpZHRoPSI2IiB4PSIyMjUyLjUiIHk9IjQyMy43NTc4Ii8+PHRleHQgZmlsbD0iIzAwMDAwMCIgZm9udC1mYW1pbHk9InNhbnMtc2VyaWYiIGZvbnQtc2l6ZT0iMTQiIGxlbmd0aEFkanVzdD0ic3BhY2luZyIgdGV4dExlbmd0aD0iOTEiIHg9IjIyNjQuNSIgeT0iNDMxIj5idWRnZXQ6IGZsb2F0PC90ZXh0PjxyZWN0IGZpbGw9Im5vbmUiIGhlaWdodD0iNiIgc3R5bGU9InN0cm9rZTojQzgyOTMwO3N0cm9rZS13aWR0aDoxLjA7IiB3aWR0aD0iNiIgeD0iMjI1Mi41IiB5PSI0MzguNzQyMiIvPjx0ZXh0IGZpbGw9IiMwMDAwMDAiIGZvbnQtZmFtaWx5PSJzYW5zLXNlcmlmIiBmb250LXNpemU9IjE0IiBsZW5ndGhBZGp1c3Q9InNwYWNpbmciIHRleHRMZW5ndGg9IjE4MiIgeD0iMjI2NC41IiB5PSI0NDUuOTg0NCI+c3RhdHV0OiAnQWN0aWYnIHwgJ0V4cGlyJiMyMzM7JzwvdGV4dD48bGluZSBzdHlsZT0ic3Ryb2tlOiMxODE4MTg7c3Ryb2tlLXdpZHRoOjAuNTsiIHgxPSIyMjQ1LjUiIHgyPSIyNjIzLjUiIHkxPSI0NTEuNzM0NCIgeTI9IjQ1MS43MzQ0Ii8+PC9nPjwhLS1jbGFzcyBDYW1wYWlnbi0tPjxnIGlkPSJlbGVtX0NhbXBhaWduIj48cmVjdCBjb2RlTGluZT0iMjUwIiBmaWxsPSIjRTBGRkZGIiBoZWlnaHQ9IjE1OC43MTg4IiBpZD0iQ2FtcGFpZ24iIHJ4PSIyLjUiIHJ5PSIyLjUiIHN0eWxlPSJzdHJva2U6IzE4MTgxODtzdHJva2Utd2lkdGg6MC41OyIgd2lkdGg9IjE3MyIgeD0iMjM0OCIgeT0iNTUwIi8+PGVsbGlwc2UgY3g9IjI0MDEuNzUiIGN5PSI1NjguOTE0MSIgZmlsbD0iI0FERDFCMiIgcng9IjExIiByeT0iMTEiIHN0eWxlPSJzdHJva2U6IzE4MTgxODtzdHJva2Utd2lkdGg6MS4wOyIvPjxwYXRoIGQ9Ik0yMzk5LjM3NSw1NzMuMTY0MSBMMjM5OS4zNzUsNTc0LjkxNDEgTDI0MDQuMzEyNSw1NzQuOTE0MSBMMjQwNC4zMTI1LDU3My4xNjQxIEwyMzk5LjM3NSw1NzMuMTY0MSBaIE0yNDAwLjA2MjUsNTczLjg1MTYgUTI0MDAuMDYyNSw1NzMuODUxNiAyNDAwLjA2MjUsNTY0LjY2NDEgTDIzOTguMzEyNSw1NjQuNjY0MSBRMjM5OC4zMTI1LDU2NC42NjQxIDIzOTguMzEyNSw1NzMuODUxNiBMMjQwMC4wNjI1LDU3My44NTE2IFogTTI0MDMuNjI1LDU3My44NTE2IEwyNDA1LjM3NSw1NzMuODUxNiBRMjQwNS4zNzUsNTczLjg1MTYgMjQwNS4zNzUsNTcxLjAzOTEgTDI0MDMuNjI1LDU3MS4wMzkxIFEyNDAzLjYyNSw1NzEuMDM5MSAyNDAzLjYyNSw1NzMuODUxNiBaIE0yNDAzLjYyNSw1NjQuNjY0MSBRMjQwMy42MjUsNTY0LjY2NDEgMjQwMy42MjUsNTY3LjQ3NjYgTDI0MDUuMzc1LDU2Ny40NzY2IFEyNDA1LjM3NSw1NjcuNDc2NiAyNDA1LjM3NSw1NjQuNjY0MSBMMjQwMy42MjUsNTY0LjY2NDEgWiBNMjM5OS4zNzUsNTY1LjM1MTYgTDI0MDQuMzEyNSw1NjUuMzUxNiBMMjQwNC4zMTI1LDU2My42MDE2IEwyMzk5LjM3NSw1NjMuNjAxNiBMMjM5OS4zNzUsNTY1LjM1MTYgWiAiIGZpbGw9IiMwMDAwMDAiLz48dGV4dCBmaWxsPSIjMDAwMDAwIiBmb250LWZhbWlseT0ic2Fucy1zZXJpZiIgZm9udC1zaXplPSIxMiIgZm9udC1zdHlsZT0iaXRhbGljIiBsZW5ndGhBZGp1c3Q9InNwYWNpbmciIHRleHRMZW5ndGg9IjYwIiB4PSIyNDIwLjc1IiB5PSI1NjYuMzQzOCI+JiMxNzE7UGFydG5lciYjMTg3OzwvdGV4dD48dGV4dCBmaWxsPSIjMDAwMDAwIiBmb250LWZhbWlseT0ic2Fucy1zZXJpZiIgZm9udC1zaXplPSIxNCIgbGVuZ3RoQWRqdXN0PSJzcGFjaW5nIiB0ZXh0TGVuZ3RoPSI1NyIgeD0iMjQyMi4yNSIgeT0iNTgxLjA3ODEiPkNhbXBhaWduPC90ZXh0PjxsaW5lIHN0eWxlPSJzdHJva2U6IzE4MTgxODtzdHJva2Utd2lkdGg6MC41OyIgeDE9IjIzNDkiIHgyPSIyNTIwIiB5MT0iNTg3LjgyODEiIHkyPSI1ODcuODI4MSIvPjxyZWN0IGZpbGw9Im5vbmUiIGhlaWdodD0iNiIgc3R5bGU9InN0cm9rZTojQzgyOTMwO3N0cm9rZS13aWR0aDoxLjA7IiB3aWR0aD0iNiIgeD0iMjM1NiIgeT0iNTk3LjgyMDMiLz48dGV4dCBmaWxsPSIjMDAwMDAwIiBmb250LWZhbWlseT0ic2Fucy1zZXJpZiIgZm9udC1zaXplPSIxNCIgbGVuZ3RoQWRqdXN0PSJzcGFjaW5nIiB0ZXh0TGVuZ3RoPSI3MCIgeD0iMjM2OCIgeT0iNjA1LjA2MjUiPmlkOiBzdHJpbmc8L3RleHQ+PHJlY3QgZmlsbD0ibm9uZSIgaGVpZ2h0PSI2IiBzdHlsZT0ic3Ryb2tlOiNDODI5MzA7c3Ryb2tlLXdpZHRoOjEuMDsiIHdpZHRoPSI2IiB4PSIyMzU2IiB5PSI2MTIuODA0NyIvPjx0ZXh0IGZpbGw9IiMwMDAwMDAiIGZvbnQtZmFtaWx5PSJzYW5zLXNlcmlmIiBmb250LXNpemU9IjE0IiBsZW5ndGhBZGp1c3Q9InNwYWNpbmciIHRleHRMZW5ndGg9IjE0NyIgeD0iMjM2OCIgeT0iNjIwLjA0NjkiPnBhcnRlbmFyaWF0SWQ6IHN0cmluZzwvdGV4dD48cmVjdCBmaWxsPSJub25lIiBoZWlnaHQ9IjYiIHN0eWxlPSJzdHJva2U6I0M4MjkzMDtzdHJva2Utd2lkdGg6MS4wOyIgd2lkdGg9IjYiIHg9IjIzNTYiIHk9IjYyNy43ODkxIi8+PHRleHQgZmlsbD0iIzAwMDAwMCIgZm9udC1mYW1pbHk9InNhbnMtc2VyaWYiIGZvbnQtc2l6ZT0iMTQiIGxlbmd0aEFkanVzdD0ic3BhY2luZyIgdGV4dExlbmd0aD0iNzgiIHg9IjIzNjgiIHk9IjYzNS4wMzEzIj5ub206IHN0cmluZzwvdGV4dD48cmVjdCBmaWxsPSJub25lIiBoZWlnaHQ9IjYiIHN0eWxlPSJzdHJva2U6I0M4MjkzMDtzdHJva2Utd2lkdGg6MS4wOyIgd2lkdGg9IjYiIHg9IjIzNTYiIHk9IjY0Mi43NzM0Ii8+PHRleHQgZmlsbD0iIzAwMDAwMCIgZm9udC1mYW1pbHk9InNhbnMtc2VyaWYiIGZvbnQtc2l6ZT0iMTQiIGxlbmd0aEFkanVzdD0ic3BhY2luZyIgdGV4dExlbmd0aD0iMTMzIiB4PSIyMzY4IiB5PSI2NTAuMDE1NiI+ZGVzY3JpcHRpb246IHN0cmluZzwvdGV4dD48cmVjdCBmaWxsPSJub25lIiBoZWlnaHQ9IjYiIHN0eWxlPSJzdHJva2U6I0M4MjkzMDtzdHJva2Utd2lkdGg6MS4wOyIgd2lkdGg9IjYiIHg9IjIzNTYiIHk9IjY1Ny43NTc4Ii8+PHRleHQgZmlsbD0iIzAwMDAwMCIgZm9udC1mYW1pbHk9InNhbnMtc2VyaWYiIGZvbnQtc2l6ZT0iMTQiIGxlbmd0aEFkanVzdD0ic3BhY2luZyIgdGV4dExlbmd0aD0iMTEzIiB4PSIyMzY4IiB5PSI2NjUiPmltYWdlVXJsOiBzdHJpbmc8L3RleHQ+PHJlY3QgZmlsbD0ibm9uZSIgaGVpZ2h0PSI2IiBzdHlsZT0ic3Ryb2tlOiNDODI5MzA7c3Ryb2tlLXdpZHRoOjEuMDsiIHdpZHRoPSI2IiB4PSIyMzU2IiB5PSI2NzIuNzQyMiIvPjx0ZXh0IGZpbGw9IiMwMDAwMDAiIGZvbnQtZmFtaWx5PSJzYW5zLXNlcmlmIiBmb250LXNpemU9IjE0IiBsZW5ndGhBZGp1c3Q9InNwYWNpbmciIHRleHRMZW5ndGg9IjEwNSIgeD0iMjM2OCIgeT0iNjc5Ljk4NDQiPmRhdGVEZWJ1dDogRGF0ZTwvdGV4dD48cmVjdCBmaWxsPSJub25lIiBoZWlnaHQ9IjYiIHN0eWxlPSJzdHJva2U6I0M4MjkzMDtzdHJva2Utd2lkdGg6MS4wOyIgd2lkdGg9IjYiIHg9IjIzNTYiIHk9IjY4Ny43MjY2Ii8+PHRleHQgZmlsbD0iIzAwMDAwMCIgZm9udC1mYW1pbHk9InNhbnMtc2VyaWYiIGZvbnQtc2l6ZT0iMTQiIGxlbmd0aEFkanVzdD0ic3BhY2luZyIgdGV4dExlbmd0aD0iOTEiIHg9IjIzNjgiIHk9IjY5NC45Njg4Ij5kYXRlRmluOiBEYXRlPC90ZXh0PjxsaW5lIHN0eWxlPSJzdHJva2U6IzE4MTgxODtzdHJva2Utd2lkdGg6MC41OyIgeDE9IjIzNDkiIHgyPSIyNTIwIiB5MT0iNzAwLjcxODgiIHkyPSI3MDAuNzE4OCIvPjwvZz48IS0tbGluayBVdGlsaXNhdGV1ciB0byBFcXVpcGUtLT48ZyBpZD0ibGlua19VdGlsaXNhdGV1cl9FcXVpcGUiPjxwYXRoIGNvZGVMaW5lPSIzNyIgZD0iTTE1MDEuNyw0NjcuNzUgQzE1MDEuNyw1MDEuOTYgMTUwMS43LDU0MS4xNSAxNTAxLjcsNTcyLjM5ICIgZmlsbD0ibm9uZSIgaWQ9IlV0aWxpc2F0ZXVyLUVxdWlwZSIgc3R5bGU9InN0cm9rZTojMTgxODE4O3N0cm9rZS13aWR0aDoxLjA7Ii8+PHRleHQgZmlsbD0iIzAwMDAwMCIgZm9udC1mYW1pbHk9InNhbnMtc2VyaWYiIGZvbnQtc2l6ZT0iMTMiIGxlbmd0aEFkanVzdD0ic3BhY2luZyIgdGV4dExlbmd0aD0iNDUiIHg9IjE0NTUuNyIgeT0iNTE4LjM1OTEiPmZvbGxvd3M8L3RleHQ+PHRleHQgZmlsbD0iIzAwMDAwMCIgZm9udC1mYW1pbHk9InNhbnMtc2VyaWYiIGZvbnQtc2l6ZT0iMTMiIGxlbmd0aEFkanVzdD0ic3BhY2luZyIgdGV4dExlbmd0aD0iNyIgeD0iMTUxMi4yMDU1IiB5PSI0ODcuNTAyNSI+MTwvdGV4dD48dGV4dCBmaWxsPSIjMDAwMDAwIiBmb250LWZhbWlseT0ic2Fucy1zZXJpZiIgZm9udC1zaXplPSIxMyIgbGVuZ3RoQWRqdXN0PSJzcGFjaW5nIiB0ZXh0TGVuZ3RoPSIyNiIgeD0iMTQ2Mi4zNjg4IiB5PSI1NjIuODE0NyI+MS4uMzwvdGV4dD48L2c+PCEtLWxpbmsgVXRpbGlzYXRldXIgdG8gUGF5bWVudC0tPjxnIGlkPSJsaW5rX1V0aWxpc2F0ZXVyX1BheW1lbnQiPjxwYXRoIGNvZGVMaW5lPSI2NSIgZD0iTTEyMDYuMjUsNDY3Ljc1IEMxMjA2LjI1LDQ5Ni42IDEyMDYuMjUsNTI4Ljk5IDEyMDYuMjUsNTU3LjE3ICIgZmlsbD0ibm9uZSIgaWQ9IlV0aWxpc2F0ZXVyLVBheW1lbnQiIHN0eWxlPSJzdHJva2U6IzE4MTgxODtzdHJva2Utd2lkdGg6MS4wOyIvPjx0ZXh0IGZpbGw9IiMwMDAwMDAiIGZvbnQtZmFtaWx5PSJzYW5zLXNlcmlmIiBmb250LXNpemU9IjEzIiBsZW5ndGhBZGp1c3Q9InNwYWNpbmciIHRleHRMZW5ndGg9IjM0IiB4PSIxMTcxLjI1IiB5PSI1MTAuNzQ5MSI+bWFrZXM8L3RleHQ+PHRleHQgZmlsbD0iIzAwMDAwMCIgZm9udC1mYW1pbHk9InNhbnMtc2VyaWYiIGZvbnQtc2l6ZT0iMTMiIGxlbmd0aEFkanVzdD0ic3BhY2luZyIgdGV4dExlbmd0aD0iNyIgeD0iMTE5MS4zNjUyIiB5PSI0ODcuNTAyNSI+MTwvdGV4dD48dGV4dCBmaWxsPSIjMDAwMDAwIiBmb250LWZhbWlseT0ic2Fucy1zZXJpZiIgZm9udC1zaXplPSIxMyIgbGVuZ3RoQWRqdXN0PSJzcGFjaW5nIiB0ZXh0TGVuZ3RoPSIyNSIgeD0iMTE4MC42MjExIiB5PSI1NDcuOTAxNSI+MC4uKjwvdGV4dD48L2c+PCEtLWxpbmsgUGF5bWVudCB0byBBYm9ubmVtZW50LS0+PGcgaWQ9ImxpbmtfUGF5bWVudF9BYm9ubmVtZW50Ij48cGF0aCBjb2RlTGluZT0iNjYiIGQ9Ik0xMTYzLjMzLDcwMS43MSBDMTE2My4zMyw3MjMuNiAxMTYzLjMzLDc0Ny41IDExNjMuMzMsNzY4Ljg2ICIgZmlsbD0ibm9uZSIgaWQ9IlBheW1lbnQtQWJvbm5lbWVudCIgc3R5bGU9InN0cm9rZTojMTgxODE4O3N0cm9rZS13aWR0aDoxLjA7Ii8+PHRleHQgZmlsbD0iIzAwMDAwMCIgZm9udC1mYW1pbHk9InNhbnMtc2VyaWYiIGZvbnQtc2l6ZT0iMTMiIGxlbmd0aEFkanVzdD0ic3BhY2luZyIgdGV4dExlbmd0aD0iNDgiIHg9IjExMTQuMzMiIHk9IjczMy41NzkxIj5wYWlkIGJ5PC90ZXh0Pjx0ZXh0IGZpbGw9IiMwMDAwMDAiIGZvbnQtZmFtaWx5PSJzYW5zLXNlcmlmIiBmb250LXNpemU9IjEzIiBsZW5ndGhBZGp1c3Q9InNwYWNpbmciIHRleHRMZW5ndGg9IjciIHg9IjExNTIuNTQ5IiB5PSI3MjEuNTU3MyI+MTwvdGV4dD48dGV4dCBmaWxsPSIjMDAwMDAwIiBmb250LWZhbWlseT0ic2Fucy1zZXJpZiIgZm9udC1zaXplPSIxMyIgbGVuZ3RoQWRqdXN0PSJzcGFjaW5nIiB0ZXh0TGVuZ3RoPSI3IiB4PSIxMTUxLjQ5NTIiIHk9Ijc1OS41NDk4Ij4xPC90ZXh0PjwvZz48IS0tbGluayBQYXltZW50IHRvIEFib25uZW1lbnQtLT48IS0tbGluayBBYm9ubmVtZW50IHRvIEF2YW50YWdlLS0+PGcgaWQ9ImxpbmtfQWJvbm5lbWVudF9BdmFudGFnZSI+PHBhdGggY29kZUxpbmU9IjY3IiBkPSJNMTE2My4zMyw4OTggQzExNjMuMzMsOTE3LjU2IDExNjMuMzMsOTM4LjkxIDExNjMuMzMsOTU3Ljk1ICIgZmlsbD0ibm9uZSIgaWQ9IkFib25uZW1lbnQtQXZhbnRhZ2UiIHN0eWxlPSJzdHJva2U6IzE4MTgxODtzdHJva2Utd2lkdGg6MS4wOyIvPjx0ZXh0IGZpbGw9IiMwMDAwMDAiIGZvbnQtZmFtaWx5PSJzYW5zLXNlcmlmIiBmb250LXNpemU9IjEzIiBsZW5ndGhBZGp1c3Q9InNwYWNpbmciIHRleHRMZW5ndGg9IjQwIiB4PSIxMTIyLjMzIiB5PSI5MjYuMjU5MSI+b2ZmZXJzPC90ZXh0Pjx0ZXh0IGZpbGw9IiMwMDAwMDAiIGZvbnQtZmFtaWx5PSJzYW5zLXNlcmlmIiBmb250LXNpemU9IjEzIiBsZW5ndGhBZGp1c3Q9InNwYWNpbmciIHRleHRMZW5ndGg9IjciIHg9IjExNTEuOTkxMSIgeT0iOTE4LjExODMiPjE8L3RleHQ+PHRleHQgZmlsbD0iIzAwMDAwMCIgZm9udC1mYW1pbHk9InNhbnMtc2VyaWYiIGZvbnQtc2l6ZT0iMTMiIGxlbmd0aEFkanVzdD0ic3BhY2luZyIgdGV4dExlbmd0aD0iMjUiIHg9IjExMzEuNDg1OCIgeT0iOTQ4LjM4MzEiPjAuLio8L3RleHQ+PC9nPjwhLS1saW5rIEFib25uZW1lbnQgdG8gQXZhbnRhZ2UtLT48IS0tbGluayBBY3R1YWxpdGUgdG8gRXF1aXBlLS0+PGcgaWQ9ImxpbmtfQWN0dWFsaXRlX0VxdWlwZSI+PHBhdGggY29kZUxpbmU9IjExMiIgZD0iTTEwMjQuMDgsNDc5IEMxMjAxLjQ3LDQ3OSAxNDczLjQsNDc5IDE0NzMuNCw0NzkgQzE0NzMuNCw0NzkgMTQ3My40LDUyOS42NCAxNDczLjQsNTcyLjE3ICIgZmlsbD0ibm9uZSIgaWQ9IkFjdHVhbGl0ZS1FcXVpcGUiIHN0eWxlPSJzdHJva2U6IzE4MTgxODtzdHJva2Utd2lkdGg6MS4wOyIvPjx0ZXh0IGZpbGw9IiMwMDAwMDAiIGZvbnQtZmFtaWx5PSJzYW5zLXNlcmlmIiBmb250LXNpemU9IjEzIiBsZW5ndGhBZGp1c3Q9InNwYWNpbmciIHRleHRMZW5ndGg9IjY4IiB4PSIxMjI2LjMzIiB5PSI0OTIuMjg5MSI+YmVsb25ncyB0bzwvdGV4dD48dGV4dCBmaWxsPSIjMDAwMDAwIiBmb250LWZhbWlseT0ic2Fucy1zZXJpZiIgZm9udC1zaXplPSIxMyIgbGVuZ3RoQWRqdXN0PSJzcGFjaW5nIiB0ZXh0TGVuZ3RoPSI3IiB4PSIxMDMxLjk3MzIiIHk9IjQ4Mi42NzgxIj4xPC90ZXh0Pjx0ZXh0IGZpbGw9IiMwMDAwMDAiIGZvbnQtZmFtaWx5PSJzYW5zLXNlcmlmIiBmb250LXNpemU9IjEzIiBsZW5ndGhBZGp1c3Q9InNwYWNpbmciIHRleHRMZW5ndGg9IjciIHg9IjE0NTEuMTM1IiB5PSI1NjIuOTU5MSI+MTwvdGV4dD48L2c+PCEtLWxpbmsgTm90aWZpY2F0aW9uIHRvIFV0aWxpc2F0ZXVyLS0+PGcgaWQ9ImxpbmtfTm90aWZpY2F0aW9uX1V0aWxpc2F0ZXVyIj48cGF0aCBjb2RlTGluZT0iMTEzIiBkPSJNMTI5NC41LDE4OC41NCBDMTI5NC41LDIyNS40NiAxMjk0LjUsMjcwLjUxIDEyOTQuNSwzMDguNDUgIiBmaWxsPSJub25lIiBpZD0iTm90aWZpY2F0aW9uLVV0aWxpc2F0ZXVyIiBzdHlsZT0ic3Ryb2tlOiMxODE4MTg7c3Ryb2tlLXdpZHRoOjEuMDsiLz48dGV4dCBmaWxsPSIjMDAwMDAwIiBmb250LWZhbWlseT0ic2Fucy1zZXJpZiIgZm9udC1zaXplPSIxMyIgbGVuZ3RoQWRqdXN0PSJzcGFjaW5nIiB0ZXh0TGVuZ3RoPSI0NyIgeD0iMTI0Ni41IiB5PSIyNDYuNzc5MSI+c2VudCB0bzwvdGV4dD48dGV4dCBmaWxsPSIjMDAwMDAwIiBmb250LWZhbWlseT0ic2Fucy1zZXJpZiIgZm9udC1zaXplPSIxMyIgbGVuZ3RoQWRqdXN0PSJzcGFjaW5nIiB0ZXh0TGVuZ3RoPSI3IiB4PSIxMjg3LjE1NTUiIHk9IjIwOC42MTg0Ij4xPC90ZXh0Pjx0ZXh0IGZpbGw9IiMwMDAwMDAiIGZvbnQtZmFtaWx5PSJzYW5zLXNlcmlmIiBmb250LXNpemU9IjEzIiBsZW5ndGhBZGp1c3Q9InNwYWNpbmciIHRleHRMZW5ndGg9IjciIHg9IjEyODcuMTM5MSIgeT0iMjk4LjkyNjgiPjE8L3RleHQ+PC9nPjwhLS1saW5rIE5vdGlmaWNhdGlvbiB0byBFcXVpcGUtLT48ZyBpZD0ibGlua19Ob3RpZmljYXRpb25fRXF1aXBlIj48cGF0aCBjb2RlTGluZT0iMTE0IiBkPSJNMTQ1MS41NSwxODUgQzE1MTkuMjcsMTg1IDE1ODMuMjUsMTg1IDE1ODMuMjUsMTg1IEMxNTgzLjI1LDE4NSAxNTgzLjI1LDQ1Mi4yNSAxNTgzLjI1LDU3Mi4zICIgZmlsbD0ibm9uZSIgaWQ9Ik5vdGlmaWNhdGlvbi1FcXVpcGUiIHN0eWxlPSJzdHJva2U6IzE4MTgxODtzdHJva2Utd2lkdGg6MS4wOyIvPjx0ZXh0IGZpbGw9IiMwMDAwMDAiIGZvbnQtZmFtaWx5PSJzYW5zLXNlcmlmIiBmb250LXNpemU9IjEzIiBsZW5ndGhBZGp1c3Q9InNwYWNpbmciIHRleHRMZW5ndGg9IjY3IiB4PSIxNTg0LjI1IiB5PSIzMTEuMDg5MSI+cmVsYXRlcyB0bzwvdGV4dD48dGV4dCBmaWxsPSIjMDAwMDAwIiBmb250LWZhbWlseT0ic2Fucy1zZXJpZiIgZm9udC1zaXplPSIxMyIgbGVuZ3RoQWRqdXN0PSJzcGFjaW5nIiB0ZXh0TGVuZ3RoPSI3IiB4PSIxNDU5LjMyNjYiIHk9IjE4Ny4zMjA4Ij4xPC90ZXh0Pjx0ZXh0IGZpbGw9IiMwMDAwMDAiIGZvbnQtZmFtaWx5PSJzYW5zLXNlcmlmIiBmb250LXNpemU9IjEzIiBsZW5ndGhBZGp1c3Q9InNwYWNpbmciIHRleHRMZW5ndGg9IjciIHg9IjE1NzUuNzIyNyIgeT0iNTYyLjcxMiI+MTwvdGV4dD48L2c+PCEtLWxpbmsgQ29tbWVudHMgdG8gQWN0dWFsaXRlLS0+PGcgaWQ9ImxpbmtfQ29tbWVudHNfQWN0dWFsaXRlIj48cGF0aCBjb2RlTGluZT0iMTE1IiBkPSJNOTQxLDE4MS4xOSBDOTQxLDIxMi40OCA5NDEsMjUwLjc4IDk0MSwyODUuODkgIiBmaWxsPSJub25lIiBpZD0iQ29tbWVudHMtQWN0dWFsaXRlIiBzdHlsZT0ic3Ryb2tlOiMxODE4MTg7c3Ryb2tlLXdpZHRoOjEuMDsiLz48dGV4dCBmaWxsPSIjMDAwMDAwIiBmb250LWZhbWlseT0ic2Fucy1zZXJpZiIgZm9udC1zaXplPSIxMyIgbGVuZ3RoQWRqdXN0PSJzcGFjaW5nIiB0ZXh0TGVuZ3RoPSI3NCIgeD0iODY2IiB5PSIyMzEuODI5MSI+cGVydGFpbnMgdG88L3RleHQ+PHRleHQgZmlsbD0iIzAwMDAwMCIgZm9udC1mYW1pbHk9InNhbnMtc2VyaWYiIGZvbnQtc2l6ZT0iMTMiIGxlbmd0aEFkanVzdD0ic3BhY2luZyIgdGV4dExlbmd0aD0iNyIgeD0iOTMzLjI3ODEiIHk9IjIwMC44ODA2Ij4xPC90ZXh0Pjx0ZXh0IGZpbGw9IiMwMDAwMDAiIGZvbnQtZmFtaWx5PSJzYW5zLXNlcmlmIiBmb250LXNpemU9IjEzIiBsZW5ndGhBZGp1c3Q9InNwYWNpbmciIHRleHRMZW5ndGg9IjciIHg9IjkzOS4yMTcyIiB5PSIyNzYuMjM2MiI+MTwvdGV4dD48L2c+PCEtLWxpbmsgQ29tbWVudHMgdG8gVXRpbGlzYXRldXItLT48ZyBpZD0ibGlua19Db21tZW50c19VdGlsaXNhdGV1ciI+PHBhdGggY29kZUxpbmU9IjExNiIgZD0iTTEwMjcuNSwxODEuMTkgQzEwMjcuNSwyNjEuNDkgMTAyNy41LDM4OCAxMDI3LjUsMzg4IEMxMDI3LjUsMzg4IDEwMzkuNzEsMzg4IDEwNTguOTEsMzg4ICIgZmlsbD0ibm9uZSIgaWQ9IkNvbW1lbnRzLVV0aWxpc2F0ZXVyIiBzdHlsZT0ic3Ryb2tlOiMxODE4MTg7c3Ryb2tlLXdpZHRoOjEuMDsiLz48dGV4dCBmaWxsPSIjMDAwMDAwIiBmb250LWZhbWlseT0ic2Fucy1zZXJpZiIgZm9udC1zaXplPSIxMyIgbGVuZ3RoQWRqdXN0PSJzcGFjaW5nIiB0ZXh0TGVuZ3RoPSI2NiIgeD0iMTAyOC41IiB5PSIyOTguNTg5MSI+d3JpdHRlbiBieTwvdGV4dD48dGV4dCBmaWxsPSIjMDAwMDAwIiBmb250LWZhbWlseT0ic2Fucy1zZXJpZiIgZm9udC1zaXplPSIxMyIgbGVuZ3RoQWRqdXN0PSJzcGFjaW5nIiB0ZXh0TGVuZ3RoPSI3IiB4PSIxMDI4LjY5ODQiIHk9IjIwMC44ODA2Ij4xPC90ZXh0Pjx0ZXh0IGZpbGw9IiMwMDAwMDAiIGZvbnQtZmFtaWx5PSJzYW5zLXNlcmlmIiBmb250LXNpemU9IjEzIiBsZW5ndGhBZGp1c3Q9InNwYWNpbmciIHRleHRMZW5ndGg9IjciIHg9IjEwNDQuMDY0OSIgeT0iMzg3LjA5NTQiPjE8L3RleHQ+PC9nPjwhLS1saW5rIEV2ZW5lbWVudCB0byBFcXVpcGUtLT48ZyBpZD0ibGlua19FdmVuZW1lbnRfRXF1aXBlIj48cGF0aCBjb2RlTGluZT0iMTYwIiBkPSJNNjQzLjUsNDUyLjU3IEM2NDMuNSw0ODEuODQgNjQzLjUsNTEwIDY0My41LDUxMCBDNjQzLjUsNTEwIDE0NDUuMSw1MTAgMTQ0NS4xLDUxMCBDMTQ0NS4xLDUxMCAxNDQ1LjEsNTQxLjUzIDE0NDUuMSw1NzIuMiAiIGZpbGw9Im5vbmUiIGlkPSJFdmVuZW1lbnQtRXF1aXBlIiBzdHlsZT0ic3Ryb2tlOiMxODE4MTg7c3Ryb2tlLXdpZHRoOjEuMDsiLz48dGV4dCBmaWxsPSIjMDAwMDAwIiBmb250LWZhbWlseT0ic2Fucy1zZXJpZiIgZm9udC1zaXplPSIxMyIgbGVuZ3RoQWRqdXN0PSJzcGFjaW5nIiB0ZXh0TGVuZ3RoPSI2OCIgeD0iOTc3LjY5IiB5PSI1MDguMjg5MSI+YmVsb25ncyB0bzwvdGV4dD48dGV4dCBmaWxsPSIjMDAwMDAwIiBmb250LWZhbWlseT0ic2Fucy1zZXJpZiIgZm9udC1zaXplPSIxMyIgbGVuZ3RoQWRqdXN0PSJzcGFjaW5nIiB0ZXh0TGVuZ3RoPSI3IiB4PSI2MzguNjMyOCIgeT0iNDcyLjY5NiI+MTwvdGV4dD48dGV4dCBmaWxsPSIjMDAwMDAwIiBmb250LWZhbWlseT0ic2Fucy1zZXJpZiIgZm9udC1zaXplPSIxMyIgbGVuZ3RoQWRqdXN0PSJzcGFjaW5nIiB0ZXh0TGVuZ3RoPSI3IiB4PSIxNDE5LjAzMjIiIHk9IjU2Mi45OTMxIj4xPC90ZXh0PjwvZz48IS0tbGluayBFdmVuZW1lbnQgdG8gTWF0Y2gtLT48ZyBpZD0ibGlua19FdmVuZW1lbnRfTWF0Y2giPjxwYXRoIGNvZGVMaW5lPSIxNjEiIGQ9Ik01OTcuNSw0NTIuNTMgQzU5Ny41LDUyNC4yMiA1OTcuNSw2MzAgNTk3LjUsNjMwIEM1OTcuNSw2MzAgNTI3LjU4LDYzMCA0NjAuMTIsNjMwICIgZmlsbD0ibm9uZSIgaWQ9IkV2ZW5lbWVudC1NYXRjaCIgc3R5bGU9InN0cm9rZTojMTgxODE4O3N0cm9rZS13aWR0aDoxLjA7Ii8+PHRleHQgZmlsbD0iIzAwMDAwMCIgZm9udC1mYW1pbHk9InNhbnMtc2VyaWYiIGZvbnQtc2l6ZT0iMTMiIGxlbmd0aEFkanVzdD0ic3BhY2luZyIgdGV4dExlbmd0aD0iMjEiIHg9IjU3NS41IiB5PSI2MDguMjQ5MSI+aGFzPC90ZXh0Pjx0ZXh0IGZpbGw9IiMwMDAwMDAiIGZvbnQtZmFtaWx5PSJzYW5zLXNlcmlmIiBmb250LXNpemU9IjEzIiBsZW5ndGhBZGp1c3Q9InNwYWNpbmciIHRleHRMZW5ndGg9IjciIHg9IjU4Ny42MDE2IiB5PSI0NzIuNjUxNiI+MTwvdGV4dD48dGV4dCBmaWxsPSIjMDAwMDAwIiBmb250LWZhbWlseT0ic2Fucy1zZXJpZiIgZm9udC1zaXplPSIxMyIgbGVuZ3RoQWRqdXN0PSJzcGFjaW5nIiB0ZXh0TGVuZ3RoPSIyNiIgeD0iNDY4LjAxODMiIHk9IjYyOC45NzU0Ij4wLi4xPC90ZXh0PjwvZz48IS0tbGluayBKb3VldXIgdG8gRXF1aXBlLS0+PGcgaWQ9ImxpbmtfSm91ZXVyX0VxdWlwZSI+PHBhdGggY29kZUxpbmU9IjE2MiIgZD0iTTQ4OCw0NzUuMSBDNDg4LDUwNC40OSA0ODgsNTMwIDQ4OCw1MzAgQzQ4OCw1MzAgMTQxNi44LDUzMCAxNDE2LjgsNTMwIEMxNDE2LjgsNTMwIDE0MTYuOCw1NTAuMjUgMTQxNi44LDU3Mi40OSAiIGZpbGw9Im5vbmUiIGlkPSJKb3VldXItRXF1aXBlIiBzdHlsZT0ic3Ryb2tlOiMxODE4MTg7c3Ryb2tlLXdpZHRoOjEuMDsiLz48dGV4dCBmaWxsPSIjMDAwMDAwIiBmb250LWZhbWlseT0ic2Fucy1zZXJpZiIgZm9udC1zaXplPSIxMyIgbGVuZ3RoQWRqdXN0PSJzcGFjaW5nIiB0ZXh0TGVuZ3RoPSI2MSIgeD0iODg0LjE5IiB5PSI1MjguMjg5MSI+cGxheXMgZm9yPC90ZXh0Pjx0ZXh0IGZpbGw9IiMwMDAwMDAiIGZvbnQtZmFtaWx5PSJzYW5zLXNlcmlmIiBmb250LXNpemU9IjEzIiBsZW5ndGhBZGp1c3Q9InNwYWNpbmciIHRleHRMZW5ndGg9IjciIHg9IjQ5NC44NjU2IiB5PSI0OTQuODk2MSI+MTwvdGV4dD48dGV4dCBmaWxsPSIjMDAwMDAwIiBmb250LWZhbWlseT0ic2Fucy1zZXJpZiIgZm9udC1zaXplPSIxMyIgbGVuZ3RoQWRqdXN0PSJzcGFjaW5nIiB0ZXh0TGVuZ3RoPSI3IiB4PSIxMzg1Ljg2NTYiIHk9IjU2Mi45Mjg3Ij4xPC90ZXh0PjwvZz48IS0tbGluayBTdGF0aXN0aXF1ZSB0byBNYXRjaC0tPjxnIGlkPSJsaW5rX1N0YXRpc3RpcXVlX01hdGNoIj48cGF0aCBjb2RlTGluZT0iMTYzIiBkPSJNNzUsMTczLjkxIEM3NSwzMDcuOTEgNzUsNjMwIDc1LDYzMCBDNzUsNjMwIDE0NS4wNSw2MzAgMjEyLjY0LDYzMCAiIGZpbGw9Im5vbmUiIGlkPSJTdGF0aXN0aXF1ZS1NYXRjaCIgc3R5bGU9InN0cm9rZTojMTgxODE4O3N0cm9rZS13aWR0aDoxLjA7Ii8+PHRleHQgZmlsbD0iIzAwMDAwMCIgZm9udC1mYW1pbHk9InNhbnMtc2VyaWYiIGZvbnQtc2l6ZT0iMTMiIGxlbmd0aEFkanVzdD0ic3BhY2luZyIgdGV4dExlbmd0aD0iNjciIHg9IjciIHk9IjQ2OS4wNjkxIj5yZWxhdGVzIHRvPC90ZXh0Pjx0ZXh0IGZpbGw9IiMwMDAwMDAiIGZvbnQtZmFtaWx5PSJzYW5zLXNlcmlmIiBmb250LXNpemU9IjEzIiBsZW5ndGhBZGp1c3Q9InNwYWNpbmciIHRleHRMZW5ndGg9IjciIHg9IjU1LjI4MTMiIHk9IjE5My42NTUxIj4xPC90ZXh0Pjx0ZXh0IGZpbGw9IiMwMDAwMDAiIGZvbnQtZmFtaWx5PSJzYW5zLXNlcmlmIiBmb250LXNpemU9IjEzIiBsZW5ndGhBZGp1c3Q9InNwYWNpbmciIHRleHRMZW5ndGg9IjciIHg9IjE5Ny44NzkiIHk9IjYyOC45NTg0Ij4xPC90ZXh0PjwvZz48IS0tbGluayBTdGF0aXN0aXF1ZSB0byBKb3VldXItLT48ZyBpZD0ibGlua19TdGF0aXN0aXF1ZV9Kb3VldXIiPjxwYXRoIGNvZGVMaW5lPSIxNjQiIGQ9Ik0yMTEuNSwxNzMuNzUgQzIxMS41LDIxMC42MiAyMTEuNSwyNTkuMjYgMjExLjUsMzAwLjg4ICIgZmlsbD0ibm9uZSIgaWQ9IlN0YXRpc3RpcXVlLUpvdWV1ciIgc3R5bGU9InN0cm9rZTojMTgxODE4O3N0cm9rZS13aWR0aDoxLjA7Ii8+PHRleHQgZmlsbD0iIzAwMDAwMCIgZm9udC1mYW1pbHk9InNhbnMtc2VyaWYiIGZvbnQtc2l6ZT0iMTMiIGxlbmd0aEFkanVzdD0ic3BhY2luZyIgdGV4dExlbmd0aD0iNDEiIHg9IjE2OS41IiB5PSIyMzUuNTk5MSI+dHJhY2tzPC90ZXh0Pjx0ZXh0IGZpbGw9IiMwMDAwMDAiIGZvbnQtZmFtaWx5PSJzYW5zLXNlcmlmIiBmb250LXNpemU9IjEzIiBsZW5ndGhBZGp1c3Q9InNwYWNpbmciIHRleHRMZW5ndGg9IjciIHg9IjIwNy41NjQxIiB5PSIxOTMuNDc2NiI+MTwvdGV4dD48dGV4dCBmaWxsPSIjMDAwMDAwIiBmb250LWZhbWlseT0ic2Fucy1zZXJpZiIgZm9udC1zaXplPSIxMyIgbGVuZ3RoQWRqdXN0PSJzcGFjaW5nIiB0ZXh0TGVuZ3RoPSI3IiB4PSIxOTQuNzMwNSIgeT0iMjkxLjMwMzYiPjE8L3RleHQ+PC9nPjwhLS1saW5rIEJpbGxldCB0byBFdmVuZW1lbnQtLT48ZyBpZD0ibGlua19CaWxsZXRfRXZlbmVtZW50Ij48cGF0aCBjb2RlTGluZT0iMTY1IiBkPSJNNjIwLjUsMTgxLjE5IEM2MjAuNSwyMjQuMTYgNjIwLjUsMjgwLjM3IDYyMC41LDMyMy4zNCAiIGZpbGw9Im5vbmUiIGlkPSJCaWxsZXQtRXZlbmVtZW50IiBzdHlsZT0ic3Ryb2tlOiMxODE4MTg7c3Ryb2tlLXdpZHRoOjEuMDsiLz48dGV4dCBmaWxsPSIjMDAwMDAwIiBmb250LWZhbWlseT0ic2Fucy1zZXJpZiIgZm9udC1zaXplPSIxMyIgbGVuZ3RoQWRqdXN0PSJzcGFjaW5nIiB0ZXh0TGVuZ3RoPSIyMCIgeD0iNTk5LjUiIHk9IjI1MC41NDkxIj5mb3I8L3RleHQ+PHRleHQgZmlsbD0iIzAwMDAwMCIgZm9udC1mYW1pbHk9InNhbnMtc2VyaWYiIGZvbnQtc2l6ZT0iMTMiIGxlbmd0aEFkanVzdD0ic3BhY2luZyIgdGV4dExlbmd0aD0iNyIgeD0iNjA4LjgwNzgiIHk9IjIwMC44ODA2Ij4xPC90ZXh0Pjx0ZXh0IGZpbGw9IiMwMDAwMDAiIGZvbnQtZmFtaWx5PSJzYW5zLXNlcmlmIiBmb250LXNpemU9IjEzIiBsZW5ndGhBZGp1c3Q9InNwYWNpbmciIHRleHRMZW5ndGg9IjciIHg9IjYxMy4wNzM0IiB5PSIzMTQuMDI3NCI+MTwvdGV4dD48L2c+PCEtLWxpbmsgQmlsbGV0IHRvIFV0aWxpc2F0ZXVyLS0+PGcgaWQ9ImxpbmtfQmlsbGV0X1V0aWxpc2F0ZXVyIj48cGF0aCBjb2RlTGluZT0iMTY2IiBkPSJNNzUyLjc1LDE4MS4wNSBDNzUyLjc1LDE4OS44OCA3NTIuNzUsMTk2IDc1Mi43NSwxOTYgQzc1Mi43NSwxOTYgMTA5OC4yNSwxOTYgMTA5OC4yNSwxOTYgQzEwOTguMjUsMTk2IDEwOTguMjUsMjU1LjQ5IDEwOTguMjUsMzA4LjI0ICIgZmlsbD0ibm9uZSIgaWQ9IkJpbGxldC1VdGlsaXNhdGV1ciIgc3R5bGU9InN0cm9rZTojMTgxODE4O3N0cm9rZS13aWR0aDoxLjA7Ii8+PHRleHQgZmlsbD0iIzAwMDAwMCIgZm9udC1mYW1pbHk9InNhbnMtc2VyaWYiIGZvbnQtc2l6ZT0iMTMiIGxlbmd0aEFkanVzdD0ic3BhY2luZyIgdGV4dExlbmd0aD0iODQiIHg9Ijg4OS4xNCIgeT0iMjA5LjI4OTEiPnB1cmNoYXNlZCBieTwvdGV4dD48dGV4dCBmaWxsPSIjMDAwMDAwIiBmb250LWZhbWlseT0ic2Fucy1zZXJpZiIgZm9udC1zaXplPSIxMyIgbGVuZ3RoQWRqdXN0PSJzcGFjaW5nIiB0ZXh0TGVuZ3RoPSIyNiIgeD0iNzM1LjE5OTIiIHk9IjIwMS4xNzM4Ij4wLi4xPC90ZXh0Pjx0ZXh0IGZpbGw9IiMwMDAwMDAiIGZvbnQtZmFtaWx5PSJzYW5zLXNlcmlmIiBmb250LXNpemU9IjEzIiBsZW5ndGhBZGp1c3Q9InNwYWNpbmciIHRleHRMZW5ndGg9IjciIHg9IjEwNzguMzcyNyIgeT0iMjk4LjY5NTEiPjE8L3RleHQ+PC9nPjwhLS1saW5rIEdhbGVyaWUgdG8gRXF1aXBlLS0+PGcgaWQ9ImxpbmtfR2FsZXJpZV9FcXVpcGUiPjxwYXRoIGNvZGVMaW5lPSIxODQiIGQ9Ik0xOTA2Ljc1LDQ0NS4yOCBDMTkwNi43NSw1MjIuMTEgMTkwNi43NSw2NDkgMTkwNi43NSw2NDkgQzE5MDYuNzUsNjQ5IDE4NDYuOCw2NDkgMTc3OC41Myw2NDkgIiBmaWxsPSJub25lIiBpZD0iR2FsZXJpZS1FcXVpcGUiIHN0eWxlPSJzdHJva2U6IzE4MTgxODtzdHJva2Utd2lkdGg6MS4wOyIvPjx0ZXh0IGZpbGw9IiMwMDAwMDAiIGZvbnQtZmFtaWx5PSJzYW5zLXNlcmlmIiBmb250LXNpemU9IjEzIiBsZW5ndGhBZGp1c3Q9InNwYWNpbmciIHRleHRMZW5ndGg9IjY4IiB4PSIxODM3Ljc1IiB5PSI2MDkuNTM5MSI+YmVsb25ncyB0bzwvdGV4dD48dGV4dCBmaWxsPSIjMDAwMDAwIiBmb250LWZhbWlseT0ic2Fucy1zZXJpZiIgZm9udC1zaXplPSIxMyIgbGVuZ3RoQWRqdXN0PSJzcGFjaW5nIiB0ZXh0TGVuZ3RoPSI3IiB4PSIxODg3LjE0MTgiIHk9IjQ2Mi44OTg0Ij4xPC90ZXh0Pjx0ZXh0IGZpbGw9IiMwMDAwMDAiIGZvbnQtZmFtaWx5PSJzYW5zLXNlcmlmIiBmb250LXNpemU9IjEzIiBsZW5ndGhBZGp1c3Q9InNwYWNpbmciIHRleHRMZW5ndGg9IjciIHg9IjE3ODYuMjg1MSIgeT0iNjQ4LjgxOTMiPjE8L3RleHQ+PC9nPjwhLS1saW5rIEdhbGVyaWUgdG8gTWVkaWEtLT48ZyBpZD0ibGlua19HYWxlcmllX01lZGlhIj48cGF0aCBjb2RlTGluZT0iMTg1IiBkPSJNMjA1NS41LDQ0NS4yMyBDMjA1NS41LDQ4MS4wOCAyMDU1LjUsNTI3LjM3IDIwNTUuNSw1NjQuNTggIiBmaWxsPSJub25lIiBpZD0iR2FsZXJpZS1NZWRpYSIgc3R5bGU9InN0cm9rZTojMTgxODE4O3N0cm9rZS13aWR0aDoxLjA7Ii8+PHRleHQgZmlsbD0iIzAwMDAwMCIgZm9udC1mYW1pbHk9InNhbnMtc2VyaWYiIGZvbnQtc2l6ZT0iMTMiIGxlbmd0aEFkanVzdD0ic3BhY2luZyIgdGV4dExlbmd0aD0iNTQiIHg9IjIwMDAuNSIgeT0iNTAzLjE5OTEiPmNvbnRhaW5zPC90ZXh0Pjx0ZXh0IGZpbGw9IiMwMDAwMDAiIGZvbnQtZmFtaWx5PSJzYW5zLXNlcmlmIiBmb250LXNpemU9IjEzIiBsZW5ndGhBZGp1c3Q9InNwYWNpbmciIHRleHRMZW5ndGg9IjciIHg9IjIwNDguMDk1MyIgeT0iNDY0Ljk1NDIiPjE8L3RleHQ+PHRleHQgZmlsbD0iIzAwMDAwMCIgZm9udC1mYW1pbHk9InNhbnMtc2VyaWYiIGZvbnQtc2l6ZT0iMTMiIGxlbmd0aEFkanVzdD0ic3BhY2luZyIgdGV4dExlbmd0aD0iMjUiIHg9IjIwMjguOTc2NiIgeT0iNTU1LjIzNTciPjAuLio8L3RleHQ+PC9nPjwhLS1saW5rIEZvcnVtIHRvIEVxdWlwZS0tPjxnIGlkPSJsaW5rX0ZvcnVtX0VxdWlwZSI+PHBhdGggY29kZUxpbmU9IjIwOSIgZD0iTTE4MTUsMTY2LjE4IEMxODE1LDI5MS41OCAxODE1LDYxMSAxODE1LDYxMSBDMTgxNSw2MTEgMTgwMC40Miw2MTEgMTc3OC41Nyw2MTEgIiBmaWxsPSJub25lIiBpZD0iRm9ydW0tRXF1aXBlIiBzdHlsZT0ic3Ryb2tlOiMxODE4MTg7c3Ryb2tlLXdpZHRoOjEuMDsiLz48dGV4dCBmaWxsPSIjMDAwMDAwIiBmb250LWZhbWlseT0ic2Fucy1zZXJpZiIgZm9udC1zaXplPSIxMyIgbGVuZ3RoQWRqdXN0PSJzcGFjaW5nIiB0ZXh0TGVuZ3RoPSIyMCIgeD0iMTgxNiIgeT0iNDA1LjA4OTEiPmZvcjwvdGV4dD48dGV4dCBmaWxsPSIjMDAwMDAwIiBmb250LWZhbWlseT0ic2Fucy1zZXJpZiIgZm9udC1zaXplPSIxMyIgbGVuZ3RoQWRqdXN0PSJzcGFjaW5nIiB0ZXh0TGVuZ3RoPSI3IiB4PSIxODE0LjMxNTYiIHk9IjE4Ni4wOTQ0Ij4xPC90ZXh0Pjx0ZXh0IGZpbGw9IiMwMDAwMDAiIGZvbnQtZmFtaWx5PSJzYW5zLXNlcmlmIiBmb250LXNpemU9IjEzIiBsZW5ndGhBZGp1c3Q9InNwYWNpbmciIHRleHRMZW5ndGg9IjciIHg9IjE3ODYuMzI2NiIgeT0iNjA5LjMzNDkiPjE8L3RleHQ+PC9nPjwhLS1saW5rIEZvcnVtIHRvIERpc2N1c3Npb24tLT48ZyBpZD0ibGlua19Gb3J1bV9EaXNjdXNzaW9uIj48cGF0aCBjb2RlTGluZT0iMjEwIiBkPSJNMTcyOS4xNywxNjYuMyBDMTcyOS4xNywyMTIuNjggMTcyOS4xNywyODEuODEgMTcyOS4xNywzMzAuNTIgIiBmaWxsPSJub25lIiBpZD0iRm9ydW0tRGlzY3Vzc2lvbiIgc3R5bGU9InN0cm9rZTojMTgxODE4O3N0cm9rZS13aWR0aDoxLjA7Ii8+PHRleHQgZmlsbD0iIzAwMDAwMCIgZm9udC1mYW1pbHk9InNhbnMtc2VyaWYiIGZvbnQtc2l6ZT0iMTMiIGxlbmd0aEFkanVzdD0ic3BhY2luZyIgdGV4dExlbmd0aD0iNTQiIHg9IjE2NzQuMTciIHk9IjI0Ni42OTkxIj5jb250YWluczwvdGV4dD48dGV4dCBmaWxsPSIjMDAwMDAwIiBmb250LWZhbWlseT0ic2Fucy1zZXJpZiIgZm9udC1zaXplPSIxMyIgbGVuZ3RoQWRqdXN0PSJzcGFjaW5nIiB0ZXh0TGVuZ3RoPSI3IiB4PSIxNzE2Ljk1MjIiIHk9IjE4Ni4yMzA1Ij4xPC90ZXh0Pjx0ZXh0IGZpbGw9IiMwMDAwMDAiIGZvbnQtZmFtaWx5PSJzYW5zLXNlcmlmIiBmb250LXNpemU9IjEzIiBsZW5ndGhBZGp1c3Q9InNwYWNpbmciIHRleHRMZW5ndGg9IjI1IiB4PSIxNzA0LjE5MjgiIHk9IjMyMS4yODg5Ij4wLi4qPC90ZXh0PjwvZz48IS0tbGluayBEaXNjdXNzaW9uIHRvIEZvcnVtLS0+PGcgaWQ9ImxpbmtfRGlzY3Vzc2lvbl9Gb3J1bSI+PHBhdGggY29kZUxpbmU9IjIxMSIgZD0iTTE3NjIuODMsMzMwLjc1IEMxNzYyLjgzLDI4Mi4wNiAxNzYyLjgzLDIxMi44MyAxNzYyLjgzLDE2Ni4zNyAiIGZpbGw9Im5vbmUiIGlkPSJEaXNjdXNzaW9uLUZvcnVtIiBzdHlsZT0ic3Ryb2tlOiMxODE4MTg7c3Ryb2tlLXdpZHRoOjEuMDsiLz48dGV4dCBmaWxsPSIjMDAwMDAwIiBmb250LWZhbWlseT0ic2Fucy1zZXJpZiIgZm9udC1zaXplPSIxMyIgbGVuZ3RoQWRqdXN0PSJzcGFjaW5nIiB0ZXh0TGVuZ3RoPSIxMyIgeD0iMTc0OC44MyIgeT0iMjQ2Ljg0OTEiPmluPC90ZXh0Pjx0ZXh0IGZpbGw9IiMwMDAwMDAiIGZvbnQtZmFtaWx5PSJzYW5zLXNlcmlmIiBmb250LXNpemU9IjEzIiBsZW5ndGhBZGp1c3Q9InNwYWNpbmciIHRleHRMZW5ndGg9IjciIHg9IjE3NjEuNTg1MyIgeT0iMzIxLjU0OTgiPjE8L3RleHQ+PHRleHQgZmlsbD0iIzAwMDAwMCIgZm9udC1mYW1pbHk9InNhbnMtc2VyaWYiIGZvbnQtc2l6ZT0iMTMiIGxlbmd0aEFkanVzdD0ic3BhY2luZyIgdGV4dExlbmd0aD0iNyIgeD0iMTc1NS4xNjc2IiB5PSIxODUuOTU0Ij4xPC90ZXh0PjwvZz48IS0tbGluayBNZXNzYWdlIHRvIERpc2N1c3Npb24tLT48ZyBpZD0ibGlua19NZXNzYWdlX0Rpc2N1c3Npb24iPjxwYXRoIGNvZGVMaW5lPSIyMTIiIGQ9Ik0xNjQ4LjI1LDE4MS4xOSBDMTY0OC4yNSwyMjYuNjcgMTY0OC4yNSwyODYuOTggMTY0OC4yNSwzMzAuNzMgIiBmaWxsPSJub25lIiBpZD0iTWVzc2FnZS1EaXNjdXNzaW9uIiBzdHlsZT0ic3Ryb2tlOiMxODE4MTg7c3Ryb2tlLXdpZHRoOjEuMDsiLz48dGV4dCBmaWxsPSIjMDAwMDAwIiBmb250LWZhbWlseT0ic2Fucy1zZXJpZiIgZm9udC1zaXplPSIxMyIgbGVuZ3RoQWRqdXN0PSJzcGFjaW5nIiB0ZXh0TGVuZ3RoPSIxMyIgeD0iMTYzNC4yNSIgeT0iMjU0LjI0OTEiPmluPC90ZXh0Pjx0ZXh0IGZpbGw9IiMwMDAwMDAiIGZvbnQtZmFtaWx5PSJzYW5zLXNlcmlmIiBmb250LXNpemU9IjEzIiBsZW5ndGhBZGp1c3Q9InNwYWNpbmciIHRleHRMZW5ndGg9IjciIHg9IjE2NDguNTk3NyIgeT0iMjAwLjg4MDYiPjE8L3RleHQ+PHRleHQgZmlsbD0iIzAwMDAwMCIgZm9udC1mYW1pbHk9InNhbnMtc2VyaWYiIGZvbnQtc2l6ZT0iMTMiIGxlbmd0aEFkanVzdD0ic3BhY2luZyIgdGV4dExlbmd0aD0iNyIgeD0iMTYzMS42MDg2IiB5PSIzMjEuNTI3MSI+MTwvdGV4dD48L2c+PCEtLWxpbmsgTWVzc2FnZSB0byBVdGlsaXNhdGV1ci0tPjxnIGlkPSJsaW5rX01lc3NhZ2VfVXRpbGlzYXRldXIiPjxwYXRoIGNvZGVMaW5lPSIyMTMiIGQ9Ik0xNTA4LjUsMTgxLjE5IEMxNTA4LjUsMjE5LjMgMTUwOC41LDI2Ny44MiAxNTA4LjUsMzA4LjI4ICIgZmlsbD0ibm9uZSIgaWQ9Ik1lc3NhZ2UtVXRpbGlzYXRldXIiIHN0eWxlPSJzdHJva2U6IzE4MTgxODtzdHJva2Utd2lkdGg6MS4wOyIvPjx0ZXh0IGZpbGw9IiMwMDAwMDAiIGZvbnQtZmFtaWx5PSJzYW5zLXNlcmlmIiBmb250LXNpemU9IjEzIiBsZW5ndGhBZGp1c3Q9InNwYWNpbmciIHRleHRMZW5ndGg9IjY2IiB4PSIxNDQxLjUiIHk9IjI0My4wMjkxIj53cml0dGVuIGJ5PC90ZXh0Pjx0ZXh0IGZpbGw9IiMwMDAwMDAiIGZvbnQtZmFtaWx5PSJzYW5zLXNlcmlmIiBmb250LXNpemU9IjEzIiBsZW5ndGhBZGp1c3Q9InNwYWNpbmciIHRleHRMZW5ndGg9IjciIHg9IjE0OTQuNDM1OSIgeT0iMjAwLjg4MDYiPjE8L3RleHQ+PHRleHQgZmlsbD0iIzAwMDAwMCIgZm9udC1mYW1pbHk9InNhbnMtc2VyaWYiIGZvbnQtc2l6ZT0iMTMiIGxlbmd0aEFkanVzdD0ic3BhY2luZyIgdGV4dExlbmd0aD0iNyIgeD0iMTUyMy4yMDc4IiB5PSIyOTguNzM5MyI+MTwvdGV4dD48L2c+PCEtLWxpbmsgUGFydGVuYWlyZSB0byBQYXJ0ZW5hcmlhdC0tPjxnIGlkPSJsaW5rX1BhcnRlbmFpcmVfUGFydGVuYXJpYXQiPjxwYXRoIGNvZGVMaW5lPSIyNjAiIGQ9Ik0yMjk5Ljc1LDIwMy41MiBDMjI5OS43NSwyMzkuNjYgMjI5OS43NSwyODEuMTEgMjI5OS43NSwzMTUuNTYgIiBmaWxsPSJub25lIiBpZD0iUGFydGVuYWlyZS1QYXJ0ZW5hcmlhdCIgc3R5bGU9InN0cm9rZTojMTgxODE4O3N0cm9rZS13aWR0aDoxLjA7Ii8+PHRleHQgZmlsbD0iIzAwMDAwMCIgZm9udC1mYW1pbHk9InNhbnMtc2VyaWYiIGZvbnQtc2l6ZT0iMTMiIGxlbmd0aEFkanVzdD0ic3BhY2luZyIgdGV4dExlbmd0aD0iMjEiIHg9IjIyNzcuNzUiIHk9IjI1Ny44MjkxIj5oYXM8L3RleHQ+PHRleHQgZmlsbD0iIzAwMDAwMCIgZm9udC1mYW1pbHk9InNhbnMtc2VyaWYiIGZvbnQtc2l6ZT0iMTMiIGxlbmd0aEFkanVzdD0ic3BhY2luZyIgdGV4dExlbmd0aD0iNyIgeD0iMjI5NC43OTk2IiB5PSIyMjMuNjAzOCI+MTwvdGV4dD48dGV4dCBmaWxsPSIjMDAwMDAwIiBmb250LWZhbWlseT0ic2Fucy1zZXJpZiIgZm9udC1zaXplPSIxMyIgbGVuZ3RoQWRqdXN0PSJzcGFjaW5nIiB0ZXh0TGVuZ3RoPSIyNSIgeD0iMjI1OC42NDQ1IiB5PSIzMDYuMjc5NSI+MC4uKjwvdGV4dD48L2c+PCEtLWxpbmsgU3BvbnNvciB0byBQYXJ0ZW5hcmlhdC0tPjxnIGlkPSJsaW5rX1Nwb25zb3JfUGFydGVuYXJpYXQiPjxwYXRoIGNvZGVMaW5lPSIyNjEiIGQ9Ik0yNTA3LjI1LDIyNi4xNSBDMjUwNy4yNSwyNTYuMzIgMjUwNy4yNSwyODguMjcgMjUwNy4yNSwzMTUuNzUgIiBmaWxsPSJub25lIiBpZD0iU3BvbnNvci1QYXJ0ZW5hcmlhdCIgc3R5bGU9InN0cm9rZTojMTgxODE4O3N0cm9rZS13aWR0aDoxLjA7Ii8+PHRleHQgZmlsbD0iIzAwMDAwMCIgZm9udC1mYW1pbHk9InNhbnMtc2VyaWYiIGZvbnQtc2l6ZT0iMTMiIGxlbmd0aEFkanVzdD0ic3BhY2luZyIgdGV4dExlbmd0aD0iMzQiIHg9IjI0NzIuMjUiIHk9IjI2OS4yMzkxIj5mdW5kczwvdGV4dD48dGV4dCBmaWxsPSIjMDAwMDAwIiBmb250LWZhbWlseT0ic2Fucy1zZXJpZiIgZm9udC1zaXplPSIxMyIgbGVuZ3RoQWRqdXN0PSJzcGFjaW5nIiB0ZXh0TGVuZ3RoPSI3IiB4PSIyNDk0LjI0NDEiIHk9IjI0NS45MjAyIj4xPC90ZXh0Pjx0ZXh0IGZpbGw9IiMwMDAwMDAiIGZvbnQtZmFtaWx5PSJzYW5zLXNlcmlmIiBmb250LXNpemU9IjEzIiBsZW5ndGhBZGp1c3Q9InNwYWNpbmciIHRleHRMZW5ndGg9IjI1IiB4PSIyNDg4LjgzOTgiIHk9IjMwNi40OTAzIj4wLi4qPC90ZXh0PjwvZz48IS0tbGluayBQYXJ0ZW5hcmlhdCB0byBFcXVpcGUtLT48ZyBpZD0ibGlua19QYXJ0ZW5hcmlhdF9FcXVpcGUiPjxwYXRoIGNvZGVMaW5lPSIyNjIiIGQ9Ik0yMjQ0LjQ0LDQ1MyBDMjAyOS4wNCw0NTMgMTcwNy41LDQ1MyAxNzA3LjUsNDUzIEMxNzA3LjUsNDUzIDE3MDcuNSw1MjAuNjYgMTcwNy41LDU3Mi4yICIgZmlsbD0ibm9uZSIgaWQ9IlBhcnRlbmFyaWF0LUVxdWlwZSIgc3R5bGU9InN0cm9rZTojMTgxODE4O3N0cm9rZS13aWR0aDoxLjA7Ii8+PHRleHQgZmlsbD0iIzAwMDAwMCIgZm9udC1mYW1pbHk9InNhbnMtc2VyaWYiIGZvbnQtc2l6ZT0iMTMiIGxlbmd0aEFkanVzdD0ic3BhY2luZyIgdGV4dExlbmd0aD0iMjUiIHg9IjE5MTcuMzciIHk9IjQ2Ni4yODkxIj53aXRoPC90ZXh0Pjx0ZXh0IGZpbGw9IiMwMDAwMDAiIGZvbnQtZmFtaWx5PSJzYW5zLXNlcmlmIiBmb250LXNpemU9IjEzIiBsZW5ndGhBZGp1c3Q9InNwYWNpbmciIHRleHRMZW5ndGg9IjciIHg9IjIyMjkuMjc0MiIgeT0iNDU0Ljc4MTkiPjE8L3RleHQ+PHRleHQgZmlsbD0iIzAwMDAwMCIgZm9udC1mYW1pbHk9InNhbnMtc2VyaWYiIGZvbnQtc2l6ZT0iMTMiIGxlbmd0aEFkanVzdD0ic3BhY2luZyIgdGV4dExlbmd0aD0iNyIgeD0iMTcxNi42OTIyIiB5PSI1NjIuOTkzMSI+MTwvdGV4dD48L2c+PCEtLWxpbmsgUGFydGVuYXJpYXQgdG8gQ2FtcGFpZ24tLT48ZyBpZD0ibGlua19QYXJ0ZW5hcmlhdF9DYW1wYWlnbiI+PHBhdGggY29kZUxpbmU9IjI2MyIgZD0iTTI0MzQuNSw0NjAuMTMgQzI0MzQuNSw0ODguMzUgMjQzNC41LDUyMC44MSAyNDM0LjUsNTQ5LjcyICIgZmlsbD0ibm9uZSIgaWQ9IlBhcnRlbmFyaWF0LUNhbXBhaWduIiBzdHlsZT0ic3Ryb2tlOiMxODE4MTg7c3Ryb2tlLXdpZHRoOjEuMDsiLz48dGV4dCBmaWxsPSIjMDAwMDAwIiBmb250LWZhbWlseT0ic2Fucy1zZXJpZiIgZm9udC1zaXplPSIxMyIgbGVuZ3RoQWRqdXN0PSJzcGFjaW5nIiB0ZXh0TGVuZ3RoPSI1NSIgeD0iMjM3OC41IiB5PSI1MDMuMjE5MSI+c3VwcG9ydHM8L3RleHQ+PHRleHQgZmlsbD0iIzAwMDAwMCIgZm9udC1mYW1pbHk9InNhbnMtc2VyaWYiIGZvbnQtc2l6ZT0iMTMiIGxlbmd0aEFkanVzdD0ic3BhY2luZyIgdGV4dExlbmd0aD0iNyIgeD0iMjQyNy4xNjY0IiB5PSI0NzkuOTY5NyI+MTwvdGV4dD48dGV4dCBmaWxsPSIjMDAwMDAwIiBmb250LWZhbWlseT0ic2Fucy1zZXJpZiIgZm9udC1zaXplPSIxMyIgbGVuZ3RoQWRqdXN0PSJzcGFjaW5nIiB0ZXh0TGVuZ3RoPSIyNSIgeD0iMjQwOC4yMTA5IiB5PSI1NDAuMTczMSI+MC4uKjwvdGV4dD48L2c+PCEtLVNSQz1bcExaRFJYaXQ0QnhoQUdXVGdseDRYZkVxQTIyYUFNR2hKYnI0aEwwdEFHaDMxc2Z0OTM3VTlKU2FyeFFJdmRzUXZfMkJUT1JTNy12d1BRc0c3RWdCalVIbUU5cHZQa09acFBNRzZUU3lQT2NHTzNTUENBTmpNV3JDREg0YnQxWnNPUzNPZENVbmEybHN6OFlMVm9EczlZQ0R0NDNDYmFncEw2YldHYmhHYVlWQ1AzbTJUWUZpTWFZbDFtcGdjTjZ6bWU3bFFwTlRVazJzZU1TMXpXT1dMN0pDZXdrTExoY0NKcklZekJEZGhtdGU2UFR5MUliOC1fbXZVb0xNUXRrU3ZEMGJGTGFlQUhrSUJwTGtxMkx3ZWwxQ3Fsd2NoNVlBWTVrWFBCZGNScVdJVFRFcndDS3JCWjRwUmdDcmM1QnlINmNVVDRkRnlpSUE1NkIxUXNsdWZqa09EQ3NiaTlqSVMyeGFMUFZXZDZpaEdMVFJSeFdTVjFtQ1FjU3BUR3JlSmk5bXJuSzUtcVI0VGlzdVpEYVFRMGJSUjVXSFRHZTJfU1RPTVhGVzh5dTRVdG5xdkFDdVlUX2NuaEJmX0NvNUNTNThXc09RUDBtUTVtVkJmOGgxR0NQLUUwZzJwelBBWV9WZVFtZXdhMjF2a2VneU1uRmVxNW5VYU91VjZwaG1JMVBackFkMWhJMEZfQkpyWnlyNGYxSzJ3TGY0QzZPNEFMUFp3ZTY1MHZ5Zmh3cjhYRTRNU2lxdzQ0YzlUQzE0RjZSNkVmVkc5d0hTOThzSExEYWZwMGRlSlM1dGtTWjBiNkNOYnRabTZSemJKenNpeW1mTzNJTzR3Zlh6QTNUT0E5SzBidXpPYmZqcnpTYS1rak1IbXRXLXJ4MDQzT3FqdTcxci04WFQzN2JhU3Z1OFVfVjkzMS1uZVI2dVdSN1lOR3ZjVUVjS243Wm00dW8zdHRZQU51R3V4dmFOcGxaVUpmNGdSTnBaUU0yNS04M3AzNmpLT21lRlpnUHBlVTZpcWU1Y192d0g2T1c0Vm9JOUhTR2dMY0c1c0hONlFsWHVvMHVFeURfWHVURFhRVWlPT0twZmxIemN3aUFvNm92cGxkNjJoTkJLd1A2eURsVWlFU0VoalFzOWI5OTllaFVNWVU4TVZMQmtuckNpNUJRQU1INGhqbUltMFNHdUNaZVhqdXhPRnNvNGdwQVVrOXpscUNrYU9MRzdEWlpsdm5yM1ljbFdFVXZ5cDhzOF9Dd3VjeVpKS01OZjUxUXYzU29iaUxEbjNzb0pRcG1zOGdvTkhMbFRIbnFIcFE1QXhnUlZkQ3NUTFBDZTBaRUhNNlNHOU9Mak8yOGpDV195R2VLaGpYRFpMMkhTSFhaTjMxNzk2YWlnOVBCMFVqTzVtZ0YzbXMtN0xRcDZCRUxOQTViLUxyMFRYZ3VWT25nODYybHM4MVhpQWdvU0NjUGdZSWRYTzNyTkhmMW5MTjRWaXRiMjNSVUlOVzJjR0IxTFBTWjFuTGg0Q1NaQk1EdDhXcjBZQ0E0akw2WGp6MjVVLXdaZUdNTjUzWEhITXdmTXJycVdONGxIX1FOazhMUXhwbHlBa1NzVlFuNVRJSzFhRkM2SFNzR01lMll3dlVjbkNjR3VTT2VCcHlMeE84LVYtRVpySmxnMjhoMmxNNVh5cFV1QUMyY0FBYTZyY3NUcXptbk5lVGZ1NUxPdEVxUEhySmxJaEZSaW1tYU52NWdIM1hEZ2kwYUt2STA2dk9MdkpYWi1rUWkwNG5kV1ZmTm5ESzBkTW1NbElRS05ZdERhUDJXZXl0STFWUlhSaUNodnE2dHhFTkR4SVVmcVN1ZXVHWDFzYkdmN3p1ZVFLU0pMVlNzNFdTY2xBalZ0NzVrUEp4b0U2RUQtZmZTemtNdFp6WURyR1E5ZkptdDllREhLQlA3QVdMbVBwOVgxbS1FMVI1WkpTMV9BWW1VYUF5cVE0YnBaRDVWRTI4alRQSFJNRWNIdk5DWWppYXFCUmhJbVU2T2dabGxhajZWbWNEODVZVC1UcDVNZE9GVnZfLVVhU0lpSDRtNXZzNk55dmN3aGhIa1JJQk1LeVhZdmlZN1FyMVdjTWZWUkFHdjdqWUE5RUZDVEtHQ3FwQzd1ZEJIenRUM3ZKTXE5SWRaLXN5aTdSUVFOOExUaDNSYmk0bUxYYVRtTjBNNlJYY1ZBcUNaZTlWTE5hMnhsZmRVVmJZMERNYkVhOFJkRXZ3VXJfNXRFWVNiaTNLSjhTOGI3OF9LbXBXd2FxRXVNd1p3R0c1U2RGd3pOejNyLUlqRWpaVHl3MXhPNk9vaE9WR3F2NWFhMl9NNU91aFB0NVNjcWsycmVQTzBRekZ2S2MwcFBuQTlpNDdadm9uclBoN0RaSHJNdkJ1WnExTnp2VjhfUGNmajFXUjBrSkxkMkR1T1FuMjBDSFkxUHdXZEFwSFI5T2ZTbkNXY3lOOWoxdVRIbXJ5aE1pVGtvYkYwTVRuUVpCRFZIc1pycng1Y0V3WVUydE9OZTlLX21vYXFPUjNtaVY0dURTWmhFdWtSanl1X29RYUxrUDNDSTJHZ0lpeE1GMktOdGRBLUxMTXJVV0xvWGNHT1RKQmlfaEs3WklqX2lXNjVScDdEZVZ3UW53d0JLV0ZPYVlTTkpwVXUwZFlnVGZ3cHZzakNfVWM3emhDQTFjSGRibmZKaVE4VlU5SGRHMG5JRTJZNGVQbHhObk1LT1ZwVktQeFV1aWtxQnlYWmxtd3VtS3dlc1B0cnEwblM1OEd2NjBzTC1GSE5VR05kR09CUVhnTGxhWXQyS3VaY1pwcWozLUtaMm1nVjFOWHF2S0lscmtmTTZVNi0ybHMzSDdkUEZKU0hWVU1IUnRHamR2N3JRcV9EMlZ1dkRuSVp6X3g3enRqRkFRSXhUSXNkdWo0QnQ1ckFla1ZLVFVpSWNVVjRlQVFKSmlWUE5kTWpYbjQ4R2Z2Ym5aTXFlazF0dnZ4VlgzOHJCYkFNTmpzQ2tmUlp4THVDUHhrbDcwV09RUnlveFZMY0tQS1VtREx3b19IRkcyUXdjVmhkcU5vd3J5Vjk3cUVoeEphQ1pZcG5VV1V0YTRDWnEyLXFsUlpFWHhwdTVocXFkRkNzdU1DZFRyY1ZyS1N5VW5pWXNiWTlJSkRhc0lkZXZFeVlzemdERXhOekZQS2ZhRm9JdEg2b1BHSlpNTFROZVRRYkpvQWtpRjhWN29KRHdISk5fMEcwMF0tLT48L2c+PC9zdmc+;" parent="1" vertex="1">
            <mxGeometry x="-800" width="2812" height="1078" as="geometry" />
          </mxCell>
        </UserObject>
      </root>
    </mxGraphModel>
  </diagram>
</mxfile>
